0
SECTION
2
HEADER
9
$INSUNITS
70
4
9
$ACADVER
1
AC1014
9
$HANDSEED
5
FFFF
0
ENDSEC
0
SECTION
2
TABLES
0
TABLE
2
VPORT
5
8
100
AcDbSymbolTable
0
ENDTAB
0
TABLE
2
LTYPE
5
5
100
AcDbSymbolTable
0
LTYPE
5
14
100
AcDbSymbolTableRecord
100
AcDbLinetypeTableRecord
2
BYBLOCK
70
0
0
LTYPE
5
15
100
AcDbSymbolTableRecord
100
AcDbLinetypeTableRecord
2
BYLAYER
70
0
0
LTYPE
5
16
100
AcDbSymbolTableRecord
100
AcDbLinetypeTableRecord
2
DASHED
70
0
3
Dashed __ __ __ __ __ __ __ __ __ __ __ __ __ _
72
65
73
2
40
0.75
49
0.5
74
0
49
-0.25
74
0
0
ENDTAB
0
TABLE
2
LAYER
5
2
100
AcDbSymbolTable
70
3
0
LAYER
5
50
100
AcDbSymbolTableRecord
100
AcDbLayerTableRecord
2
1
70
0
62
7
6
DASHED
0
LAYER
5
51
100
AcDbSymbolTableRecord
100
AcDbLayerTableRecord
2
0
70
0
62
7
6
CONTINUOUS
0
ENDTAB
0
TABLE
2
STYLE
5
3
100
AcDbSymbolTable
70
1
0
STYLE
5
11
100
AcDbSymbolTableRecord
100
AcDbTextStyleTableRecord
2
STANDARD
70
0
0
ENDTAB
0
TABLE
2
VIEW
5
6
100
AcDbSymbolTable
70
0
0
ENDTAB
0
TABLE
2
UCS
5
7
100
AcDbSymbolTable
70
0
0
ENDTAB
0
TABLE
2
APPID
5
9
100
AcDbSymbolTable
70
2
0
APPID
5
12
100
AcDbSymbolTableRecord
100
AcDbRegAppTableRecord
2
ACAD
70
0
0
ENDTAB
0
TABLE
2
DIMSTYLE
5
A
100
AcDbSymbolTable
70
1
0
ENDTAB
0
TABLE
2
BLOCK_RECORD
5
1
100
AcDbSymbolTable
70
1
0
BLOCK_RECORD
5
1F
100
AcDbSymbolTableRecord
100
AcDbBlockTableRecord
2
*MODEL_SPACE
0
BLOCK_RECORD
5
1B
100
AcDbSymbolTableRecord
100
AcDbBlockTableRecord
2
*PAPER_SPACE
0
ENDTAB
0
ENDSEC
0
SECTION
2
BLOCKS
0
BLOCK
5
20
100
AcDbEntity
100
AcDbBlockBegin
2
*MODEL_SPACE
0
ENDBLK
5
21
100
AcDbEntity
100
AcDbBlockEnd
0
BLOCK
5
1C
100
AcDbEntity
100
AcDbBlockBegin
2
*PAPER_SPACE
0
ENDBLK
5
1D
100
AcDbEntity
100
AcDbBlockEnd
0
ENDSEC
0
SECTION
2
ENTITIES
0
LWPOLYLINE
5
100
100
AcDbEntity
8
0
100
AcDbPolyline
90
4
70
1
43
0.0
10
-447.55624999999998
20
160.73624999999998
10
-447.55624999999998
20
146.73625000000001
10
-461.55624999999998
20
146.73625000000001
10
-461.55624999999998
20
160.73624999999998
0
LWPOLYLINE
5
101
100
AcDbEntity
8
0
100
AcDbPolyline
90
4
70
1
43
0.0
10
-428.50625000000002
20
236.93625
10
-428.50625000000002
20
222.93625000000003
10
-442.50625000000002
20
222.93625000000003
10
-442.50625000000002
20
236.93625
0
LWPOLYLINE
5
102
100
AcDbEntity
8
0
100
AcDbPolyline
90
4
70
1
43
0.0
10
-415.3125
20
228.84925000000004
10
-415.3125
20
235.84925000000001
10
-400.3125
20
235.84925000000001
10
-400.3125
20
228.84925000000004
0
LWPOLYLINE
5
103
100
AcDbEntity
8
0
100
AcDbPolyline
90
4
70
1
43
0.0
10
-385.64374999999995
20
146.73625000000001
10
-399.64374999999995
20
146.73625000000001
10
-399.64374999999995
20
160.73624999999998
10
-385.64374999999995
20
160.73624999999998
0
LWPOLYLINE
5
104
100
AcDbEntity
8
0
100
AcDbPolyline
90
4
70
1
43
0.0
10
-399.64374999999995
20
184.83625000000004
10
-399.64374999999995
20
198.83625000000001
10
-385.64374999999995
20
198.83625000000001
10
-385.64374999999995
20
184.83625000000004
0
LWPOLYLINE
5
105
100
AcDbEntity
8
0
100
AcDbPolyline
90
4
70
1
43
0.0
10
-345.16250000000002
20
222.93625000000003
10
-359.16249999999997
20
222.93625000000003
10
-359.16249999999997
20
236.93625
10
-345.16250000000002
20
236.93625
0
LWPOLYLINE
5
106
100
AcDbEntity
8
0
100
AcDbPolyline
90
4
70
1
43
0.0
10
-347.54374999999993
20
165.78625000000002
10
-361.54375000000005
20
165.78625000000002
10
-361.54375000000005
20
179.78625
10
-347.54374999999993
20
179.78625
0
LWPOLYLINE
5
107
100
AcDbEntity
8
0
100
AcDbPolyline
90
4
70
1
43
0.0
10
-328.49374999999998
20
198.83625000000001
10
-328.49374999999998
20
184.83625000000004
10
-342.49374999999998
20
184.83625000000004
10
-342.49374999999998
20
198.83625000000001
0
LWPOLYLINE
5
108
100
AcDbEntity
8
0
100
AcDbPolyline
90
4
70
1
43
0.0
10
-309.44374999999997
20
184.83625000000004
10
-323.44375000000002
20
184.83625000000004
10
-323.44375000000002
20
198.83625000000001
10
-309.44374999999997
20
198.83625000000001
0
LWPOLYLINE
5
109
100
AcDbEntity
8
0
100
AcDbPolyline
90
4
70
1
43
0.0
10
-309.15625
20
203.88625000000002
10
-309.15625
20
217.88625000000002
10
-295.15625
20
217.88625000000002
10
-295.15625
20
203.88625000000002
0
LWPOLYLINE
5
110
100
AcDbEntity
8
0
100
AcDbPolyline
90
4
70
1
43
0.0
10
-266.58124999999995
20
146.73625000000001
10
-280.58124999999995
20
146.73625000000001
10
-280.58124999999995
20
160.73624999999998
10
-266.58124999999995
20
160.73624999999998
0
LWPOLYLINE
5
111
100
AcDbEntity
8
0
100
AcDbPolyline
90
4
70
1
43
0.0
10
-266.58124999999995
20
222.93625000000003
10
-280.58124999999995
20
222.93625000000003
10
-280.58124999999995
20
236.93625
10
-266.58124999999995
20
236.93625
0
LWPOLYLINE
5
112
100
AcDbEntity
8
0
100
AcDbPolyline
90
4
70
1
43
0.0
10
-247.53124999999997
20
165.78625000000002
10
-261.53124999999994
20
165.78625000000002
10
-261.53124999999994
20
179.78625
10
-247.53124999999997
20
179.78625
0
LWPOLYLINE
5
113
100
AcDbEntity
8
0
100
AcDbPolyline
90
4
70
1
43
0.0
10
-228.48124999999996
20
203.88625000000002
10
-242.48124999999999
20
203.88625000000002
10
-242.48124999999999
20
217.88625000000002
10
-228.48124999999996
20
217.88625000000002
0
LWPOLYLINE
5
114
100
AcDbEntity
8
0
100
AcDbPolyline
90
4
70
1
43
0.0
10
-204.66874999999999
20
184.83625000000004
10
-218.66874999999996
20
184.83625000000004
10
-218.66874999999996
20
198.83625000000001
10
-204.66874999999999
20
198.83625000000001
0
LWPOLYLINE
5
115
100
AcDbEntity
8
0
100
AcDbPolyline
90
4
70
1
43
0.0
10
-204.66874999999999
20
203.88625000000002
10
-218.66874999999996
20
203.88625000000002
10
-218.66874999999996
20
217.88625000000002
10
-204.66874999999999
20
217.88625000000002
0
LWPOLYLINE
5
116
100
AcDbEntity
8
0
100
AcDbPolyline
90
4
70
1
43
0.0
10
-242.48124999999999
20
184.83625000000004
10
-242.48124999999999
20
198.83625000000001
10
-228.48124999999996
20
198.83625000000001
10
-228.48124999999996
20
184.83625000000004
0
LWPOLYLINE
5
117
100
AcDbEntity
8
0
100
AcDbPolyline
90
4
70
1
43
0.0
10
-261.53124999999994
20
146.73625000000001
10
-261.53124999999994
20
160.73624999999998
10
-247.53124999999997
20
160.73624999999998
10
-247.53124999999997
20
146.73625000000001
0
LWPOLYLINE
5
118
100
AcDbEntity
8
0
100
AcDbPolyline
90
4
70
1
43
0.0
10
-247.53124999999997
20
222.93625000000003
10
-261.53124999999994
20
222.93625000000003
10
-261.53124999999994
20
236.93625
10
-247.53124999999997
20
236.93625
0
LWPOLYLINE
5
119
100
AcDbEntity
8
0
100
AcDbPolyline
90
4
70
1
43
0.0
10
-266.58124999999995
20
165.78625000000002
10
-280.58124999999995
20
165.78625000000002
10
-280.58124999999995
20
179.78625
10
-266.58124999999995
20
179.78625
0
LWPOLYLINE
5
120
100
AcDbEntity
8
0
100
AcDbPolyline
90
4
70
1
43
0.0
10
-304.39374999999995
20
184.83625000000004
10
-304.39374999999995
20
198.83625000000001
10
-290.39375000000001
20
198.83625000000001
10
-290.39375000000001
20
184.83625000000004
0
LWPOLYLINE
5
121
100
AcDbEntity
8
0
100
AcDbPolyline
90
4
70
1
43
0.0
10
-318.96875
20
203.88625000000002
10
-332.96875
20
203.88625000000002
10
-332.96875
20
217.88625000000002
10
-318.96875
20
217.88625000000002
0
LWPOLYLINE
5
122
100
AcDbEntity
8
0
100
AcDbPolyline
90
4
70
1
43
0.0
10
-352.01875000000001
20
203.88625000000002
10
-352.01875000000001
20
217.88625000000002
10
-338.01874999999995
20
217.88625000000002
10
-338.01874999999995
20
203.88625000000002
0
LWPOLYLINE
5
123
100
AcDbEntity
8
0
100
AcDbPolyline
90
4
70
1
43
0.0
10
-347.54374999999993
20
146.73625000000001
10
-361.54375000000005
20
146.73625000000001
10
-361.54375000000005
20
160.73624999999998
10
-347.54374999999993
20
160.73624999999998
0
LWPOLYLINE
5
124
100
AcDbEntity
8
0
100
AcDbPolyline
90
4
70
1
43
0.0
10
-360.60049999999995
20
223.93625
10
-367.6004999999999
20
223.93625
10
-367.6004999999999
20
238.93625
10
-360.60049999999995
20
238.93625
0
LWPOLYLINE
5
125
100
AcDbEntity
8
0
100
AcDbPolyline
90
4
70
1
43
0.0
10
-376.11874999999998
20
203.88625000000002
10
-390.11874999999998
20
203.88625000000002
10
-390.11874999999998
20
217.88625000000002
10
-376.11874999999998
20
217.88625000000002
0
LWPOLYLINE
5
126
100
AcDbEntity
8
0
100
AcDbPolyline
90
4
70
1
43
0.0
10
-366.59375
20
146.73625000000001
10
-380.59374999999994
20
146.73625000000001
10
-380.59374999999994
20
160.73624999999998
10
-366.59375
20
160.73624999999998
0
LWPOLYLINE
5
127
100
AcDbEntity
8
0
100
AcDbPolyline
90
4
70
1
43
0.0
10
-416.31249999999994
20
213.41125000000002
10
-416.31249999999994
20
227.41125000000005
10
-402.31249999999994
20
227.41125000000005
10
-402.31249999999994
20
213.41125000000002
0
LWPOLYLINE
5
128
100
AcDbEntity
8
0
100
AcDbPolyline
90
4
70
1
43
0.0
10
-404.69375000000002
20
184.83625000000004
10
-418.69374999999997
20
184.83625000000004
10
-418.69374999999997
20
198.83625000000001
10
-404.69375000000002
20
198.83625000000001
0
LWPOLYLINE
5
129
100
AcDbEntity
8
0
100
AcDbPolyline
90
4
70
1
43
0.0
10
-442.50625000000002
20
146.73625000000001
10
-442.50625000000002
20
160.73624999999998
10
-428.50625000000002
20
160.73624999999998
10
-428.50625000000002
20
146.73625000000001
0
LWPOLYLINE
5
130
100
AcDbEntity
8
0
100
AcDbPolyline
90
4
70
1
43
0.0
10
-466.60624999999993
20
146.73625000000001
10
-480.60624999999993
20
146.73625000000001
10
-480.60624999999993
20
160.73624999999998
10
-466.60624999999993
20
160.73624999999998
0
LWPOLYLINE
5
131
100
AcDbEntity
8
0
100
AcDbPolyline
90
4
70
1
43
0.0
10
-447.55624999999998
20
236.93625
10
-447.55624999999998
20
222.93625000000003
10
-461.55624999999998
20
222.93625000000003
10
-461.55624999999998
20
236.93625
0
LWPOLYLINE
5
132
100
AcDbEntity
8
0
100
AcDbPolyline
90
4
70
1
43
0.0
10
-418.69374999999997
20
165.78625000000002
10
-418.69374999999997
20
179.78625
10
-404.69375000000002
20
179.78625
10
-404.69375000000002
20
165.78625000000002
0
LWPOLYLINE
5
133
100
AcDbEntity
8
0
100
AcDbPolyline
90
4
70
1
43
0.0
10
-366.59375
20
198.83625000000001
10
-366.59375
20
184.83625000000004
10
-380.59374999999994
20
184.83625000000004
10
-380.59374999999994
20
198.83625000000001
0
LWPOLYLINE
5
134
100
AcDbEntity
8
0
100
AcDbPolyline
90
4
70
1
43
0.0
10
-366.59375
20
165.78625000000002
10
-380.59374999999994
20
165.78625000000002
10
-380.59374999999994
20
179.78625
10
-366.59375
20
179.78625
0
LWPOLYLINE
5
135
100
AcDbEntity
8
0
100
AcDbPolyline
90
4
70
1
43
0.0
10
-343.72450000000003
20
223.93625
10
-343.72450000000003
20
238.93625
10
-336.72449999999998
20
238.93625
10
-336.72449999999998
20
223.93625
0
LWPOLYLINE
5
136
100
AcDbEntity
8
0
100
AcDbPolyline
90
4
70
1
43
0.0
10
-347.54374999999993
20
198.83625000000001
10
-347.54374999999993
20
184.83625000000004
10
-361.54375000000005
20
184.83625000000004
10
-361.54375000000005
20
198.83625000000001
0
LWPOLYLINE
5
137
100
AcDbEntity
8
0
100
AcDbPolyline
90
4
70
1
43
0.0
10
-328.49374999999998
20
165.78625000000002
10
-342.49374999999998
20
165.78625000000002
10
-342.49374999999998
20
179.78625
10
-328.49374999999998
20
179.78625
0
LWPOLYLINE
5
138
100
AcDbEntity
8
0
100
AcDbPolyline
90
4
70
1
43
0.0
10
-309.44374999999997
20
165.78625000000002
10
-323.44375000000002
20
165.78625000000002
10
-323.44375000000002
20
179.78625
10
-309.44374999999997
20
179.78625
0
LWPOLYLINE
5
139
100
AcDbEntity
8
0
100
AcDbPolyline
90
4
70
1
43
0.0
10
-290.39375000000001
20
236.93625
10
-290.39375000000001
20
222.93625000000003
10
-304.39374999999995
20
222.93625000000003
10
-304.39374999999995
20
236.93625
0
LWPOLYLINE
5
140
100
AcDbEntity
8
0
100
AcDbPolyline
90
4
70
1
43
0.0
10
-290.39375000000001
20
146.73625000000001
10
-304.39374999999995
20
146.73625000000001
10
-304.39374999999995
20
160.73624999999998
10
-290.39375000000001
20
160.73624999999998
0
LWPOLYLINE
5
141
100
AcDbEntity
8
0
100
AcDbPolyline
90
4
70
1
43
0.0
10
-280.58124999999995
20
203.88625000000002
10
-280.58124999999995
20
217.88625000000002
10
-266.58124999999995
20
217.88625000000002
10
-266.58124999999995
20
203.88625000000002
0
LWPOLYLINE
5
142
100
AcDbEntity
8
0
100
AcDbPolyline
90
4
70
1
43
0.0
10
-247.53124999999997
20
184.83625000000004
10
-261.53124999999994
20
184.83625000000004
10
-261.53124999999994
20
198.83625000000001
10
-247.53124999999997
20
198.83625000000001
0
LWPOLYLINE
5
143
100
AcDbEntity
8
0
100
AcDbPolyline
90
4
70
1
43
0.0
10
-228.48124999999996
20
165.78625000000002
10
-242.48124999999999
20
165.78625000000002
10
-242.48124999999999
20
179.78625
10
-228.48124999999996
20
179.78625
0
LWPOLYLINE
5
144
100
AcDbEntity
8
0
100
AcDbPolyline
90
4
70
1
43
0.0
10
-218.66874999999996
20
165.78625000000002
10
-218.66874999999996
20
179.78625
10
-204.66874999999999
20
179.78625
10
-204.66874999999999
20
165.78625000000002
0
LWPOLYLINE
5
145
100
AcDbEntity
8
0
100
AcDbPolyline
90
4
70
1
43
0.0
10
-204.66874999999999
20
222.93625000000003
10
-218.66874999999996
20
222.93625000000003
10
-218.66874999999996
20
236.93625
10
-204.66874999999999
20
236.93625
0
LWPOLYLINE
5
146
100
AcDbEntity
8
0
100
AcDbPolyline
90
4
70
1
43
0.0
10
-228.48124999999996
20
222.93625000000003
10
-242.48124999999999
20
222.93625000000003
10
-242.48124999999999
20
236.93625
10
-228.48124999999996
20
236.93625
0
LWPOLYLINE
5
147
100
AcDbEntity
8
0
100
AcDbPolyline
90
4
70
1
43
0.0
10
-228.48124999999996
20
146.73625000000001
10
-242.48124999999999
20
146.73625000000001
10
-242.48124999999999
20
160.73624999999998
10
-228.48124999999996
20
160.73624999999998
0
LWPOLYLINE
5
148
100
AcDbEntity
8
0
100
AcDbPolyline
90
4
70
1
43
0.0
10
-247.53124999999997
20
203.88625000000002
10
-261.53124999999994
20
203.88625000000002
10
-261.53124999999994
20
217.88625000000002
10
-247.53124999999997
20
217.88625000000002
0
LWPOLYLINE
5
149
100
AcDbEntity
8
0
100
AcDbPolyline
90
4
70
1
43
0.0
10
-266.58124999999995
20
184.83625000000004
10
-280.58124999999995
20
184.83625000000004
10
-280.58124999999995
20
198.83625000000001
10
-266.58124999999995
20
198.83625000000001
0
LWPOLYLINE
5
150
100
AcDbEntity
8
0
100
AcDbPolyline
90
4
70
1
43
0.0
10
-290.39375000000001
20
165.78625000000002
10
-304.39374999999995
20
165.78625000000002
10
-304.39374999999995
20
179.78625
10
-290.39375000000001
20
179.78625
0
LWPOLYLINE
5
151
100
AcDbEntity
8
0
100
AcDbPolyline
90
4
70
1
43
0.0
10
-309.44374999999997
20
222.93625000000003
10
-323.44375000000002
20
222.93625000000003
10
-323.44375000000002
20
236.93625
10
-309.44374999999997
20
236.93625
0
LWPOLYLINE
5
152
100
AcDbEntity
8
0
100
AcDbPolyline
90
4
70
1
43
0.0
10
-323.44375000000002
20
146.73625000000001
10
-323.44375000000002
20
160.73624999999998
10
-309.44374999999997
20
160.73624999999998
10
-309.44374999999997
20
146.73625000000001
0
LWPOLYLINE
5
153
100
AcDbEntity
8
0
100
AcDbPolyline
90
4
70
1
43
0.0
10
-342.49374999999998
20
146.73625000000001
10
-342.49374999999998
20
160.73624999999998
10
-328.49374999999998
20
160.73624999999998
10
-328.49374999999998
20
146.73625000000001
0
LWPOLYLINE
5
154
100
AcDbEntity
8
0
100
AcDbPolyline
90
4
70
1
43
0.0
10
-371.06875000000002
20
203.88625000000002
10
-371.06875000000002
20
217.88625000000002
10
-357.06874999999997
20
217.88625000000002
10
-357.06874999999997
20
203.88625000000002
0
LWPOLYLINE
5
155
100
AcDbEntity
8
0
100
AcDbPolyline
90
4
70
1
43
0.0
10
-380.88124999999997
20
222.93625000000003
10
-394.88124999999997
20
222.93625000000003
10
-394.88124999999997
20
236.93625
10
-380.88124999999997
20
236.93625
0
LWPOLYLINE
5
156
100
AcDbEntity
8
0
100
AcDbPolyline
90
4
70
1
43
0.0
10
-385.64374999999995
20
179.78625
10
-385.64374999999995
20
165.78625000000002
10
-399.64374999999995
20
165.78625000000002
10
-399.64374999999995
20
179.78625
0
LWPOLYLINE
5
157
100
AcDbEntity
8
0
100
AcDbPolyline
90
4
70
1
43
0.0
10
-415.3125
20
204.97325000000004
10
-415.3125
20
211.97325000000004
10
-400.3125
20
211.97325000000004
10
-400.3125
20
204.97325000000004
0
LWPOLYLINE
5
158
100
AcDbEntity
8
0
100
AcDbPolyline
90
4
70
1
43
0.0
10
-404.69375000000002
20
146.73625000000001
10
-418.69374999999997
20
146.73625000000001
10
-418.69374999999997
20
160.73624999999998
10
-404.69375000000002
20
160.73624999999998
0
LWPOLYLINE
5
159
100
AcDbEntity
8
0
100
AcDbPolyline
90
4
70
1
43
0.0
10
-466.60624999999993
20
222.93625000000003
10
-480.60624999999993
20
222.93625000000003
10
-480.60624999999993
20
236.93625
10
-466.60624999999993
20
236.93625
0
LWPOLYLINE
5
160
100
AcDbEntity
8
0
100
AcDbPolyline
90
4
70
1
43
0.0
10
-461.55624999999998
20
203.88625000000002
10
-461.55624999999998
20
217.88625000000002
10
-447.55624999999998
20
217.88625000000002
10
-447.55624999999998
20
203.88625000000002
0
LWPOLYLINE
5
161
100
AcDbEntity
8
0
100
AcDbPolyline
90
8
70
1
43
0.0
10
-200.36374999999271
20
236.67625000000018
42
0.41421356237310197
10
-204.86374999999271
20
241.17625000000021
10
-484.83874999999665
20
241.17625000000018
42
0.41421356237310658
10
-489.33874999999671
20
236.67625000000021
10
-489.33874999999671
20
147.10125000000019
42
0.41421356237309964
10
-484.83874999999671
20
142.60125000000011
10
-204.86374999999273
20
142.60125000000016
42
0.41421356237310197
10
-200.36374999999271
20
147.10125000000016
0
ENDSEC
0
SECTION
2
OBJECTS
0
DICTIONARY
5
C
100
AcDbDictionary
3
ACAD_GROUP
350
D
3
ACAD_MLINESTYLE
350
17
0
DICTIONARY
5
D
100
AcDbDictionary
0
DICTIONARY
5
1A
330
C
100
AcDbDictionary
0
DICTIONARY
5
17
100
AcDbDictionary
0
ENDSEC
0
EOF
