0
SECTION
2
HEADER
9
$INSUNITS
70
4
9
$ACADVER
1
AC1014
9
$HANDSEED
5
FFFF
0
ENDSEC
0
SECTION
2
TABLES
0
TABLE
2
VPORT
5
8
100
AcDbSymbolTable
0
ENDTAB
0
TABLE
2
LTYPE
5
5
100
AcDbSymbolTable
0
LTYPE
5
14
100
AcDbSymbolTableRecord
100
AcDbLinetypeTableRecord
2
BYBLOCK
70
0
0
LTYPE
5
15
100
AcDbSymbolTableRecord
100
AcDbLinetypeTableRecord
2
BYLAYER
70
0
0
LTYPE
5
16
100
AcDbSymbolTableRecord
100
AcDbLinetypeTableRecord
2
DASHED
70
0
3
Dashed __ __ __ __ __ __ __ __ __ __ __ __ __ _
72
65
73
2
40
0.75
49
0.5
74
0
49
-0.25
74
0
0
ENDTAB
0
TABLE
2
LAYER
5
2
100
AcDbSymbolTable
70
3
0
LAYER
5
50
100
AcDbSymbolTableRecord
100
AcDbLayerTableRecord
2
1
70
0
62
7
6
DASHED
0
LAYER
5
51
100
AcDbSymbolTableRecord
100
AcDbLayerTableRecord
2
0
70
0
62
7
6
CONTINUOUS
0
ENDTAB
0
TABLE
2
STYLE
5
3
100
AcDbSymbolTable
70
1
0
STYLE
5
11
100
AcDbSymbolTableRecord
100
AcDbTextStyleTableRecord
2
STANDARD
70
0
0
ENDTAB
0
TABLE
2
VIEW
5
6
100
AcDbSymbolTable
70
0
0
ENDTAB
0
TABLE
2
UCS
5
7
100
AcDbSymbolTable
70
0
0
ENDTAB
0
TABLE
2
APPID
5
9
100
AcDbSymbolTable
70
2
0
APPID
5
12
100
AcDbSymbolTableRecord
100
AcDbRegAppTableRecord
2
ACAD
70
0
0
ENDTAB
0
TABLE
2
DIMSTYLE
5
A
100
AcDbSymbolTable
70
1
0
ENDTAB
0
TABLE
2
BLOCK_RECORD
5
1
100
AcDbSymbolTable
70
1
0
BLOCK_RECORD
5
1F
100
AcDbSymbolTableRecord
100
AcDbBlockTableRecord
2
*MODEL_SPACE
0
BLOCK_RECORD
5
1B
100
AcDbSymbolTableRecord
100
AcDbBlockTableRecord
2
*PAPER_SPACE
0
ENDTAB
0
ENDSEC
0
SECTION
2
BLOCKS
0
BLOCK
5
20
100
AcDbEntity
100
AcDbBlockBegin
2
*MODEL_SPACE
0
ENDBLK
5
21
100
AcDbEntity
100
AcDbBlockEnd
0
BLOCK
5
1C
100
AcDbEntity
100
AcDbBlockBegin
2
*PAPER_SPACE
0
ENDBLK
5
1D
100
AcDbEntity
100
AcDbBlockEnd
0
ENDSEC
0
SECTION
2
ENTITIES
0
SPLINE
5
100
100
AcDbEntity
8
0
100
AcDbSpline
70
4
71
3
72
8
73
4
74
0
42
0.000000001
43
0.0000000001
44
0.0000000001
40
-1
40
-1
40
-1
40
-1
40
0
40
0
40
0
40
0
41
1
41
1
41
1
41
1
10
-214.51690483174502
20
148.80489913864483
30
0
10
-214.52229259036784
20
148.71330724205689
30
0
10
-214.55461914210474
20
148.62710310409176
30
0
10
-214.58155793521885
20
148.60555206960046
30
0
0
SPLINE
5
101
100
AcDbEntity
8
0
100
AcDbSpline
70
4
71
3
72
8
73
4
74
0
42
0.000000001
43
0.0000000001
44
0.0000000001
40
-1
40
-1
40
-1
40
-1
40
0
40
0
40
0
40
0
41
1
41
1
41
1
41
1
10
-214.58155793521885
20
148.60555206960046
30
0
10
-214.61388448695578
20
148.5840010351092
30
0
10
-214.65698655593832
20
148.5840010351092
30
0
10
-214.67314983180682
20
148.60555206960046
30
0
0
SPLINE
5
102
100
AcDbEntity
8
0
100
AcDbSpline
70
4
71
3
72
8
73
4
74
0
42
0.000000001
43
0.0000000001
44
0.0000000001
40
-1
40
-1
40
-1
40
-1
40
0
40
0
40
0
40
0
41
1
41
1
41
1
41
1
10
-214.67314983180682
20
148.60555206960046
30
0
10
-214.73241517665784
20
148.67020517307429
30
0
10
-214.77012948701756
20
149.04196051804891
30
0
10
-214.72163965941218
20
149.07428706978581
30
0
0
SPLINE
5
103
100
AcDbEntity
8
0
100
AcDbSpline
70
4
71
3
72
8
73
4
74
0
42
0.000000001
43
0.0000000001
44
0.0000000001
40
-1
40
-1
40
-1
40
-1
40
0
40
0
40
0
40
0
41
1
41
1
41
1
41
1
10
-214.72163965941218
20
149.07428706978581
30
0
10
-214.70008862492091
20
149.09045034565429
30
0
10
-214.66237431456113
20
149.28979741469863
30
0
10
-214.64082328006987
20
149.52147103547989
30
0
0
SPLINE
5
104
100
AcDbEntity
8
0
100
AcDbSpline
70
4
71
3
72
8
73
4
74
0
42
0.000000001
43
0.0000000001
44
0.0000000001
40
-1
40
-1
40
-1
40
-1
40
0
40
0
40
0
40
0
41
1
41
1
41
1
41
1
10
-214.64082328006987
20
149.52147103547989
30
0
10
-214.6192722455786
20
149.74775689763834
30
0
10
-214.57078241797322
20
149.99020603566527
30
0
10
-214.52768034899066
20
150.0548591391391
30
0
0
SPLINE
5
105
100
AcDbEntity
8
0
100
AcDbSpline
70
4
71
3
72
8
73
4
74
0
42
0.000000001
43
0.0000000001
44
0.0000000001
40
-1
40
-1
40
-1
40
-1
40
0
40
0
40
0
40
0
41
1
41
1
41
1
41
1
10
-214.52768034899066
20
150.0548591391391
30
0
10
-214.48457828000809
20
150.11951224261293
30
0
10
-214.45225172827119
20
150.21110413920087
30
0
10
-214.45225172827119
20
150.25420620818346
30
0
0
SPLINE
5
106
100
AcDbEntity
8
0
100
AcDbSpline
70
4
71
3
72
8
73
4
74
0
42
0.000000001
43
0.0000000001
44
0.0000000001
40
-1
40
-1
40
-1
40
-1
40
0
40
0
40
0
40
0
41
1
41
1
41
1
41
1
10
-214.45225172827119
20
150.25420620818346
30
0
10
-214.45225172827119
20
150.29730827716602
30
0
10
-214.41992517653426
20
150.3996756909996
30
0
10
-214.37682310755167
20
150.4858798289647
30
0
0
SPLINE
5
107
100
AcDbEntity
8
0
100
AcDbSpline
70
4
71
3
72
8
73
4
74
0
42
0.000000001
43
0.0000000001
44
0.0000000001
40
-1
40
-1
40
-1
40
-1
40
0
40
0
40
0
40
0
41
1
41
1
41
1
41
1
10
-214.37682310755167
20
150.4858798289647
30
0
10
-214.33372103856914
20
150.56669620830701
30
0
10
-214.24751690060401
20
150.74449224286008
30
0
10
-214.18286379713015
20
150.87918620843058
30
0
0
SPLINE
5
108
100
AcDbEntity
8
0
100
AcDbSpline
70
4
71
3
72
8
73
4
74
0
42
0.000000001
43
0.0000000001
44
0.0000000001
40
-1
40
-1
40
-1
40
-1
40
0
40
0
40
0
40
0
41
1
41
1
41
1
41
1
10
-214.18286379713015
20
150.87918620843058
30
0
10
-214.11282293503351
20
151.01388017400109
30
0
10
-213.96735345221737
20
151.23477827753672
30
0
10
-213.85421052113813
20
151.37486000173004
30
0
0
SPLINE
5
109
100
AcDbEntity
8
0
100
AcDbSpline
70
4
71
3
72
8
73
4
74
0
42
0.000000001
43
0.0000000001
44
0.0000000001
40
-1
40
-1
40
-1
40
-1
40
0
40
0
40
0
40
0
41
1
41
1
41
1
41
1
10
-213.85421052113813
20
151.37486000173004
30
0
10
-213.73567983143607
20
151.51494172592339
30
0
10
-213.64408793484813
20
151.66041120873953
30
0
10
-213.64408793484813
20
151.70890103634488
30
0
0
SPLINE
5
110
100
AcDbEntity
8
0
100
AcDbSpline
70
4
71
3
72
8
73
4
74
0
42
0.000000001
43
0.0000000001
44
0.0000000001
40
-1
40
-1
40
-1
40
-1
40
0
40
0
40
0
40
0
41
1
41
1
41
1
41
1
10
-213.64408793484813
20
151.70890103634488
30
0
10
-213.64408793484813
20
151.80588069155567
30
0
10
-213.53094500376892
20
151.84359500191539
30
0
10
-213.21845500364535
20
151.85975827778387
30
0
0
SPLINE
5
111
100
AcDbEntity
8
0
100
AcDbSpline
70
4
71
3
72
8
73
4
74
0
42
0.000000001
43
0.0000000001
44
0.0000000001
40
-1
40
-1
40
-1
40
-1
40
0
40
0
40
0
40
0
41
1
41
1
41
1
41
1
10
-213.21845500364535
20
151.85975827778387
30
0
10
-212.9921691414869
20
151.86514603640668
30
0
10
-212.90057724489895
20
151.80588069155567
30
0
10
-212.85208741729355
20
151.60653362251134
30
0
0
SPLINE
5
112
100
AcDbEntity
8
0
100
AcDbSpline
70
4
71
3
72
8
73
4
74
0
42
0.000000001
43
0.0000000001
44
0.0000000001
40
-1
40
-1
40
-1
40
-1
40
0
40
0
40
0
40
0
41
1
41
1
41
1
41
1
10
-212.85208741729355
20
151.60653362251134
30
0
10
-212.84669965867073
20
151.57420707077441
30
0
10
-212.8035975896882
20
151.42334982933542
30
0
10
-212.76049552070563
20
151.26710482927365
30
0
0
SPLINE
5
113
100
AcDbEntity
8
0
100
AcDbSpline
70
4
71
3
72
8
73
4
74
0
42
0.000000001
43
0.0000000001
44
0.0000000001
40
-1
40
-1
40
-1
40
-1
40
0
40
0
40
0
40
0
41
1
41
1
41
1
41
1
10
-212.76049552070563
20
151.26710482927365
30
0
10
-212.68506689998614
20
150.99232913950982
30
0
10
-212.68506689998614
20
150.72832896699163
30
0
10
-212.76049552070563
20
150.27036948405191
30
0
0
SPLINE
5
114
100
AcDbEntity
8
0
100
AcDbSpline
70
4
71
3
72
8
73
4
74
0
42
0.000000001
43
0.0000000001
44
0.0000000001
40
-1
40
-1
40
-1
40
-1
40
0
40
0
40
0
40
0
41
1
41
1
41
1
41
1
10
-212.76049552070563
20
150.27036948405191
30
0
10
-212.8035975896882
20
149.99559379428808
30
0
10
-212.7281689689687
20
150.01714482877935
30
0
10
-212.56653621028408
20
150.32424707028011
30
0
0
SPLINE
5
115
100
AcDbEntity
8
0
100
AcDbSpline
70
4
71
3
72
8
73
4
74
0
42
0.000000001
43
0.0000000001
44
0.0000000001
40
-1
40
-1
40
-1
40
-1
40
0
40
0
40
0
40
0
41
1
41
1
41
1
41
1
10
-212.56653621028408
20
150.32424707028011
30
0
10
-212.49110758956462
20
150.46971655309625
30
0
10
-212.41567896884516
20
150.59363500142112
30
0
10
-212.39951569297665
20
150.6097982772896
30
0
0
SPLINE
5
116
100
AcDbEntity
8
0
100
AcDbSpline
70
4
71
3
72
8
73
4
74
0
42
0.000000001
43
0.0000000001
44
0.0000000001
40
-1
40
-1
40
-1
40
-1
40
0
40
0
40
0
40
0
41
1
41
1
41
1
41
1
10
-212.39951569297665
20
150.6097982772896
30
0
10
-212.3833524171082
20
150.62596155315805
30
0
10
-212.2971482791431
20
150.74449224286008
30
0
10
-212.20555638255516
20
150.87918620843058
30
0
0
SPLINE
5
117
100
AcDbEntity
8
0
100
AcDbSpline
70
4
71
3
72
8
73
4
74
0
42
0.000000001
43
0.0000000001
44
0.0000000001
40
-1
40
-1
40
-1
40
-1
40
0
40
0
40
0
40
0
41
1
41
1
41
1
41
1
10
-212.20555638255516
20
150.87918620843058
30
0
10
-212.04931138249336
20
151.11085982921185
30
0
10
-211.97927052039671
20
151.19167620855416
30
0
10
-211.67216827889598
20
151.53649276041466
30
0
0
SPLINE
5
118
100
AcDbEntity
8
0
100
AcDbSpline
70
4
71
3
72
8
73
4
74
0
42
0.000000001
43
0.0000000001
44
0.0000000001
40
-1
40
-1
40
-1
40
-1
40
0
40
0
40
0
40
0
41
1
41
1
41
1
41
1
10
-211.67216827889598
20
151.53649276041466
30
0
10
-211.60212741679928
20
151.61730913975697
30
0
10
-211.54286207194826
20
151.70351327772207
30
0
10
-211.54286207194826
20
151.72506431221336
30
0
0
SPLINE
5
119
100
AcDbEntity
8
0
100
AcDbSpline
70
4
71
3
72
8
73
4
74
0
42
0.000000001
43
0.0000000001
44
0.0000000001
40
-1
40
-1
40
-1
40
-1
40
0
40
0
40
0
40
0
41
1
41
1
41
1
41
1
10
-211.54286207194826
20
151.72506431221336
30
0
10
-211.54286207194826
20
151.74122758808184
30
0
10
-211.50514776158855
20
151.80049293293285
30
0
10
-211.45665793398314
20
151.85437051916105
30
0
0
SPLINE
5
120
100
AcDbEntity
8
0
100
AcDbSpline
70
4
71
3
72
8
73
4
74
0
42
0.000000001
43
0.0000000001
44
0.0000000001
40
-1
40
-1
40
-1
40
-1
40
0
40
0
40
0
40
0
41
1
41
1
41
1
41
1
10
-211.45665793398314
20
151.85437051916105
30
0
10
-211.38661707188646
20
151.93518689850333
30
0
10
-211.34890276152674
20
151.94057465712618
30
0
10
-211.23575983044753
20
151.88669707089798
30
0
0
LINE
5
121
100
AcDbEntity
8
0
100
AcDbLine
10
-211.23575983044753
20
151.88669707089795
30
0
11
-211.09567810625418
21
151.82743172604694
31
0
0
LINE
5
122
100
AcDbEntity
8
0
100
AcDbLine
10
-211.09567810625418
20
151.82743172604694
30
0
11
-211.12800465799111
21
151.2293905189139
31
0
0
SPLINE
5
123
100
AcDbEntity
8
0
100
AcDbSpline
70
4
71
3
72
8
73
4
74
0
42
0.000000001
43
0.0000000001
44
0.0000000001
40
-1
40
-1
40
-1
40
-1
40
0
40
0
40
0
40
0
41
1
41
1
41
1
41
1
10
-211.12800465799111
20
151.2293905189139
30
0
10
-211.14955569248238
20
150.90612500154469
30
0
10
-211.18727000284213
20
150.55053293243856
30
0
10
-211.21959655457908
20
150.44816551860498
30
0
0
SPLINE
5
124
100
AcDbEntity
8
0
100
AcDbSpline
70
4
71
3
72
8
73
4
74
0
42
0.000000001
43
0.0000000001
44
0.0000000001
40
-1
40
-1
40
-1
40
-1
40
0
40
0
40
0
40
0
41
1
41
1
41
1
41
1
10
-211.21959655457908
20
150.44816551860498
30
0
10
-211.25192310631599
20
150.34579810477138
30
0
10
-211.28424965805291
20
149.95787948392834
30
0
10
-211.29502517529855
20
149.59689965619938
30
0
0
SPLINE
5
125
100
AcDbEntity
8
0
100
AcDbSpline
70
4
71
3
72
8
73
4
74
0
42
0.000000001
43
0.0000000001
44
0.0000000001
40
-1
40
-1
40
-1
40
-1
40
0
40
0
40
0
40
0
41
1
41
1
41
1
41
1
10
-211.29502517529855
20
149.59689965619938
30
0
10
-211.30041293392136
20
149.03118500080328
30
0
10
-211.31657620978982
20
148.92342982834685
30
0
10
-211.39739258913212
20
148.88032775936429
30
0
0
SPLINE
5
126
100
AcDbEntity
8
0
100
AcDbSpline
70
4
71
3
72
8
73
4
74
0
42
0.000000001
43
0.0000000001
44
0.0000000001
40
-1
40
-1
40
-1
40
-1
40
0
40
0
40
0
40
0
41
1
41
1
41
1
41
1
10
-211.39739258913212
20
148.88032775936429
30
0
10
-211.45665793398314
20
148.84261344900455
30
0
10
-211.52669879607981
20
148.84800120762736
30
0
10
-211.60212741679928
20
148.88571551798714
30
0
0
SPLINE
5
127
100
AcDbEntity
8
0
100
AcDbSpline
70
4
71
3
72
8
73
4
74
0
42
0.000000001
43
0.0000000001
44
0.0000000001
40
-1
40
-1
40
-1
40
-1
40
0
40
0
40
0
40
0
41
1
41
1
41
1
41
1
10
-211.60212741679928
20
148.88571551798714
30
0
10
-211.73143362374699
20
148.95575638008378
30
0
10
-211.73143362374699
20
148.93959310421533
30
0
10
-211.54824983057108
20
149.88245086320885
30
0
0
SPLINE
5
128
100
AcDbEntity
8
0
100
AcDbSpline
70
4
71
3
72
8
73
4
74
0
42
0.000000001
43
0.0000000001
44
0.0000000001
40
-1
40
-1
40
-1
40
-1
40
0
40
0
40
0
40
0
41
1
41
1
41
1
41
1
10
-211.54824983057108
20
149.88245086320885
30
0
10
-211.41355586500057
20
150.58285948417549
30
0
10
-211.33812724428111
20
151.52571724316903
30
0
10
-211.41894362362339
20
151.52571724316903
30
0
0
SPLINE
5
129
100
AcDbEntity
8
0
100
AcDbSpline
70
4
71
3
72
8
73
4
74
0
42
0.000000001
43
0.0000000001
44
0.0000000001
40
-1
40
-1
40
-1
40
-1
40
0
40
0
40
0
40
0
41
1
41
1
41
1
41
1
10
-211.41894362362339
20
151.52571724316903
30
0
10
-211.45127017536032
20
151.52571724316903
30
0
10
-211.54286207194826
20
151.42873758795827
30
0
10
-211.62367845129057
20
151.30481913963339
30
0
0
SPLINE
5
130
100
AcDbEntity
8
0
100
AcDbSpline
70
4
71
3
72
8
73
4
74
0
42
0.000000001
43
0.0000000001
44
0.0000000001
40
-1
40
-1
40
-1
40
-1
40
0
40
0
40
0
40
0
41
1
41
1
41
1
41
1
10
-211.62367845129057
20
151.30481913963339
30
0
10
-211.7098825892557
20
151.18628844993134
30
0
10
-211.8445765548262
20
151.03004344986954
30
0
10
-211.9307806927913
20
150.96000258777289
30
0
0
SPLINE
5
131
100
AcDbEntity
8
0
100
AcDbSpline
70
4
71
3
72
8
73
4
74
0
42
0.000000001
43
0.0000000001
44
0.0000000001
40
-1
40
-1
40
-1
40
-1
40
0
40
0
40
0
40
0
41
1
41
1
41
1
41
1
10
-211.9307806927913
20
150.96000258777289
30
0
10
-212.01159707213364
20
150.88996172567622
30
0
10
-212.08163793423029
20
150.80375758771109
30
0
10
-212.08163793423029
20
150.77143103597419
30
0
0
SPLINE
5
132
100
AcDbEntity
8
0
100
AcDbSpline
70
4
71
3
72
8
73
4
74
0
42
0.000000001
43
0.0000000001
44
0.0000000001
40
-1
40
-1
40
-1
40
-1
40
0
40
0
40
0
40
0
41
1
41
1
41
1
41
1
10
-212.08163793423029
20
150.77143103597419
30
0
10
-212.08163793423029
20
150.73371672561444
30
0
10
-212.13551552045851
20
150.63673707040368
30
0
10
-212.19478086530953
20
150.54514517381574
30
0
0
SPLINE
5
133
100
AcDbEntity
8
0
100
AcDbSpline
70
4
71
3
72
8
73
4
74
0
42
0.000000001
43
0.0000000001
44
0.0000000001
40
-1
40
-1
40
-1
40
-1
40
0
40
0
40
0
40
0
41
1
41
1
41
1
41
1
10
-212.19478086530953
20
150.54514517381574
30
0
10
-212.3833524171082
20
150.28114500129755
30
0
10
-212.99755690010971
20
149.09583810427711
30
0
10
-212.99755690010971
20
148.99885844906635
30
0
0
SPLINE
5
134
100
AcDbEntity
8
0
100
AcDbSpline
70
4
71
3
72
8
73
4
74
0
42
0.000000001
43
0.0000000001
44
0.0000000001
40
-1
40
-1
40
-1
40
-1
40
0
40
0
40
0
40
0
41
1
41
1
41
1
41
1
10
-212.99755690010971
20
148.99885844906635
30
0
10
-212.99755690010971
20
148.91804206972404
30
0
10
-213.15918965879433
20
148.77796034553072
30
0
10
-213.24539379675943
20
148.77796034553072
30
0
0
SPLINE
5
135
100
AcDbEntity
8
0
100
AcDbSpline
70
4
71
3
72
8
73
4
74
0
42
0.000000001
43
0.0000000001
44
0.0000000001
40
-1
40
-1
40
-1
40
-1
40
0
40
0
40
0
40
0
41
1
41
1
41
1
41
1
10
-213.24539379675943
20
148.77796034553072
30
0
10
-213.34776121059303
20
148.77796034553072
30
0
10
-213.34237345197022
20
148.9611441387066
30
0
10
-213.24000603813661
20
149.04734827667173
30
0
0
SPLINE
5
136
100
AcDbEntity
8
0
100
AcDbSpline
70
4
71
3
72
8
73
4
74
0
42
0.000000001
43
0.0000000001
44
0.0000000001
40
-1
40
-1
40
-1
40
-1
40
0
40
0
40
0
40
0
41
1
41
1
41
1
41
1
10
-213.24000603813661
20
149.04734827667173
30
0
10
-213.19151621053123
20
149.08506258703147
30
0
10
-213.16996517603997
20
149.15510344912812
30
0
10
-213.18612845190842
20
149.19820551811068
30
0
0
SPLINE
5
137
100
AcDbEntity
8
0
100
AcDbSpline
70
4
71
3
72
8
73
4
74
0
42
0.000000001
43
0.0000000001
44
0.0000000001
40
-1
40
-1
40
-1
40
-1
40
0
40
0
40
0
40
0
41
1
41
1
41
1
41
1
10
-213.18612845190842
20
149.19820551811068
30
0
10
-213.2022917277769
20
149.24130758709325
30
0
10
-213.18612845190842
20
149.31134844918992
30
0
10
-213.1484141415487
20
149.3598382767953
30
0
0
SPLINE
5
138
100
AcDbEntity
8
0
100
AcDbSpline
70
4
71
3
72
8
73
4
74
0
42
0.000000001
43
0.0000000001
44
0.0000000001
40
-1
40
-1
40
-1
40
-1
40
0
40
0
40
0
40
0
41
1
41
1
41
1
41
1
10
-213.1484141415487
20
149.3598382767953
30
0
10
-213.11069983118895
20
149.40294034577786
30
0
10
-213.08376103807487
20
149.45681793200606
30
0
10
-213.0945365553205
20
149.47298120787451
30
0
0
SPLINE
5
139
100
AcDbEntity
8
0
100
AcDbSpline
70
4
71
3
72
8
73
4
74
0
42
0.000000001
43
0.0000000001
44
0.0000000001
40
-1
40
-1
40
-1
40
-1
40
0
40
0
40
0
40
0
41
1
41
1
41
1
41
1
10
-213.0945365553205
20
149.47298120787451
30
0
10
-213.11069983118895
20
149.51608327685707
30
0
10
-213.05143448633794
20
149.96865500117397
30
0
10
-213.01372017597816
20
150.07102241500758
30
0
0
SPLINE
5
140
100
AcDbEntity
8
0
100
AcDbSpline
70
4
71
3
72
8
73
4
74
0
42
0.000000001
43
0.0000000001
44
0.0000000001
40
-1
40
-1
40
-1
40
-1
40
0
40
0
40
0
40
0
41
1
41
1
41
1
41
1
10
-213.01372017597816
20
150.07102241500758
30
0
10
-212.94367931388152
20
150.24881844956064
30
0
10
-212.91674052076743
20
150.67445138076343
30
0
10
-212.94906707250433
20
151.0623700016065
30
0
0
SPLINE
5
141
100
AcDbEntity
8
0
100
AcDbSpline
70
4
71
3
72
8
73
4
74
0
42
0.000000001
43
0.0000000001
44
0.0000000001
40
-1
40
-1
40
-1
40
-1
40
0
40
0
40
0
40
0
41
1
41
1
41
1
41
1
10
-212.94906707250433
20
151.0623700016065
30
0
10
-212.96523034837278
20
151.25632931202799
30
0
10
-213.00833241735535
20
151.37486000173004
30
0
10
-213.11069983118895
20
151.48261517418644
30
0
0
SPLINE
5
142
100
AcDbEntity
8
0
100
AcDbSpline
70
4
71
3
72
8
73
4
74
0
42
0.000000001
43
0.0000000001
44
0.0000000001
40
-1
40
-1
40
-1
40
-1
40
0
40
0
40
0
40
0
41
1
41
1
41
1
41
1
10
-213.11069983118895
20
151.48261517418644
30
0
10
-213.26155707262791
20
151.65502345011672
30
0
10
-213.38547552095278
20
151.64424793287105
30
0
10
-213.55249603826022
20
151.45028862244953
30
0
0
SPLINE
5
143
100
AcDbEntity
8
0
100
AcDbSpline
70
4
71
3
72
8
73
4
74
0
42
0.000000001
43
0.0000000001
44
0.0000000001
40
-1
40
-1
40
-1
40
-1
40
0
40
0
40
0
40
0
41
1
41
1
41
1
41
1
10
-213.55249603826022
20
151.45028862244953
30
0
10
-214.06433310742813
20
150.8522474153165
30
0
10
-214.46302724551683
20
149.75853241488397
30
0
10
-214.51690483174502
20
148.80489913864483
30
0
0
SPLINE
5
144
100
AcDbEntity
8
0
100
AcDbSpline
70
4
71
3
72
8
73
4
74
0
42
0.000000001
43
0.0000000001
44
0.0000000001
40
-1
40
-1
40
-1
40
-1
40
0
40
0
40
0
40
0
41
1
41
1
41
1
41
1
10
-216.99527379824232
20
151.0408189671152
30
0
10
-216.77976345332951
20
150.88996172567622
30
0
10
-216.72049810847849
20
150.78220655321982
30
0
10
-216.80670224644359
20
150.70139017387754
30
0
0
SPLINE
5
145
100
AcDbEntity
8
0
100
AcDbSpline
70
4
71
3
72
8
73
4
74
0
42
0.000000001
43
0.0000000001
44
0.0000000001
40
-1
40
-1
40
-1
40
-1
40
0
40
0
40
0
40
0
41
1
41
1
41
1
41
1
10
-216.80670224644359
20
150.70139017387754
30
0
10
-216.86057983267179
20
150.6421248290265
30
0
10
-216.87135534991742
20
150.65290034627213
30
0
10
-217.05992690171615
20
150.8522474153165
30
0
0
SPLINE
5
146
100
AcDbEntity
8
0
100
AcDbSpline
70
4
71
3
72
8
73
4
74
0
42
0.000000001
43
0.0000000001
44
0.0000000001
40
-1
40
-1
40
-1
40
-1
40
0
40
0
40
0
40
0
41
1
41
1
41
1
41
1
10
-217.05992690171615
20
150.8522474153165
30
0
10
-217.27543724662897
20
151.07853327747495
30
0
10
-217.32931483285716
20
151.08392103609776
30
0
10
-217.49633535016457
20
150.90612500154469
30
0
0
SPLINE
5
147
100
AcDbEntity
8
0
100
AcDbSpline
70
4
71
3
72
8
73
4
74
0
42
0.000000001
43
0.0000000001
44
0.0000000001
40
-1
40
-1
40
-1
40
-1
40
0
40
0
40
0
40
0
41
1
41
1
41
1
41
1
10
-217.49633535016457
20
150.90612500154469
30
0
10
-217.58253948812973
20
150.80375758771112
30
0
10
-217.63102931573511
20
150.78759431184264
30
0
10
-217.66335586747201
20
150.8306963808252
30
0
0
SPLINE
5
148
100
AcDbEntity
8
0
100
AcDbSpline
70
4
71
3
72
8
73
4
74
0
42
0.000000001
43
0.0000000001
44
0.0000000001
40
-1
40
-1
40
-1
40
-1
40
0
40
0
40
0
40
0
41
1
41
1
41
1
41
1
10
-217.66335586747201
20
150.8306963808252
30
0
10
-217.70645793645457
20
150.90612500154469
30
0
10
-217.40474345357666
20
151.20245172579982
30
0
10
-217.2862127638746
20
151.20245172579982
30
0
0
SPLINE
5
149
100
AcDbEntity
8
0
100
AcDbSpline
70
4
71
3
72
8
73
4
74
0
42
0.000000001
43
0.0000000001
44
0.0000000001
40
-1
40
-1
40
-1
40
-1
40
0
40
0
40
0
40
0
41
1
41
1
41
1
41
1
10
-217.2862127638746
20
151.20245172579982
30
0
10
-217.24849845351486
20
151.20245172579982
30
0
10
-217.11380448794438
20
151.12702310508033
30
0
10
-216.99527379824232
20
151.0408189671152
30
0
0
SPLINE
5
150
100
AcDbEntity
8
0
100
AcDbSpline
70
4
71
3
72
8
73
4
74
0
42
0.000000001
43
0.0000000001
44
0.0000000001
40
-1
40
-1
40
-1
40
-1
40
0
40
0
40
0
40
0
41
1
41
1
41
1
41
1
10
-209.4416362090484
20
148.07755172456407
30
0
10
-209.4416362090484
20
148.04522517282717
30
0
10
-209.56555465737324
20
147.89436793138822
30
0
10
-209.71641189881223
20
147.74351068994923
30
0
0
SPLINE
5
151
100
AcDbEntity
8
0
100
AcDbSpline
70
4
71
3
72
8
73
4
74
0
42
0.000000001
43
0.0000000001
44
0.0000000001
40
-1
40
-1
40
-1
40
-1
40
0
40
0
40
0
40
0
41
1
41
1
41
1
41
1
10
-209.71641189881223
20
147.74351068994923
30
0
10
-209.91575896785659
20
147.5441636209049
30
0
10
-210.00196310582169
20
147.48489827605385
30
0
10
-210.05045293342707
20
147.53338810365926
30
0
0
SPLINE
5
152
100
AcDbEntity
8
0
100
AcDbSpline
70
4
71
3
72
8
73
4
74
0
42
0.000000001
43
0.0000000001
44
0.0000000001
40
-1
40
-1
40
-1
40
-1
40
0
40
0
40
0
40
0
41
1
41
1
41
1
41
1
10
-210.05045293342707
20
147.53338810365926
30
0
10
-210.09355500240963
20
147.5764901726418
30
0
10
-210.06661620929552
20
147.64653103473847
30
0
10
-209.94269776097067
20
147.79200051755461
30
0
0
SPLINE
5
153
100
AcDbEntity
8
0
100
AcDbSpline
70
4
71
3
72
8
73
4
74
0
42
0.000000001
43
0.0000000001
44
0.0000000001
40
-1
40
-1
40
-1
40
-1
40
0
40
0
40
0
40
0
41
1
41
1
41
1
41
1
10
-209.94269776097067
20
147.79200051755461
30
0
10
-209.85649362300552
20
147.90514344863385
30
0
10
-209.76490172641761
20
147.99134758659898
30
0
10
-209.74335069192634
20
147.98057206935334
30
0
0
SPLINE
5
154
100
AcDbEntity
8
0
100
AcDbSpline
70
4
71
3
72
8
73
4
74
0
42
0.000000001
43
0.0000000001
44
0.0000000001
40
-1
40
-1
40
-1
40
-1
40
0
40
0
40
0
40
0
41
1
41
1
41
1
41
1
10
-209.74335069192634
20
147.98057206935334
30
0
10
-209.72179965743504
20
147.9751843107305
30
0
10
-209.6086567263558
20
148.08293948318689
30
0
10
-209.49012603665378
20
148.22302120738021
30
0
0
SPLINE
5
155
100
AcDbEntity
8
0
100
AcDbSpline
70
4
71
3
72
8
73
4
74
0
42
0.000000001
43
0.0000000001
44
0.0000000001
40
-1
40
-1
40
-1
40
-1
40
0
40
0
40
0
40
0
41
1
41
1
41
1
41
1
10
-209.49012603665378
20
148.22302120738021
30
0
10
-209.37159534695172
20
148.36849069019638
30
0
10
-209.2099625882671
20
148.55706224199508
30
0
10
-209.12914620892482
20
148.64865413858303
30
0
0
SPLINE
5
156
100
AcDbEntity
8
0
100
AcDbSpline
70
4
71
3
72
8
73
4
74
0
42
0.000000001
43
0.0000000001
44
0.0000000001
40
-1
40
-1
40
-1
40
-1
40
0
40
0
40
0
40
0
41
1
41
1
41
1
41
1
10
-209.12914620892482
20
148.64865413858303
30
0
10
-209.04832982958251
20
148.74563379379379
30
0
10
-208.77894189844147
20
149.11738913876837
30
0
10
-208.52571724316897
20
149.48375672512017
30
0
0
SPLINE
5
157
100
AcDbEntity
8
0
100
AcDbSpline
70
4
71
3
72
8
73
4
74
0
42
0.000000001
43
0.0000000001
44
0.0000000001
40
-1
40
-1
40
-1
40
-1
40
0
40
0
40
0
40
0
41
1
41
1
41
1
41
1
10
-208.52571724316897
20
149.48375672512017
30
0
10
-207.70677793250027
20
150.67445138076343
30
0
10
-206.78547120799803
20
151.79510517431001
30
0
10
-206.62383844931341
20
151.79510517431001
30
0
0
SPLINE
5
158
100
AcDbEntity
8
0
100
AcDbSpline
70
4
71
3
72
8
73
4
74
0
42
0.000000001
43
0.0000000001
44
0.0000000001
40
-1
40
-1
40
-1
40
-1
40
0
40
0
40
0
40
0
41
1
41
1
41
1
41
1
10
-206.62383844931341
20
151.79510517431001
30
0
10
-206.58073638033088
20
151.79510517431001
30
0
10
-206.50530775961136
20
151.74661534670466
30
0
10
-206.45143017338316
20
151.68735000185362
30
0
0
SPLINE
5
159
100
AcDbEntity
8
0
100
AcDbSpline
70
4
71
3
72
8
73
4
74
0
42
0.000000001
43
0.0000000001
44
0.0000000001
40
-1
40
-1
40
-1
40
-1
40
0
40
0
40
0
40
0
41
1
41
1
41
1
41
1
10
-206.45143017338316
20
151.68735000185362
30
0
10
-206.37061379404088
20
151.60114586388852
30
0
10
-206.35983827679524
20
151.52571724316903
30
0
10
-206.39216482853215
20
151.25094155340517
30
0
0
SPLINE
5
160
100
AcDbEntity
8
0
100
AcDbSpline
70
4
71
3
72
8
73
4
74
0
42
0.000000001
43
0.0000000001
44
0.0000000001
40
-1
40
-1
40
-1
40
-1
40
0
40
0
40
0
40
0
41
1
41
1
41
1
41
1
10
-206.39216482853215
20
151.25094155340517
30
0
10
-206.41371586302344
20
151.07314551885213
30
0
10
-206.45143017338316
20
150.87379844980777
30
0
10
-206.47836896649727
20
150.80914534633393
30
0
0
SPLINE
5
161
100
AcDbEntity
8
0
100
AcDbSpline
70
4
71
3
72
8
73
4
74
0
42
0.000000001
43
0.0000000001
44
0.0000000001
40
-1
40
-1
40
-1
40
-1
40
0
40
0
40
0
40
0
41
1
41
1
41
1
41
1
10
-206.47836896649727
20
150.80914534633393
30
0
10
-206.50530775961136
20
150.74449224286008
30
0
10
-206.5645731044624
20
150.54514517381574
30
0
10
-206.61845069069059
20
150.36734913926267
30
0
0
SPLINE
5
162
100
AcDbEntity
8
0
100
AcDbSpline
70
4
71
3
72
8
73
4
74
0
42
0.000000001
43
0.0000000001
44
0.0000000001
40
-1
40
-1
40
-1
40
-1
40
0
40
0
40
0
40
0
41
1
41
1
41
1
41
1
10
-206.61845069069059
20
150.36734913926267
30
0
10
-206.66694051829597
20
150.1895531047096
30
0
10
-206.73159362176983
20
150.02253258740217
30
0
10
-206.75853241488394
20
149.99020603566527
30
0
0
SPLINE
5
163
100
AcDbEntity
8
0
100
AcDbSpline
70
4
71
3
72
8
73
4
74
0
42
0.000000001
43
0.0000000001
44
0.0000000001
40
-1
40
-1
40
-1
40
-1
40
0
40
0
40
0
40
0
41
1
41
1
41
1
41
1
10
-206.75853241488394
20
149.99020603566527
30
0
10
-206.78008344937521
20
149.96326724255115
30
0
10
-206.80163448386648
20
149.90938965632296
30
0
10
-206.80163448386648
20
149.86628758734039
30
0
0
SPLINE
5
164
100
AcDbEntity
8
0
100
AcDbSpline
70
4
71
3
72
8
73
4
74
0
42
0.000000001
43
0.0000000001
44
0.0000000001
40
-1
40
-1
40
-1
40
-1
40
0
40
0
40
0
40
0
41
1
41
1
41
1
41
1
10
-206.80163448386648
20
149.86628758734039
30
0
10
-206.80163448386648
20
149.82318551835783
30
0
10
-206.90938965632287
20
149.548409828594
30
0
10
-207.04408362189341
20
149.25208310433891
30
0
0
SPLINE
5
165
100
AcDbEntity
8
0
100
AcDbSpline
70
4
71
3
72
8
73
4
74
0
42
0.000000001
43
0.0000000001
44
0.0000000001
40
-1
40
-1
40
-1
40
-1
40
0
40
0
40
0
40
0
41
1
41
1
41
1
41
1
10
-207.04408362189341
20
149.25208310433891
30
0
10
-207.17877758746391
20
148.95575638008378
30
0
10
-207.28653275992031
20
148.70253172481122
30
0
10
-207.28653275992031
20
148.69175620756559
30
0
0
SPLINE
5
166
100
AcDbEntity
8
0
100
AcDbSpline
70
4
71
3
72
8
73
4
74
0
42
0.000000001
43
0.0000000001
44
0.0000000001
40
-1
40
-1
40
-1
40
-1
40
0
40
0
40
0
40
0
41
1
41
1
41
1
41
1
10
-207.28653275992031
20
148.69175620756559
30
0
10
-207.28653275992031
20
148.60016431097765
30
0
10
-207.03869586327059
20
148.84261344900455
30
0
10
-205.85877672487297
20
150.09796120812166
30
0
0
SPLINE
5
167
100
AcDbEntity
8
0
100
AcDbSpline
70
4
71
3
72
8
73
4
74
0
42
0.000000001
43
0.0000000001
44
0.0000000001
40
-1
40
-1
40
-1
40
-1
40
0
40
0
40
0
40
0
41
1
41
1
41
1
41
1
10
-205.85877672487297
20
150.09796120812166
30
0
10
-205.1260415521694
20
150.8845739670534
30
0
10
-204.51722482779073
20
151.52571724316903
30
0
10
-204.50644931054509
20
151.52571724316903
30
0
0
SPLINE
5
168
100
AcDbEntity
8
0
100
AcDbSpline
70
4
71
3
72
8
73
4
74
0
42
0.000000001
43
0.0000000001
44
0.0000000001
40
-1
40
-1
40
-1
40
-1
40
0
40
0
40
0
40
0
41
1
41
1
41
1
41
1
10
-204.50644931054509
20
151.52571724316903
30
0
10
-204.49567379329946
20
151.52571724316903
30
0
10
-204.47951051743098
20
151.50416620867773
30
0
10
-204.45795948293971
20
151.4718396569408
30
0
0
SPLINE
5
169
100
AcDbEntity
8
0
100
AcDbSpline
70
4
71
3
72
8
73
4
74
0
42
0.000000001
43
0.0000000001
44
0.0000000001
40
-1
40
-1
40
-1
40
-1
40
0
40
0
40
0
40
0
41
1
41
1
41
1
41
1
10
-204.45795948293971
20
151.4718396569408
30
0
10
-204.42563293120281
20
151.4179620707126
30
0
10
-204.62498000024712
20
151.18628844993134
30
0
10
-205.71869500067962
20
150.01714482877935
30
0
0
SPLINE
5
170
100
AcDbEntity
8
0
100
AcDbSpline
70
4
71
3
72
8
73
4
74
0
42
0.000000001
43
0.0000000001
44
0.0000000001
40
-1
40
-1
40
-1
40
-1
40
0
40
0
40
0
40
0
41
1
41
1
41
1
41
1
10
-205.71869500067962
20
150.01714482877935
30
0
10
-206.9417162080598
20
148.70791948343404
30
0
10
-207.63134931178081
20
148.02367413833588
30
0
10
-207.72832896699157
20
148.02367413833588
30
0
0
SPLINE
5
171
100
AcDbEntity
8
0
100
AcDbSpline
70
4
71
3
72
8
73
4
74
0
42
0.000000001
43
0.0000000001
44
0.0000000001
40
-1
40
-1
40
-1
40
-1
40
0
40
0
40
0
40
0
41
1
41
1
41
1
41
1
10
-207.72832896699157
20
148.02367413833588
30
0
10
-207.80914534633385
20
148.02367413833588
30
0
10
-207.7929820704654
20
148.08832724180971
30
0
10
-207.61518603591236
20
148.43853155229306
30
0
0
SPLINE
5
172
100
AcDbEntity
8
0
100
AcDbSpline
70
4
71
3
72
8
73
4
74
0
42
0.000000001
43
0.0000000001
44
0.0000000001
40
-1
40
-1
40
-1
40
-1
40
0
40
0
40
0
40
0
41
1
41
1
41
1
41
1
10
-207.61518603591236
20
148.43853155229306
30
0
10
-206.87706310458597
20
149.91477741494577
30
0
10
-206.37600155266369
20
151.42334982933542
30
0
10
-206.58073638033088
20
151.55265603628311
30
0
0
SPLINE
5
173
100
AcDbEntity
8
0
100
AcDbSpline
70
4
71
3
72
8
73
4
74
0
42
0.000000001
43
0.0000000001
44
0.0000000001
40
-1
40
-1
40
-1
40
-1
40
0
40
0
40
0
40
0
41
1
41
1
41
1
41
1
10
-206.58073638033088
20
151.55265603628311
30
0
10
-206.64000172518189
20
151.58498258802004
30
0
10
-206.89861413907724
20
151.3371456913703
30
0
10
-207.1733898288411
20
150.98155362226419
30
0
0
SPLINE
5
174
100
AcDbEntity
8
0
100
AcDbSpline
70
4
71
3
72
8
73
4
74
0
42
0.000000001
43
0.0000000001
44
0.0000000001
40
-1
40
-1
40
-1
40
-1
40
0
40
0
40
0
40
0
41
1
41
1
41
1
41
1
10
-207.1733898288411
20
150.98155362226419
30
0
10
-207.35657362201695
20
150.74988000148292
30
0
10
-207.3942879323767
20
150.70139017387754
30
0
10
-207.59363500142103
20
150.46971655309625
30
0
0
SPLINE
5
175
100
AcDbEntity
8
0
100
AcDbSpline
70
4
71
3
72
8
73
4
74
0
42
0.000000001
43
0.0000000001
44
0.0000000001
40
-1
40
-1
40
-1
40
-1
40
0
40
0
40
0
40
0
41
1
41
1
41
1
41
1
10
-207.59363500142103
20
150.46971655309625
30
0
10
-207.70139017387746
20
150.34579810477138
30
0
10
-207.78759431184258
20
150.22187965644653
30
0
10
-207.92228827741309
20
149.99559379428808
30
0
0
SPLINE
5
176
100
AcDbEntity
8
0
100
AcDbSpline
70
4
71
3
72
8
73
4
74
0
42
0.000000001
43
0.0000000001
44
0.0000000001
40
-1
40
-1
40
-1
40
-1
40
0
40
0
40
0
40
0
41
1
41
1
41
1
41
1
10
-207.92228827741309
20
149.99559379428808
30
0
10
-207.97077810501847
20
149.90938965632296
30
0
10
-208.07853327747489
20
149.76392017350682
30
0
10
-208.15396189819435
20
149.67232827691885
30
0
0
SPLINE
5
177
100
AcDbEntity
8
0
100
AcDbSpline
70
4
71
3
72
8
73
4
74
0
42
0.000000001
43
0.0000000001
44
0.0000000001
40
-1
40
-1
40
-1
40
-1
40
0
40
0
40
0
40
0
41
1
41
1
41
1
41
1
10
-208.15396189819435
20
149.67232827691885
30
0
10
-208.22939051891385
20
149.5807363803309
30
0
10
-208.37486000172999
20
149.38138931128657
30
0
10
-208.47183965694074
20
149.23591982847043
30
0
0
SPLINE
5
178
100
AcDbEntity
8
0
100
AcDbSpline
70
4
71
3
72
8
73
4
74
0
42
0.000000001
43
0.0000000001
44
0.0000000001
40
-1
40
-1
40
-1
40
-1
40
0
40
0
40
0
40
0
41
1
41
1
41
1
41
1
10
-208.47183965694074
20
149.23591982847043
30
0
10
-208.57420707077435
20
149.08506258703147
30
0
10
-208.68735000185356
20
148.93420534559249
30
0
10
-208.72506431221328
20
148.89649103523277
30
0
0
SPLINE
5
179
100
AcDbEntity
8
0
100
AcDbSpline
70
4
71
3
72
8
73
4
74
0
42
0.000000001
43
0.0000000001
44
0.0000000001
40
-1
40
-1
40
-1
40
-1
40
0
40
0
40
0
40
0
41
1
41
1
41
1
41
1
10
-208.72506431221328
20
148.89649103523277
30
0
10
-208.76816638119584
20
148.85338896625018
30
0
10
-208.8328194846697
20
148.7510215524166
30
0
10
-208.87592155365226
20
148.66481741445148
30
0
0
SPLINE
5
180
100
AcDbEntity
8
0
100
AcDbSpline
70
4
71
3
72
8
73
4
74
0
42
0.000000001
43
0.0000000001
44
0.0000000001
40
-1
40
-1
40
-1
40
-1
40
0
40
0
40
0
40
0
41
1
41
1
41
1
41
1
10
-208.87592155365226
20
148.66481741445148
30
0
10
-208.92441138125764
20
148.57861327648638
30
0
10
-208.98367672610868
20
148.5085724143897
30
0
10
-209.00522776059995
20
148.5085724143897
30
0
0
SPLINE
5
181
100
AcDbEntity
8
0
100
AcDbSpline
70
4
71
3
72
8
73
4
74
0
42
0.000000001
43
0.0000000001
44
0.0000000001
40
-1
40
-1
40
-1
40
-1
40
0
40
0
40
0
40
0
41
1
41
1
41
1
41
1
10
-209.00522776059995
20
148.5085724143897
30
0
10
-209.03216655371406
20
148.5085724143897
30
0
10
-209.10759517443353
20
148.42236827642458
30
0
10
-209.17224827790736
20
148.320000862591
30
0
0
SPLINE
5
182
100
AcDbEntity
8
0
100
AcDbSpline
70
4
71
3
72
8
73
4
74
0
42
0.000000001
43
0.0000000001
44
0.0000000001
40
-1
40
-1
40
-1
40
-1
40
0
40
0
40
0
40
0
41
1
41
1
41
1
41
1
10
-209.17224827790736
20
148.320000862591
30
0
10
-209.23690138138124
20
148.2176334487574
30
0
10
-209.32310551934634
20
148.1314293107923
30
0
10
-209.3662075883289
20
148.1314293107923
30
0
0
SPLINE
5
183
100
AcDbEntity
8
0
100
AcDbSpline
70
4
71
3
72
8
73
4
74
0
42
0.000000001
43
0.0000000001
44
0.0000000001
40
-1
40
-1
40
-1
40
-1
40
0
40
0
40
0
40
0
41
1
41
1
41
1
41
1
10
-209.3662075883289
20
148.1314293107923
30
0
10
-209.4093096573115
20
148.1314293107923
30
0
10
-209.4416362090484
20
148.10449051767819
30
0
10
-209.4416362090484
20
148.07755172456407
30
0
0
SPLINE
5
184
100
AcDbEntity
8
0
100
AcDbSpline
70
4
71
3
72
8
73
4
74
0
42
0.000000001
43
0.0000000001
44
0.0000000001
40
-1
40
-1
40
-1
40
-1
40
0
40
0
40
0
40
0
41
1
41
1
41
1
41
1
10
-217.8411519020251
20
147.43640844844847
30
0
10
-217.7711110399284
20
147.37175534497464
30
0
10
-217.7387844881915
20
147.29632672425515
30
0
10
-217.75494776405995
20
147.24783689664977
30
0
0
SPLINE
5
185
100
AcDbEntity
8
0
100
AcDbSpline
70
4
71
3
72
8
73
4
74
0
42
0.000000001
43
0.0000000001
44
0.0000000001
40
-1
40
-1
40
-1
40
-1
40
0
40
0
40
0
40
0
41
1
41
1
41
1
41
1
10
-217.75494776405995
20
147.24783689664977
30
0
10
-217.80343759166533
20
147.1239184483249
30
0
10
-217.86270293651637
20
147.14008172419338
30
0
10
-218.12131535041175
20
147.35559206910619
30
0
0
SPLINE
5
186
100
AcDbEntity
8
0
100
AcDbSpline
70
4
71
3
72
8
73
4
74
0
42
0.000000001
43
0.0000000001
44
0.0000000001
40
-1
40
-1
40
-1
40
-1
40
0
40
0
40
0
40
0
41
1
41
1
41
1
41
1
10
-218.12131535041175
20
147.35559206910619
30
0
10
-218.32066241945608
20
147.51722482779078
30
0
10
-218.37454000568428
20
147.53877586228208
30
0
10
-218.54156052299172
20
147.51183706916797
30
0
0
SPLINE
5
187
100
AcDbEntity
8
0
100
AcDbSpline
70
4
71
3
72
8
73
4
74
0
42
0.000000001
43
0.0000000001
44
0.0000000001
40
-1
40
-1
40
-1
40
-1
40
0
40
0
40
0
40
0
41
1
41
1
41
1
41
1
10
-218.54156052299172
20
147.51183706916797
30
0
10
-218.87560155760656
20
147.45257172431695
30
0
10
-218.94025466108042
20
147.45795948293977
30
0
10
-218.96180569557168
20
147.52261258641363
30
0
0
SPLINE
5
188
100
AcDbEntity
8
0
100
AcDbSpline
70
4
71
3
72
8
73
4
74
0
42
0.000000001
43
0.0000000001
44
0.0000000001
40
-1
40
-1
40
-1
40
-1
40
0
40
0
40
0
40
0
41
1
41
1
41
1
41
1
10
-218.96180569557168
20
147.52261258641363
30
0
10
-218.97796897144016
20
147.56032689677335
30
0
10
-218.92409138521197
20
147.61420448300154
30
0
10
-218.84327500586963
20
147.64653103473847
30
0
0
SPLINE
5
189
100
AcDbEntity
8
0
100
AcDbSpline
70
4
71
3
72
8
73
4
74
0
42
0.000000001
43
0.0000000001
44
0.0000000001
40
-1
40
-1
40
-1
40
-1
40
0
40
0
40
0
40
0
41
1
41
1
41
1
41
1
10
-218.84327500586963
20
147.64653103473847
30
0
10
-218.68703000580786
20
147.70579637958949
30
0
10
-218.70858104029912
20
147.80816379342309
30
0
10
-218.87560155760656
20
147.80816379342309
30
0
0
SPLINE
5
190
100
AcDbEntity
8
0
100
AcDbSpline
70
4
71
3
72
8
73
4
74
0
42
0.000000001
43
0.0000000001
44
0.0000000001
40
-1
40
-1
40
-1
40
-1
40
0
40
0
40
0
40
0
41
1
41
1
41
1
41
1
10
-218.87560155760656
20
147.80816379342309
30
0
10
-219.02645879904554
20
147.80816379342309
30
0
10
-219.53290810959061
20
148.05600069007281
30
0
10
-219.65143879929263
20
148.1853068970205
30
0
0
SPLINE
5
191
100
AcDbEntity
8
0
100
AcDbSpline
70
4
71
3
72
8
73
4
74
0
42
0.000000001
43
0.0000000001
44
0.0000000001
40
-1
40
-1
40
-1
40
-1
40
0
40
0
40
0
40
0
41
1
41
1
41
1
41
1
10
-219.65143879929263
20
148.1853068970205
30
0
10
-219.74841845450342
20
148.29306206947689
30
0
10
-219.74841845450342
20
148.29844982809971
30
0
10
-219.64605104066982
20
148.3738784488192
30
0
0
SPLINE
5
192
100
AcDbEntity
8
0
100
AcDbSpline
70
4
71
3
72
8
73
4
74
0
42
0.000000001
43
0.0000000001
44
0.0000000001
40
-1
40
-1
40
-1
40
-1
40
0
40
0
40
0
40
0
41
1
41
1
41
1
41
1
10
-219.64605104066982
20
148.3738784488192
30
0
10
-219.59217345444165
20
148.41698051780176
30
0
10
-219.41437741988858
20
148.48702137989844
30
0
10
-219.25813241982681
20
148.53551120750379
30
0
0
SPLINE
5
193
100
AcDbEntity
8
0
100
AcDbSpline
70
4
71
3
72
8
73
4
74
0
42
0.000000001
43
0.0000000001
44
0.0000000001
40
-1
40
-1
40
-1
40
-1
40
0
40
0
40
0
40
0
41
1
41
1
41
1
41
1
10
-219.25813241982681
20
148.53551120750379
30
0
10
-219.09649966114219
20
148.5840010351092
30
0
10
-218.97796897144016
20
148.64865413858303
30
0
10
-218.9887444886858
20
148.68098069031993
30
0
0
SPLINE
5
194
100
AcDbEntity
8
0
100
AcDbSpline
70
4
71
3
72
8
73
4
74
0
42
0.000000001
43
0.0000000001
44
0.0000000001
40
-1
40
-1
40
-1
40
-1
40
0
40
0
40
0
40
0
41
1
41
1
41
1
41
1
10
-218.9887444886858
20
148.68098069031993
30
0
10
-219.00490776455425
20
148.7186950006797
30
0
10
-219.15037724737039
20
148.82106241451328
30
0
10
-219.31739776467782
20
148.91265431110122
30
0
0
SPLINE
5
195
100
AcDbEntity
8
0
100
AcDbSpline
70
4
71
3
72
8
73
4
74
0
42
0.000000001
43
0.0000000001
44
0.0000000001
40
-1
40
-1
40
-1
40
-1
40
0
40
0
40
0
40
0
41
1
41
1
41
1
41
1
10
-219.31739776467782
20
148.91265431110122
30
0
10
-219.58139793719599
20
149.05812379391736
30
0
10
-219.61372448893292
20
149.09583810427711
30
0
10
-219.54907138545909
20
149.15510344912812
30
0
0
SPLINE
5
196
100
AcDbEntity
8
0
100
AcDbSpline
70
4
71
3
72
8
73
4
74
0
42
0.000000001
43
0.0000000001
44
0.0000000001
40
-1
40
-1
40
-1
40
-1
40
0
40
0
40
0
40
0
41
1
41
1
41
1
41
1
10
-219.54907138545909
20
149.15510344912812
30
0
10
-219.42515293713424
20
149.25208310433891
30
0
10
-218.82711173000118
20
149.31134844918992
30
0
10
-218.53078500574608
20
149.25208310433891
30
0
0
SPLINE
5
197
100
AcDbEntity
8
0
100
AcDbSpline
70
4
71
3
72
8
73
4
74
0
42
0.000000001
43
0.0000000001
44
0.0000000001
40
-1
40
-1
40
-1
40
-1
40
0
40
0
40
0
40
0
41
1
41
1
41
1
41
1
10
-218.53078500574608
20
149.25208310433891
30
0
10
-218.293723626342
20
149.2035932767335
30
0
10
-218.25600931598223
20
149.1712667249966
30
0
10
-218.12670310903457
20
148.93420534559249
30
0
0
SPLINE
5
198
100
AcDbEntity
8
0
100
AcDbSpline
70
4
71
3
72
8
73
4
74
0
42
0.000000001
43
0.0000000001
44
0.0000000001
40
-1
40
-1
40
-1
40
-1
40
0
40
0
40
0
40
0
41
1
41
1
41
1
41
1
10
-218.12670310903457
20
148.93420534559249
30
0
10
-217.97045810897276
20
148.65404189720584
30
0
10
-217.90580500549893
20
148.62171534546891
30
0
10
-217.7711110399284
20
148.7510215524166
30
0
0
SPLINE
5
199
100
AcDbEntity
8
0
100
AcDbSpline
70
4
71
3
72
8
73
4
74
0
42
0.000000001
43
0.0000000001
44
0.0000000001
40
-1
40
-1
40
-1
40
-1
40
0
40
0
40
0
40
0
41
1
41
1
41
1
41
1
10
-217.7711110399284
20
148.7510215524166
30
0
10
-217.72800897094587
20
148.79412362139917
30
0
10
-217.66874362609485
20
148.83183793175891
30
0
10
-217.64180483298074
20
148.83183793175891
30
0
0
SPLINE
5
200
100
AcDbEntity
8
0
100
AcDbSpline
70
4
71
3
72
8
73
4
74
0
42
0.000000001
43
0.0000000001
44
0.0000000001
40
-1
40
-1
40
-1
40
-1
40
0
40
0
40
0
40
0
41
1
41
1
41
1
41
1
10
-217.64180483298074
20
148.83183793175891
30
0
10
-217.61486603986666
20
148.83183793175891
30
0
10
-217.44784552255922
20
149.00963396631198
30
0
10
-217.27543724662897
20
149.21975655260198
30
0
0
SPLINE
5
201
100
AcDbEntity
8
0
100
AcDbSpline
70
4
71
3
72
8
73
4
74
0
42
0.000000001
43
0.0000000001
44
0.0000000001
40
-1
40
-1
40
-1
40
-1
40
0
40
0
40
0
40
0
41
1
41
1
41
1
41
1
10
-217.27543724662897
20
149.21975655260198
30
0
10
-217.10841672932156
20
149.43526689751477
30
0
10
-216.86057983267179
20
149.72081810452426
30
0
10
-216.73127362572413
20
149.84473655284913
30
0
0
SPLINE
5
202
100
AcDbEntity
8
0
100
AcDbSpline
70
4
71
3
72
8
73
4
74
0
42
0.000000001
43
0.0000000001
44
0.0000000001
40
-1
40
-1
40
-1
40
-1
40
0
40
0
40
0
40
0
41
1
41
1
41
1
41
1
10
-216.73127362572413
20
149.84473655284913
30
0
10
-216.51576328081131
20
150.06563465638473
30
0
10
-216.434946901469
20
150.23265517369217
30
0
10
-216.54808983254824
20
150.23265517369217
30
0
0
SPLINE
5
203
100
AcDbEntity
8
0
100
AcDbSpline
70
4
71
3
72
8
73
4
74
0
42
0.000000001
43
0.0000000001
44
0.0000000001
40
-1
40
-1
40
-1
40
-1
40
0
40
0
40
0
40
0
41
1
41
1
41
1
41
1
10
-216.54808983254824
20
150.23265517369217
30
0
10
-216.57502862566233
20
150.23265517369217
30
0
10
-216.65045724638185
20
150.31885931165729
30
0
10
-216.72049810847849
20
150.42661448411368
30
0
0
SPLINE
5
204
100
AcDbEntity
8
0
100
AcDbSpline
70
4
71
3
72
8
73
4
74
0
42
0.000000001
43
0.0000000001
44
0.0000000001
40
-1
40
-1
40
-1
40
-1
40
0
40
0
40
0
40
0
41
1
41
1
41
1
41
1
10
-216.72049810847849
20
150.42661448411368
30
0
10
-216.81747776368923
20
150.5882472427983
30
0
10
-216.82286552231207
20
150.63134931178087
30
0
10
-216.76360017746106
20
150.66906362214061
30
0
0
SPLINE
5
205
100
AcDbEntity
8
0
100
AcDbSpline
70
4
71
3
72
8
73
4
74
0
42
0.000000001
43
0.0000000001
44
0.0000000001
40
-1
40
-1
40
-1
40
-1
40
0
40
0
40
0
40
0
41
1
41
1
41
1
41
1
10
-216.76360017746106
20
150.66906362214061
30
0
10
-216.64506948775897
20
150.74449224286008
30
0
10
-216.61813069464489
20
150.72832896699163
30
0
10
-216.48882448769723
20
150.50204310483318
30
0
0
SPLINE
5
206
100
AcDbEntity
8
0
100
AcDbSpline
70
4
71
3
72
8
73
4
74
0
42
0.000000001
43
0.0000000001
44
0.0000000001
40
-1
40
-1
40
-1
40
-1
40
0
40
0
40
0
40
0
41
1
41
1
41
1
41
1
10
-216.48882448769723
20
150.50204310483318
30
0
10
-216.41878362560053
20
150.38351241513115
30
0
10
-216.34874276350388
20
150.28653275992036
30
0
10
-216.33257948763543
20
150.28653275992036
30
0
0
SPLINE
5
207
100
AcDbEntity
8
0
100
AcDbSpline
70
4
71
3
72
8
73
4
74
0
42
0.000000001
43
0.0000000001
44
0.0000000001
40
-1
40
-1
40
-1
40
-1
40
0
40
0
40
0
40
0
41
1
41
1
41
1
41
1
10
-216.33257948763543
20
150.28653275992036
30
0
10
-216.31641621176698
20
150.28653275992036
30
0
10
-216.23021207380185
20
150.35118586339419
30
0
10
-216.14400793583673
20
150.42661448411368
30
0
0
SPLINE
5
208
100
AcDbEntity
8
0
100
AcDbSpline
70
4
71
3
72
8
73
4
74
0
42
0.000000001
43
0.0000000001
44
0.0000000001
40
-1
40
-1
40
-1
40
-1
40
0
40
0
40
0
40
0
41
1
41
1
41
1
41
1
10
-216.14400793583673
20
150.42661448411368
30
0
10
-216.0578037978716
20
150.50204310483318
30
0
10
-215.85306897020442
20
150.68522689800906
30
0
10
-215.69143621151983
20
150.83608413944805
30
0
0
SPLINE
5
209
100
AcDbEntity
8
0
100
AcDbSpline
70
4
71
3
72
8
73
4
74
0
42
0.000000001
43
0.0000000001
44
0.0000000001
40
-1
40
-1
40
-1
40
-1
40
0
40
0
40
0
40
0
41
1
41
1
41
1
41
1
10
-215.69143621151983
20
150.83608413944805
30
0
10
-215.05568069402702
20
151.40718655346697
30
0
10
-214.77551724564037
20
151.6819622432308
30
0
10
-214.77551724564037
20
151.74122758808184
30
0
0
SPLINE
5
210
100
AcDbEntity
8
0
100
AcDbSpline
70
4
71
3
72
8
73
4
74
0
42
0.000000001
43
0.0000000001
44
0.0000000001
40
-1
40
-1
40
-1
40
-1
40
0
40
0
40
0
40
0
41
1
41
1
41
1
41
1
10
-214.77551724564037
20
151.74122758808184
30
0
10
-214.77551724564037
20
151.77355413981874
30
0
10
-214.69470086629809
20
151.84359500191539
30
0
10
-214.60310896971012
20
151.90286034676643
30
0
0
SPLINE
5
211
100
AcDbEntity
8
0
100
AcDbSpline
70
4
71
3
72
8
73
4
74
0
42
0.000000001
43
0.0000000001
44
0.0000000001
40
-1
40
-1
40
-1
40
-1
40
0
40
0
40
0
40
0
41
1
41
1
41
1
41
1
10
-214.60310896971012
20
151.90286034676643
30
0
10
-214.4307006937799
20
152.00522776060001
30
0
10
-213.7895574176643
20
152.6679220712069
30
0
10
-213.47167965891788
20
153.07739172654124
30
0
0
SPLINE
5
212
100
AcDbEntity
8
0
100
AcDbSpline
70
4
71
3
72
8
73
4
74
0
42
0.000000001
43
0.0000000001
44
0.0000000001
40
-1
40
-1
40
-1
40
-1
40
0
40
0
40
0
40
0
41
1
41
1
41
1
41
1
10
-213.47167965891788
20
153.07739172654124
30
0
10
-213.38547552095278
20
153.18514689899763
30
0
10
-213.28310810711918
20
153.31445310594532
30
0
10
-213.24539379675943
20
153.35755517492788
30
0
0
SPLINE
5
213
100
AcDbEntity
8
0
100
AcDbSpline
70
4
71
3
72
8
73
4
74
0
42
0.000000001
43
0.0000000001
44
0.0000000001
40
-1
40
-1
40
-1
40
-1
40
0
40
0
40
0
40
0
41
1
41
1
41
1
41
1
10
-213.24539379675943
20
153.35755517492788
30
0
10
-213.09992431394332
20
153.54073896810377
30
0
10
-213.10531207256614
20
153.62694310606889
30
0
10
-213.29388362436481
20
153.87478000271864
30
0
0
SPLINE
5
214
100
AcDbEntity
8
0
100
AcDbSpline
70
4
71
3
72
8
73
4
74
0
42
0.000000001
43
0.0000000001
44
0.0000000001
40
-1
40
-1
40
-1
40
-1
40
0
40
0
40
0
40
0
41
1
41
1
41
1
41
1
10
-213.29388362436481
20
153.87478000271864
30
0
10
-213.50400621065484
20
154.14955569248247
30
0
10
-213.5255572451461
20
154.26269862356168
30
0
10
-213.3908632795756
20
154.31118845116706
30
0
0
SPLINE
5
215
100
AcDbEntity
8
0
100
AcDbSpline
70
4
71
3
72
8
73
4
74
0
42
0.000000001
43
0.0000000001
44
0.0000000001
40
-1
40
-1
40
-1
40
-1
40
0
40
0
40
0
40
0
41
1
41
1
41
1
41
1
10
-213.3908632795756
20
154.31118845116706
30
0
10
-213.3369856933474
20
154.32735172703553
30
0
10
-213.22923052089098
20
154.40816810637781
30
0
10
-213.15380190017152
20
154.48359672709731
30
0
0
LINE
5
216
100
AcDbEntity
8
0
100
AcDbLine
10
-213.15380190017152
20
154.48359672709731
30
0
11
-213.00833241735535
21
154.62367845129063
31
0
0
LINE
5
217
100
AcDbEntity
8
0
100
AcDbLine
10
-213.00833241735535
20
154.62367845129063
30
0
11
-213.16996517603999
21
154.82841327895781
31
0
0
SPLINE
5
218
100
AcDbEntity
8
0
100
AcDbSpline
70
4
71
3
72
8
73
4
74
0
42
0.000000001
43
0.0000000001
44
0.0000000001
40
-1
40
-1
40
-1
40
-1
40
0
40
0
40
0
40
0
41
1
41
1
41
1
41
1
10
-213.16996517603997
20
154.82841327895781
30
0
10
-213.26155707262791
20
154.94155621003702
30
0
10
-213.34237345197022
20
155.10857672734446
30
0
10
-213.34776121059303
20
155.20555638255522
30
0
0
SPLINE
5
219
100
AcDbEntity
8
0
100
AcDbSpline
70
4
71
3
72
8
73
4
74
0
42
0.000000001
43
0.0000000001
44
0.0000000001
40
-1
40
-1
40
-1
40
-1
40
0
40
0
40
0
40
0
41
1
41
1
41
1
41
1
10
-213.34776121059303
20
155.20555638255522
30
0
10
-213.35314896921585
20
155.29714827914316
30
0
10
-213.38547552095278
20
155.38335241710828
30
0
10
-213.41780207268968
20
155.39412793435392
30
0
0
SPLINE
5
220
100
AcDbEntity
8
0
100
AcDbSpline
70
4
71
3
72
8
73
4
74
0
42
0.000000001
43
0.0000000001
44
0.0000000001
40
-1
40
-1
40
-1
40
-1
40
0
40
0
40
0
40
0
41
1
41
1
41
1
41
1
10
-213.41780207268968
20
155.39412793435392
30
0
10
-213.45012862442661
20
155.40490345159955
30
0
10
-213.46629190029506
20
155.4426177619593
30
0
10
-213.45012862442661
20
155.48571983094186
30
0
0
SPLINE
5
221
100
AcDbEntity
8
0
100
AcDbSpline
70
4
71
3
72
8
73
4
74
0
42
0.000000001
43
0.0000000001
44
0.0000000001
40
-1
40
-1
40
-1
40
-1
40
0
40
0
40
0
40
0
41
1
41
1
41
1
41
1
10
-213.45012862442661
20
155.48571983094186
30
0
10
-213.43396534855816
20
155.52343414130161
30
0
10
-213.45012862442661
20
155.61502603788955
30
0
10
-213.48784293478639
20
155.68506689998623
30
0
0
SPLINE
5
222
100
AcDbEntity
8
0
100
AcDbSpline
70
4
71
3
72
8
73
4
74
0
42
0.000000001
43
0.0000000001
44
0.0000000001
40
-1
40
-1
40
-1
40
-1
40
0
40
0
40
0
40
0
41
1
41
1
41
1
41
1
10
-213.48784293478639
20
155.68506689998623
30
0
10
-213.5255572451461
20
155.75510776208287
30
0
10
-213.56327155550585
20
155.84669965867081
30
0
10
-213.57404707275148
20
155.88980172765338
30
0
0
SPLINE
5
223
100
AcDbEntity
8
0
100
AcDbSpline
70
4
71
3
72
8
73
4
74
0
42
0.000000001
43
0.0000000001
44
0.0000000001
40
-1
40
-1
40
-1
40
-1
40
0
40
0
40
0
40
0
41
1
41
1
41
1
41
1
10
-213.57404707275148
20
155.88980172765338
30
0
10
-213.5794348313743
20
155.93290379663594
30
0
10
-213.6009858658656
20
156.04065896909236
30
0
10
-213.61714914173405
20
156.13225086568031
30
0
0
SPLINE
5
224
100
AcDbEntity
8
0
100
AcDbSpline
70
4
71
3
72
8
73
4
74
0
42
0.000000001
43
0.0000000001
44
0.0000000001
40
-1
40
-1
40
-1
40
-1
40
0
40
0
40
0
40
0
41
1
41
1
41
1
41
1
10
-213.61714914173405
20
156.13225086568031
30
0
10
-213.6333124176025
20
156.2184550036454
30
0
10
-213.66025121071661
20
156.39625103819847
30
0
10
-213.67102672796224
20
156.52016948652334
30
0
0
SPLINE
5
225
100
AcDbEntity
8
0
100
AcDbSpline
70
4
71
3
72
8
73
4
74
0
42
0.000000001
43
0.0000000001
44
0.0000000001
40
-1
40
-1
40
-1
40
-1
40
0
40
0
40
0
40
0
41
1
41
1
41
1
41
1
10
-213.67102672796224
20
156.52016948652334
30
0
10
-213.68180224520788
20
156.64947569347103
30
0
10
-213.70335327969914
20
156.77339414179588
30
0
10
-213.72490431419044
20
156.80572069353281
30
0
0
SPLINE
5
226
100
AcDbEntity
8
0
100
AcDbSpline
70
4
71
3
72
8
73
4
74
0
42
0.000000001
43
0.0000000001
44
0.0000000001
40
-1
40
-1
40
-1
40
-1
40
0
40
0
40
0
40
0
41
1
41
1
41
1
41
1
10
-213.72490431419044
20
156.80572069353281
30
0
10
-213.74106759005889
20
156.83265948664689
30
0
10
-213.73567983143607
20
156.859598279761
30
0
10
-213.70335327969914
20
156.859598279761
30
0
0
SPLINE
5
227
100
AcDbEntity
8
0
100
AcDbSpline
70
4
71
3
72
8
73
4
74
0
42
0.000000001
43
0.0000000001
44
0.0000000001
40
-1
40
-1
40
-1
40
-1
40
0
40
0
40
0
40
0
41
1
41
1
41
1
41
1
10
-213.70335327969914
20
156.859598279761
30
0
10
-213.67102672796224
20
156.859598279761
30
0
10
-213.66025121071661
20
156.89731259012075
30
0
10
-213.67641448658506
20
156.94041465910331
30
0
0
SPLINE
5
228
100
AcDbEntity
8
0
100
AcDbSpline
70
4
71
3
72
8
73
4
74
0
42
0.000000001
43
0.0000000001
44
0.0000000001
40
-1
40
-1
40
-1
40
-1
40
0
40
0
40
0
40
0
41
1
41
1
41
1
41
1
10
-213.67641448658506
20
156.94041465910331
30
0
10
-213.69796552107633
20
156.98351672808587
30
0
10
-213.68719000383069
20
157.02123103844562
30
0
10
-213.65486345209379
20
157.02123103844562
30
0
0
SPLINE
5
229
100
AcDbEntity
8
0
100
AcDbSpline
70
4
71
3
72
8
73
4
74
0
42
0.000000001
43
0.0000000001
44
0.0000000001
40
-1
40
-1
40
-1
40
-1
40
0
40
0
40
0
40
0
41
1
41
1
41
1
41
1
10
-213.65486345209379
20
157.02123103844562
30
0
10
-213.62253690035686
20
157.02123103844562
30
0
10
-213.61176138311123
20
157.069720866051
30
0
10
-213.62792465897968
20
157.1235984522792
30
0
0
SPLINE
5
230
100
AcDbEntity
8
0
100
AcDbSpline
70
4
71
3
72
8
73
4
74
0
42
0.000000001
43
0.0000000001
44
0.0000000001
40
-1
40
-1
40
-1
40
-1
40
0
40
0
40
0
40
0
41
1
41
1
41
1
41
1
10
-213.62792465897968
20
157.1235984522792
30
0
10
-213.64408793484813
20
157.18286379713024
30
0
10
-213.59021034861993
20
157.37143534892894
30
0
10
-213.50939396927765
20
157.54923138348201
30
0
0
SPLINE
5
231
100
AcDbEntity
8
0
100
AcDbSpline
70
4
71
3
72
8
73
4
74
0
42
0.000000001
43
0.0000000001
44
0.0000000001
40
-1
40
-1
40
-1
40
-1
40
0
40
0
40
0
40
0
41
1
41
1
41
1
41
1
10
-213.50939396927765
20
157.54923138348201
30
0
10
-213.3908632795756
20
157.81861931462302
30
0
10
-213.32621017610177
20
157.89404793534248
30
0
10
-213.10531207256614
20
158.01257862504454
30
0
0
SPLINE
5
232
100
AcDbEntity
8
0
100
AcDbSpline
70
4
71
3
72
8
73
4
74
0
42
0.000000001
43
0.0000000001
44
0.0000000001
40
-1
40
-1
40
-1
40
-1
40
0
40
0
40
0
40
0
41
1
41
1
41
1
41
1
10
-213.10531207256614
20
158.01257862504454
30
0
10
-212.95984258974997
20
158.09339500438685
30
0
10
-212.8359241414251
20
158.18498690097476
30
0
10
-212.81976086555665
20
158.22270121133454
30
0
0
SPLINE
5
233
100
AcDbEntity
8
0
100
AcDbSpline
70
4
71
3
72
8
73
4
74
0
42
0.000000001
43
0.0000000001
44
0.0000000001
40
-1
40
-1
40
-1
40
-1
40
0
40
0
40
0
40
0
41
1
41
1
41
1
41
1
10
-212.81976086555665
20
158.22270121133454
30
0
10
-212.78743431381972
20
158.33045638379093
30
0
10
-211.90922965830003
20
158.34661965965938
30
0
10
-211.69910707201007
20
158.23886448720299
30
0
0
SPLINE
5
234
100
AcDbEntity
8
0
100
AcDbSpline
70
4
71
3
72
8
73
4
74
0
42
0.000000001
43
0.0000000001
44
0.0000000001
40
-1
40
-1
40
-1
40
-1
40
0
40
0
40
0
40
0
41
1
41
1
41
1
41
1
10
-211.69910707201007
20
158.23886448720299
30
0
10
-211.60212741679928
20
158.19037465959758
30
0
10
-211.49437224434286
20
158.15266034923786
30
0
10
-211.45127017536032
20
158.15266034923786
30
0
0
SPLINE
5
235
100
AcDbEntity
8
0
100
AcDbSpline
70
4
71
3
72
8
73
4
74
0
42
0.000000001
43
0.0000000001
44
0.0000000001
40
-1
40
-1
40
-1
40
-1
40
0
40
0
40
0
40
0
41
1
41
1
41
1
41
1
10
-211.45127017536032
20
158.15266034923786
30
0
10
-211.41355586500057
20
158.15266034923786
30
0
10
-211.38122931326365
20
158.13110931474657
30
0
10
-211.38122931326365
20
158.10417052163248
30
0
0
SPLINE
5
236
100
AcDbEntity
8
0
100
AcDbSpline
70
4
71
3
72
8
73
4
74
0
42
0.000000001
43
0.0000000001
44
0.0000000001
40
-1
40
-1
40
-1
40
-1
40
0
40
0
40
0
40
0
41
1
41
1
41
1
41
1
10
-211.38122931326365
20
158.10417052163248
30
0
10
-211.38122931326365
20
158.07184396989555
30
0
10
-211.23575983044753
20
157.97486431468479
30
0
10
-211.05257603727165
20
157.87788465947403
30
0
0
SPLINE
5
237
100
AcDbEntity
8
0
100
AcDbSpline
70
4
71
3
72
8
73
4
74
0
42
0.000000001
43
0.0000000001
44
0.0000000001
40
-1
40
-1
40
-1
40
-1
40
0
40
0
40
0
40
0
41
1
41
1
41
1
41
1
10
-211.05257603727165
20
157.87788465947403
30
0
10
-210.4599225887614
20
157.56000690072764
30
0
10
-210.22286120935732
20
157.14514948677049
30
0
10
-210.14204483001498
20
156.28310810711926
30
0
0
SPLINE
5
238
100
AcDbEntity
8
0
100
AcDbSpline
70
4
71
3
72
8
73
4
74
0
42
0.000000001
43
0.0000000001
44
0.0000000001
40
-1
40
-1
40
-1
40
-1
40
0
40
0
40
0
40
0
41
1
41
1
41
1
41
1
10
-210.14204483001498
20
156.28310810711926
30
0
10
-210.08816724378681
20
155.69045465860904
30
0
10
-210.20669793348887
20
154.97388276177395
30
0
10
-210.39526948528757
20
154.70988258925576
30
0
0
SPLINE
5
239
100
AcDbEntity
8
0
100
AcDbSpline
70
4
71
3
72
8
73
4
74
0
42
0.000000001
43
0.0000000001
44
0.0000000001
40
-1
40
-1
40
-1
40
-1
40
0
40
0
40
0
40
0
41
1
41
1
41
1
41
1
10
-210.39526948528757
20
154.70988258925576
30
0
10
-210.45453483013858
20
154.63445396853626
30
0
10
-210.5138001749896
20
154.52669879607987
30
0
10
-210.53535120948087
20
154.47282120985167
30
0
0
SPLINE
5
240
100
AcDbEntity
8
0
100
AcDbSpline
70
4
71
3
72
8
73
4
74
0
42
0.000000001
43
0.0000000001
44
0.0000000001
40
-1
40
-1
40
-1
40
-1
40
0
40
0
40
0
40
0
41
1
41
1
41
1
41
1
10
-210.53535120948087
20
154.47282120985167
30
0
10
-210.55690224397216
20
154.41894362362345
30
0
10
-210.59461655433188
20
154.39200483050936
30
0
10
-210.62694310606884
20
154.40816810637781
30
0
0
SPLINE
5
241
100
AcDbEntity
8
0
100
AcDbSpline
70
4
71
3
72
8
73
4
74
0
42
0.000000001
43
0.0000000001
44
0.0000000001
40
-1
40
-1
40
-1
40
-1
40
0
40
0
40
0
40
0
41
1
41
1
41
1
41
1
10
-210.62694310606884
20
154.40816810637781
30
0
10
-210.65388189918295
20
154.42433138224627
30
0
10
-210.68082069229703
20
154.41355586500063
30
0
10
-210.68082069229703
20
154.37584155464091
30
0
0
SPLINE
5
242
100
AcDbEntity
8
0
100
AcDbSpline
70
4
71
3
72
8
73
4
74
0
42
0.000000001
43
0.0000000001
44
0.0000000001
40
-1
40
-1
40
-1
40
-1
40
0
40
0
40
0
40
0
41
1
41
1
41
1
41
1
10
-210.68082069229703
20
154.37584155464091
30
0
10
-210.68082069229703
20
154.2950251752986
30
0
10
-210.90710655445548
20
154.05796379589449
30
0
10
-210.98792293379776
20
154.05796379589449
30
0
0
SPLINE
5
243
100
AcDbEntity
8
0
100
AcDbSpline
70
4
71
3
72
8
73
4
74
0
42
0.000000001
43
0.0000000001
44
0.0000000001
40
-1
40
-1
40
-1
40
-1
40
0
40
0
40
0
40
0
41
1
41
1
41
1
41
1
10
-210.98792293379776
20
154.05796379589449
30
0
10
-211.02024948553469
20
154.05796379589449
30
0
10
-211.1226168993683
20
153.99331069242066
30
0
10
-211.21420879595621
20
153.91788207170117
30
0
0
SPLINE
5
244
100
AcDbEntity
8
0
100
AcDbSpline
70
4
71
3
72
8
73
4
74
0
42
0.000000001
43
0.0000000001
44
0.0000000001
40
-1
40
-1
40
-1
40
-1
40
0
40
0
40
0
40
0
41
1
41
1
41
1
41
1
10
-211.21420879595621
20
153.91788207170117
30
0
10
-211.41355586500057
20
153.75086155439377
30
0
10
-211.61829069266776
20
153.76702483026222
30
0
10
-212.05469914111617
20
153.97175965792937
30
0
0
SPLINE
5
245
100
AcDbEntity
8
0
100
AcDbSpline
70
4
71
3
72
8
73
4
74
0
42
0.000000001
43
0.0000000001
44
0.0000000001
40
-1
40
-1
40
-1
40
-1
40
0
40
0
40
0
40
0
41
1
41
1
41
1
41
1
10
-212.05469914111617
20
153.97175965792937
30
0
10
-212.20555638255516
20
154.04180052002604
30
0
10
-212.39412793435383
20
154.13339241661399
30
0
10
-212.4857198309418
20
154.17649448559655
30
0
0
SPLINE
5
246
100
AcDbEntity
8
0
100
AcDbSpline
70
4
71
3
72
8
73
4
74
0
42
0.000000001
43
0.0000000001
44
0.0000000001
40
-1
40
-1
40
-1
40
-1
40
0
40
0
40
0
40
0
41
1
41
1
41
1
41
1
10
-212.4857198309418
20
154.17649448559655
30
0
10
-212.5719239689069
20
154.2142087959563
30
0
10
-212.71200569310025
20
154.3165762097899
30
0
10
-212.79282207244253
20
154.40816810637781
30
0
0
SPLINE
5
247
100
AcDbEntity
8
0
100
AcDbSpline
70
4
71
3
72
8
73
4
74
0
42
0.000000001
43
0.0000000001
44
0.0000000001
40
-1
40
-1
40
-1
40
-1
40
0
40
0
40
0
40
0
41
1
41
1
41
1
41
1
10
-212.79282207244253
20
154.40816810637781
30
0
10
-212.90596500352177
20
154.53208655470269
30
0
10
-212.9382915552587
20
154.54824983057114
30
0
10
-212.94367931388152
20
154.47820896847449
30
0
0
SPLINE
5
248
100
AcDbEntity
8
0
100
AcDbSpline
70
4
71
3
72
8
73
4
74
0
42
0.000000001
43
0.0000000001
44
0.0000000001
40
-1
40
-1
40
-1
40
-1
40
0
40
0
40
0
40
0
41
1
41
1
41
1
41
1
10
-212.94367931388152
20
154.47820896847449
30
0
10
-212.94367931388152
20
154.42971914086911
30
0
10
-212.99755690010971
20
154.30041293392142
30
0
10
-213.05682224496076
20
154.192657761465
30
0
0
LINE
5
249
100
AcDbEntity
8
0
100
AcDbLine
10
-213.05682224496076
20
154.192657761465
30
0
11
-213.17535293466278
21
153.99331069242066
31
0
0
LINE
5
250
100
AcDbEntity
8
0
100
AcDbLine
10
-213.17535293466278
20
153.99331069242066
30
0
11
-213.05682224496078
21
153.88016776134145
31
0
0
SPLINE
5
251
100
AcDbEntity
8
0
100
AcDbSpline
70
4
71
3
72
8
73
4
74
0
42
0.000000001
43
0.0000000001
44
0.0000000001
40
-1
40
-1
40
-1
40
-1
40
0
40
0
40
0
40
0
41
1
41
1
41
1
41
1
10
-213.05682224496076
20
153.88016776134145
30
0
10
-212.9921691414869
20
153.81012689924478
30
0
10
-212.94367931388152
20
153.79396362337633
30
0
10
-212.94367931388152
20
153.83167793373605
30
0
0
SPLINE
5
252
100
AcDbEntity
8
0
100
AcDbSpline
70
4
71
3
72
8
73
4
74
0
42
0.000000001
43
0.0000000001
44
0.0000000001
40
-1
40
-1
40
-1
40
-1
40
0
40
0
40
0
40
0
41
1
41
1
41
1
41
1
10
-212.94367931388152
20
153.83167793373605
30
0
10
-212.94367931388152
20
153.86939224409582
30
0
10
-212.91674052076743
20
153.88555551996427
30
0
10
-212.8844139690305
20
153.86939224409582
30
0
0
SPLINE
5
253
100
AcDbEntity
8
0
100
AcDbSpline
70
4
71
3
72
8
73
4
74
0
42
0.000000001
43
0.0000000001
44
0.0000000001
40
-1
40
-1
40
-1
40
-1
40
0
40
0
40
0
40
0
41
1
41
1
41
1
41
1
10
-212.8844139690305
20
153.86939224409582
30
0
10
-212.85208741729355
20
153.84784120960452
30
0
10
-212.84131190004791
20
153.79935138199914
30
0
10
-212.85747517591636
20
153.75624931301658
30
0
0
SPLINE
5
254
100
AcDbEntity
8
0
100
AcDbSpline
70
4
71
3
72
8
73
4
74
0
42
0.000000001
43
0.0000000001
44
0.0000000001
40
-1
40
-1
40
-1
40
-1
40
0
40
0
40
0
40
0
41
1
41
1
41
1
41
1
10
-212.85747517591636
20
153.75624931301658
30
0
10
-212.87363845178487
20
153.7077594854112
30
0
10
-212.80898534831101
20
153.63233086469171
30
0
10
-212.67429138274051
20
153.54612672672658
30
0
0
SPLINE
5
255
100
AcDbEntity
8
0
100
AcDbSpline
70
4
71
3
72
8
73
4
74
0
42
0.000000001
43
0.0000000001
44
0.0000000001
40
-1
40
-1
40
-1
40
-1
40
0
40
0
40
0
40
0
41
1
41
1
41
1
41
1
10
-212.67429138274051
20
153.54612672672658
30
0
10
-212.46416879645054
20
153.41143276115611
30
0
10
-212.39412793435383
20
153.30367758869968
30
0
10
-212.52882189992437
20
153.30367758869968
30
0
0
SPLINE
5
256
100
AcDbEntity
8
0
100
AcDbSpline
70
4
71
3
72
8
73
4
74
0
42
0.000000001
43
0.0000000001
44
0.0000000001
40
-1
40
-1
40
-1
40
-1
40
0
40
0
40
0
40
0
41
1
41
1
41
1
41
1
10
-212.52882189992437
20
153.30367758869968
30
0
10
-212.56114845166127
20
153.30367758869968
30
0
10
-212.65274034824924
20
153.35216741630506
30
0
10
-212.7281689689687
20
153.41143276115611
30
0
0
SPLINE
5
257
100
AcDbEntity
8
0
100
AcDbSpline
70
4
71
3
72
8
73
4
74
0
42
0.000000001
43
0.0000000001
44
0.0000000001
40
-1
40
-1
40
-1
40
-1
40
0
40
0
40
0
40
0
41
1
41
1
41
1
41
1
10
-212.7281689689687
20
153.41143276115611
30
0
10
-212.89518948627614
20
153.54073896810377
30
0
10
-212.94367931388152
20
153.54612672672658
30
0
10
-212.94367931388152
20
153.42220827840174
30
0
0
SPLINE
5
258
100
AcDbEntity
8
0
100
AcDbSpline
70
4
71
3
72
8
73
4
74
0
42
0.000000001
43
0.0000000001
44
0.0000000001
40
-1
40
-1
40
-1
40
-1
40
0
40
0
40
0
40
0
41
1
41
1
41
1
41
1
10
-212.94367931388152
20
153.42220827840174
30
0
10
-212.94367931388152
20
153.27673879558557
30
0
10
-213.11069983118895
20
153.03967741618149
30
0
10
-213.5255572451461
20
152.60326896773304
30
0
0
SPLINE
5
259
100
AcDbEntity
8
0
100
AcDbSpline
70
4
71
3
72
8
73
4
74
0
42
0.000000001
43
0.0000000001
44
0.0000000001
40
-1
40
-1
40
-1
40
-1
40
0
40
0
40
0
40
0
41
1
41
1
41
1
41
1
10
-213.5255572451461
20
152.60326896773304
30
0
10
-213.74106759005889
20
152.38237086419741
30
0
10
-213.91347586598914
20
152.18302379515308
30
0
10
-213.91347586598914
20
152.16147276066178
30
0
0
SPLINE
5
260
100
AcDbEntity
8
0
100
AcDbSpline
70
4
71
3
72
8
73
4
74
0
42
0.000000001
43
0.0000000001
44
0.0000000001
40
-1
40
-1
40
-1
40
-1
40
0
40
0
40
0
40
0
41
1
41
1
41
1
41
1
10
-213.91347586598914
20
152.16147276066178
30
0
10
-213.91347586598914
20
152.10220741581077
30
0
10
-214.28523121096376
20
151.74122758808184
30
0
10
-214.91021121121091
20
151.20245172579982
30
0
0
SPLINE
5
261
100
AcDbEntity
8
0
100
AcDbSpline
70
4
71
3
72
8
73
4
74
0
42
0.000000001
43
0.0000000001
44
0.0000000001
40
-1
40
-1
40
-1
40
-1
40
0
40
0
40
0
40
0
41
1
41
1
41
1
41
1
10
-214.91021121121091
20
151.20245172579982
30
0
10
-215.23347672858009
20
150.92228827741314
30
0
10
-215.6591096597829
20
150.53975741519292
30
0
10
-215.8476812115816
20
150.36196138063985
30
0
0
LINE
5
262
100
AcDbEntity
8
0
100
AcDbLine
10
-215.84768121158163
20
150.36196138063983
30
0
11
-216.19788552206489
21
150.02792034602498
31
0
0
LINE
5
263
100
AcDbEntity
8
0
100
AcDbLine
10
-216.19788552206489
20
150.02792034602498
30
0
11
-216.07935483236287
21
149.75314465626116
31
0
0
SPLINE
5
264
100
AcDbEntity
8
0
100
AcDbSpline
70
4
71
3
72
8
73
4
74
0
42
0.000000001
43
0.0000000001
44
0.0000000001
40
-1
40
-1
40
-1
40
-1
40
0
40
0
40
0
40
0
41
1
41
1
41
1
41
1
10
-216.07935483236287
20
149.75314465626116
30
0
10
-216.02008948751183
20
149.6022874148222
30
0
10
-215.98237517715211
20
149.48375672512017
30
0
10
-216.00392621164337
20
149.48375672512017
30
0
0
SPLINE
5
265
100
AcDbEntity
8
0
100
AcDbSpline
70
4
71
3
72
8
73
4
74
0
42
0.000000001
43
0.0000000001
44
0.0000000001
40
-1
40
-1
40
-1
40
-1
40
0
40
0
40
0
40
0
41
1
41
1
41
1
41
1
10
-216.00392621164337
20
149.48375672512017
30
0
10
-216.02547724613464
20
149.48914448374299
30
0
10
-216.06857931511723
20
149.48914448374299
30
0
10
-216.10629362547698
20
149.48375672512017
30
0
0
SPLINE
5
266
100
AcDbEntity
8
0
100
AcDbSpline
70
4
71
3
72
8
73
4
74
0
42
0.000000001
43
0.0000000001
44
0.0000000001
40
-1
40
-1
40
-1
40
-1
40
0
40
0
40
0
40
0
41
1
41
1
41
1
41
1
10
-216.10629362547698
20
149.48375672512017
30
0
10
-216.20327328068777
20
149.47298120787451
30
0
10
-216.06319155649442
20
149.21975655260195
30
0
10
-215.93927310816954
20
149.18743000086505
30
0
0
SPLINE
5
267
100
AcDbEntity
8
0
100
AcDbSpline
70
4
71
3
72
8
73
4
74
0
42
0.000000001
43
0.0000000001
44
0.0000000001
40
-1
40
-1
40
-1
40
-1
40
0
40
0
40
0
40
0
41
1
41
1
41
1
41
1
10
-215.93927310816954
20
149.18743000086505
30
0
10
-215.88539552194135
20
149.17665448361942
30
0
10
-215.85306897020442
20
149.12816465601401
30
0
10
-215.86384448745008
20
149.09045034565429
30
0
0
SPLINE
5
268
100
AcDbEntity
8
0
100
AcDbSpline
70
4
71
3
72
8
73
4
74
0
42
0.000000001
43
0.0000000001
44
0.0000000001
40
-1
40
-1
40
-1
40
-1
40
0
40
0
40
0
40
0
41
1
41
1
41
1
41
1
10
-215.86384448745008
20
149.09045034565429
30
0
10
-215.88000776331853
20
149.05273603529454
30
0
10
-215.85845672882726
20
148.92881758696967
30
0
10
-215.82074241846752
20
148.81028689726764
30
0
0
SPLINE
5
269
100
AcDbEntity
8
0
100
AcDbSpline
70
4
71
3
72
8
73
4
74
0
42
0.000000001
43
0.0000000001
44
0.0000000001
40
-1
40
-1
40
-1
40
-1
40
0
40
0
40
0
40
0
41
1
41
1
41
1
41
1
10
-215.82074241846752
20
148.81028689726764
30
0
10
-215.71837500463391
20
148.51934793163534
30
0
10
-215.72376276325673
20
148.49779689714407
30
0
10
-215.92310983230109
20
148.51934793163534
30
0
0
SPLINE
5
270
100
AcDbEntity
8
0
100
AcDbSpline
70
4
71
3
72
8
73
4
74
0
42
0.000000001
43
0.0000000001
44
0.0000000001
40
-1
40
-1
40
-1
40
-1
40
0
40
0
40
0
40
0
41
1
41
1
41
1
41
1
10
-215.92310983230109
20
148.51934793163534
30
0
10
-216.07935483236287
20
148.53551120750379
30
0
10
-216.09551810823135
20
148.55167448337227
30
0
10
-216.10629362547698
20
148.72408275930252
30
0
0
SPLINE
5
271
100
AcDbEntity
8
0
100
AcDbSpline
70
4
71
3
72
8
73
4
74
0
42
0.000000001
43
0.0000000001
44
0.0000000001
40
-1
40
-1
40
-1
40
-1
40
0
40
0
40
0
40
0
41
1
41
1
41
1
41
1
10
-216.10629362547698
20
148.72408275930252
30
0
10
-216.1116813840998
20
148.8264501731361
30
0
10
-216.09013034960853
20
148.93959310421533
30
0
10
-216.06319155649442
20
148.97730741457505
30
0
0
SPLINE
5
272
100
AcDbEntity
8
0
100
AcDbSpline
70
4
71
3
72
8
73
4
74
0
42
0.000000001
43
0.0000000001
44
0.0000000001
40
-1
40
-1
40
-1
40
-1
40
0
40
0
40
0
40
0
41
1
41
1
41
1
41
1
10
-216.06319155649442
20
148.97730741457505
30
0
10
-216.02547724613464
20
149.0150217249348
30
0
10
-216.03086500475752
20
149.04734827667173
30
0
10
-216.06857931511723
20
149.07428706978581
30
0
0
SPLINE
5
273
100
AcDbEntity
8
0
100
AcDbSpline
70
4
71
3
72
8
73
4
74
0
42
0.000000001
43
0.0000000001
44
0.0000000001
40
-1
40
-1
40
-1
40
-1
40
0
40
0
40
0
40
0
41
1
41
1
41
1
41
1
10
-216.06857931511723
20
149.07428706978581
30
0
10
-216.09551810823135
20
149.09045034565429
30
0
10
-216.12245690134543
20
149.1497156905053
30
0
10
-216.12245690134543
20
149.2035932767335
30
0
0
SPLINE
5
274
100
AcDbEntity
8
0
100
AcDbSpline
70
4
71
3
72
8
73
4
74
0
42
0.000000001
43
0.0000000001
44
0.0000000001
40
-1
40
-1
40
-1
40
-1
40
0
40
0
40
0
40
0
41
1
41
1
41
1
41
1
10
-216.12245690134543
20
149.2035932767335
30
0
10
-216.12245690134543
20
149.25747086296172
30
0
10
-216.16017121170518
20
149.33289948368119
30
0
10
-216.20327328068777
20
149.37061379404093
30
0
0
SPLINE
5
275
100
AcDbEntity
8
0
100
AcDbSpline
70
4
71
3
72
8
73
4
74
0
42
0.000000001
43
0.0000000001
44
0.0000000001
40
-1
40
-1
40
-1
40
-1
40
0
40
0
40
0
40
0
41
1
41
1
41
1
41
1
10
-216.20327328068777
20
149.37061379404093
30
0
10
-216.2463753496703
20
149.40832810440068
30
0
10
-216.28408966003005
20
149.48914448374299
30
0
10
-216.28408966003005
20
149.55379758721682
30
0
0
SPLINE
5
276
100
AcDbEntity
8
0
100
AcDbSpline
70
4
71
3
72
8
73
4
74
0
42
0.000000001
43
0.0000000001
44
0.0000000001
40
-1
40
-1
40
-1
40
-1
40
0
40
0
40
0
40
0
41
1
41
1
41
1
41
1
10
-216.28408966003005
20
149.55379758721682
30
0
10
-216.28408966003005
20
149.61306293206783
30
0
10
-216.31102845314416
20
149.7046548286558
30
0
10
-216.33796724625824
20
149.74775689763834
30
0
0
SPLINE
5
277
100
AcDbEntity
8
0
100
AcDbSpline
70
4
71
3
72
8
73
4
74
0
42
0.000000001
43
0.0000000001
44
0.0000000001
40
-1
40
-1
40
-1
40
-1
40
0
40
0
40
0
40
0
41
1
41
1
41
1
41
1
10
-216.33796724625824
20
149.74775689763834
30
0
10
-216.38106931524081
20
149.8124100011122
30
0
10
-216.49960000494286
20
149.71543034590144
30
0
10
-216.95755948788258
20
149.23591982847043
30
0
0
SPLINE
5
278
100
AcDbEntity
8
0
100
AcDbSpline
70
4
71
3
72
8
73
4
74
0
42
0.000000001
43
0.0000000001
44
0.0000000001
40
-1
40
-1
40
-1
40
-1
40
0
40
0
40
0
40
0
41
1
41
1
41
1
41
1
10
-216.95755948788258
20
149.23591982847043
30
0
10
-217.26466172938331
20
148.9072665524784
30
0
10
-217.51788638465587
20
148.6163275868461
30
0
10
-217.52327414327868
20
148.5840010351092
30
0
0
SPLINE
5
279
100
AcDbEntity
8
0
100
AcDbSpline
70
4
71
3
72
8
73
4
74
0
42
0.000000001
43
0.0000000001
44
0.0000000001
40
-1
40
-1
40
-1
40
-1
40
0
40
0
40
0
40
0
41
1
41
1
41
1
41
1
10
-217.52327414327868
20
148.5840010351092
30
0
10
-217.52327414327868
20
148.54628672474945
30
0
10
-217.56098845363846
20
148.5085724143897
30
0
10
-217.60409052262099
20
148.48702137989844
30
0
0
SPLINE
5
280
100
AcDbEntity
8
0
100
AcDbSpline
70
4
71
3
72
8
73
4
74
0
42
0.000000001
43
0.0000000001
44
0.0000000001
40
-1
40
-1
40
-1
40
-1
40
0
40
0
40
0
40
0
41
1
41
1
41
1
41
1
10
-217.60409052262099
20
148.48702137989844
30
0
10
-217.7711110399284
20
148.42775603504742
30
0
10
-217.67413138471767
20
148.36849069019638
30
0
10
-217.40474345357666
20
148.3738784488192
30
0
0
SPLINE
5
281
100
AcDbEntity
8
0
100
AcDbSpline
70
4
71
3
72
8
73
4
74
0
42
0.000000001
43
0.0000000001
44
0.0000000001
40
-1
40
-1
40
-1
40
-1
40
0
40
0
40
0
40
0
41
1
41
1
41
1
41
1
10
-217.40474345357666
20
148.3738784488192
30
0
10
-217.18384535004103
20
148.3738784488192
30
0
10
-217.1191922465672
20
148.35232741432793
30
0
10
-217.10302897069874
20
148.28228655223126
30
0
0
SPLINE
5
282
100
AcDbEntity
8
0
100
AcDbSpline
70
4
71
3
72
8
73
4
74
0
42
0.000000001
43
0.0000000001
44
0.0000000001
40
-1
40
-1
40
-1
40
-1
40
0
40
0
40
0
40
0
41
1
41
1
41
1
41
1
10
-217.10302897069874
20
148.28228655223126
30
0
10
-217.09225345345305
20
148.2176334487574
30
0
10
-217.14074328105846
20
148.1853068970205
30
0
10
-217.3185393156115
20
148.15836810390638
30
0
0
SPLINE
5
283
100
AcDbEntity
8
0
100
AcDbSpline
70
4
71
3
72
8
73
4
74
0
42
0.000000001
43
0.0000000001
44
0.0000000001
40
-1
40
-1
40
-1
40
-1
40
0
40
0
40
0
40
0
41
1
41
1
41
1
41
1
10
-217.3185393156115
20
148.15836810390638
30
0
10
-217.58792724675254
20
148.11526603492382
30
0
10
-217.7387844881915
20
148.04522517282717
30
0
10
-217.7387844881915
20
147.96440879348486
30
0
0
SPLINE
5
284
100
AcDbEntity
8
0
100
AcDbSpline
70
4
71
3
72
8
73
4
74
0
42
0.000000001
43
0.0000000001
44
0.0000000001
40
-1
40
-1
40
-1
40
-1
40
0
40
0
40
0
40
0
41
1
41
1
41
1
41
1
10
-217.7387844881915
20
147.96440879348486
30
0
10
-217.7387844881915
20
147.93747000037075
30
0
10
-217.67951914334049
20
147.85665362102844
30
0
10
-217.60409052262099
20
147.7866127589318
30
0
0
SPLINE
5
285
100
AcDbEntity
8
0
100
AcDbSpline
70
4
71
3
72
8
73
4
74
0
42
0.000000001
43
0.0000000001
44
0.0000000001
40
-1
40
-1
40
-1
40
-1
40
0
40
0
40
0
40
0
41
1
41
1
41
1
41
1
10
-217.60409052262099
20
147.7866127589318
30
0
10
-217.5286619019015
20
147.71657189683512
30
0
10
-217.46939655705049
20
147.63036775886999
30
0
10
-217.46939655705049
20
147.59804120713309
30
0
0
SPLINE
5
286
100
AcDbEntity
8
0
100
AcDbSpline
70
4
71
3
72
8
73
4
74
0
42
0.000000001
43
0.0000000001
44
0.0000000001
40
-1
40
-1
40
-1
40
-1
40
0
40
0
40
0
40
0
41
1
41
1
41
1
41
1
10
-217.46939655705049
20
147.59804120713309
30
0
10
-217.46939655705049
20
147.56571465539616
30
0
10
-217.43168224669074
20
147.52261258641363
30
0
10
-217.38858017770821
20
147.50644931054515
30
0
0
SPLINE
5
287
100
AcDbEntity
8
0
100
AcDbSpline
70
4
71
3
72
8
73
4
74
0
42
0.000000001
43
0.0000000001
44
0.0000000001
40
-1
40
-1
40
-1
40
-1
40
0
40
0
40
0
40
0
41
1
41
1
41
1
41
1
10
-217.38858017770821
20
147.50644931054515
30
0
10
-217.30237603974305
20
147.4687350001854
30
0
10
-217.27543724662897
20
147.26938793114107
30
0
10
-217.35625362597125
20
147.26938793114107
30
0
0
SPLINE
5
288
100
AcDbEntity
8
0
100
AcDbSpline
70
4
71
3
72
8
73
4
74
0
42
0.000000001
43
0.0000000001
44
0.0000000001
40
-1
40
-1
40
-1
40
-1
40
0
40
0
40
0
40
0
41
1
41
1
41
1
41
1
10
-217.35625362597125
20
147.26938793114107
30
0
10
-217.38319241908533
20
147.26938793114107
30
0
10
-217.46939655705049
20
147.34481655186053
30
0
10
-217.55021293639277
20
147.44179620707132
30
0
0
SPLINE
5
289
100
AcDbEntity
8
0
100
AcDbSpline
70
4
71
3
72
8
73
4
74
0
42
0.000000001
43
0.0000000001
44
0.0000000001
40
-1
40
-1
40
-1
40
-1
40
0
40
0
40
0
40
0
41
1
41
1
41
1
41
1
10
-217.55021293639277
20
147.44179620707132
30
0
10
-217.66335586747201
20
147.57110241401898
30
0
10
-217.70645793645457
20
147.59265344851028
30
0
10
-217.7387844881915
20
147.53877586228208
30
0
0
SPLINE
5
290
100
AcDbEntity
8
0
100
AcDbSpline
70
4
71
3
72
8
73
4
74
0
42
0.000000001
43
0.0000000001
44
0.0000000001
40
-1
40
-1
40
-1
40
-1
40
0
40
0
40
0
40
0
41
1
41
1
41
1
41
1
10
-217.7387844881915
20
147.53877586228208
30
0
10
-217.7711110399284
20
147.48489827605385
30
0
10
-217.7926620744197
20
147.50106155192233
30
0
10
-217.81960086753378
20
147.60881672437873
30
0
0
SPLINE
5
291
100
AcDbEntity
8
0
100
AcDbSpline
70
4
71
3
72
8
73
4
74
0
42
0.000000001
43
0.0000000001
44
0.0000000001
40
-1
40
-1
40
-1
40
-1
40
0
40
0
40
0
40
0
41
1
41
1
41
1
41
1
10
-217.81960086753378
20
147.60881672437873
30
0
10
-217.86270293651637
20
147.77583724168613
30
0
10
-217.95429483310431
20
147.80277603480025
30
0
10
-217.95429483310431
20
147.64653103473847
30
0
0
SPLINE
5
292
100
AcDbEntity
8
0
100
AcDbSpline
70
4
71
3
72
8
73
4
74
0
42
0.000000001
43
0.0000000001
44
0.0000000001
40
-1
40
-1
40
-1
40
-1
40
0
40
0
40
0
40
0
41
1
41
1
41
1
41
1
10
-217.95429483310431
20
147.64653103473847
30
0
10
-217.95429483310431
20
147.59265344851028
30
0
10
-217.90041724687612
20
147.49567379329952
30
0
10
-217.8411519020251
20
147.43640844844847
30
0
0
SPLINE
5
293
100
AcDbEntity
8
0
100
AcDbSpline
70
4
71
3
72
8
73
4
74
0
42
0.000000001
43
0.0000000001
44
0.0000000001
40
-1
40
-1
40
-1
40
-1
40
0
40
0
40
0
40
0
41
1
41
1
41
1
41
1
10
-209.73257517468068
20
149.18204224224223
30
0
10
-210.17975914037476
20
148.86416448349584
30
0
10
-210.52996345085805
20
148.64865413858303
30
0
10
-210.70775948541112
20
148.5840010351092
30
0
0
SPLINE
5
294
100
AcDbEntity
8
0
100
AcDbSpline
70
4
71
3
72
8
73
4
74
0
42
0.000000001
43
0.0000000001
44
0.0000000001
40
-1
40
-1
40
-1
40
-1
40
0
40
0
40
0
40
0
41
1
41
1
41
1
41
1
10
-210.70775948541112
20
148.5840010351092
30
0
10
-210.91788207170111
20
148.50318465576689
30
0
10
-210.96098414068368
20
148.49779689714407
30
0
10
-211.05257603727165
20
148.55706224199508
30
0
0
SPLINE
5
295
100
AcDbEntity
8
0
100
AcDbSpline
70
4
71
3
72
8
73
4
74
0
42
0.000000001
43
0.0000000001
44
0.0000000001
40
-1
40
-1
40
-1
40
-1
40
0
40
0
40
0
40
0
41
1
41
1
41
1
41
1
10
-211.05257603727165
20
148.55706224199508
30
0
10
-211.11722914074548
20
148.60016431097765
30
0
10
-211.11722914074548
20
148.62171534546891
30
0
10
-211.06335155451728
20
148.69175620756559
30
0
0
SPLINE
5
296
100
AcDbEntity
8
0
100
AcDbSpline
70
4
71
3
72
8
73
4
74
0
42
0.000000001
43
0.0000000001
44
0.0000000001
40
-1
40
-1
40
-1
40
-1
40
0
40
0
40
0
40
0
41
1
41
1
41
1
41
1
10
-211.06335155451728
20
148.69175620756559
30
0
10
-211.02024948553469
20
148.74024603517097
30
0
10
-210.95559638206086
20
148.77796034553072
30
0
10
-210.9124943130783
20
148.77796034553072
30
0
0
SPLINE
5
297
100
AcDbEntity
8
0
100
AcDbSpline
70
4
71
3
72
8
73
4
74
0
42
0.000000001
43
0.0000000001
44
0.0000000001
40
-1
40
-1
40
-1
40
-1
40
0
40
0
40
0
40
0
41
1
41
1
41
1
41
1
10
-210.9124943130783
20
148.77796034553072
30
0
10
-210.8262901751132
20
148.77796034553072
30
0
10
-210.7023717267883
20
148.84261344900455
30
0
10
-210.0612284506727
20
149.21975655260195
30
0
0
LINE
5
298
100
AcDbEntity
8
0
100
AcDbLine
10
-210.0612284506727
20
149.21975655260195
30
0
11
-209.62482000222425
21
149.47298120787451
31
0
0
LINE
5
299
100
AcDbEntity
8
0
100
AcDbLine
10
-209.62482000222425
20
149.47298120787451
30
0
11
-209.5062893125222
21
149.86628758734039
31
0
0
SPLINE
5
300
100
AcDbEntity
8
0
100
AcDbSpline
70
4
71
3
72
8
73
4
74
0
42
0.000000001
43
0.0000000001
44
0.0000000001
40
-1
40
-1
40
-1
40
-1
40
0
40
0
40
0
40
0
41
1
41
1
41
1
41
1
10
-209.50628931252223
20
149.86628758734039
30
0
10
-209.43624845042558
20
150.08179793225321
30
0
10
-209.3662075883289
20
150.29192051854318
30
0
10
-209.35004431246045
20
150.33502258752574
30
0
0
SPLINE
5
301
100
AcDbEntity
8
0
100
AcDbSpline
70
4
71
3
72
8
73
4
74
0
42
0.000000001
43
0.0000000001
44
0.0000000001
40
-1
40
-1
40
-1
40
-1
40
0
40
0
40
0
40
0
41
1
41
1
41
1
41
1
10
-209.35004431246045
20
150.33502258752574
30
0
10
-209.32849327796916
20
150.38351241513115
30
0
10
-209.35004431246045
20
150.39428793237678
30
0
10
-209.43086069180276
20
150.37273689788549
30
0
0
SPLINE
5
302
100
AcDbEntity
8
0
100
AcDbSpline
70
4
71
3
72
8
73
4
74
0
42
0.000000001
43
0.0000000001
44
0.0000000001
40
-1
40
-1
40
-1
40
-1
40
0
40
0
40
0
40
0
41
1
41
1
41
1
41
1
10
-209.43086069180276
20
150.37273689788549
30
0
10
-209.49012603665378
20
150.35118586339419
30
0
10
-209.74873845054915
20
150.31885931165729
30
0
10
-210.0073508644445
20
150.29730827716602
30
0
0
SPLINE
5
303
100
AcDbEntity
8
0
100
AcDbSpline
70
4
71
3
72
8
73
4
74
0
42
0.000000001
43
0.0000000001
44
0.0000000001
40
-1
40
-1
40
-1
40
-1
40
0
40
0
40
0
40
0
41
1
41
1
41
1
41
1
10
-210.0073508644445
20
150.29730827716602
30
0
10
-210.37910620941912
20
150.2649817254291
30
0
10
-210.4814736232527
20
150.27036948405191
30
0
10
-210.50302465774396
20
150.32424707028011
30
0
0
SPLINE
5
304
100
AcDbEntity
8
0
100
AcDbSpline
70
4
71
3
72
8
73
4
74
0
42
0.000000001
43
0.0000000001
44
0.0000000001
40
-1
40
-1
40
-1
40
-1
40
0
40
0
40
0
40
0
41
1
41
1
41
1
41
1
10
-210.50302465774396
20
150.32424707028011
30
0
10
-210.54612672672653
20
150.4320022427365
30
0
10
-210.5138001749896
20
150.44277775998216
30
0
10
-210.16359586450631
20
150.47510431171906
30
0
0
SPLINE
5
305
100
AcDbEntity
8
0
100
AcDbSpline
70
4
71
3
72
8
73
4
74
0
42
0.000000001
43
0.0000000001
44
0.0000000001
40
-1
40
-1
40
-1
40
-1
40
0
40
0
40
0
40
0
41
1
41
1
41
1
41
1
10
-210.16359586450631
20
150.47510431171906
30
0
10
-209.99118758857605
20
150.49126758758752
30
0
10
-209.70563638156659
20
150.53436965657011
30
0
10
-209.52784034701352
20
150.57208396692982
30
0
0
LINE
5
306
100
AcDbEntity
8
0
100
AcDbLine
10
-209.52784034701352
20
150.57208396692985
30
0
11
-209.21535034688992
21
150.63673707040368
31
0
0
LINE
5
307
100
AcDbEntity
8
0
100
AcDbLine
10
-209.21535034688992
20
150.63673707040368
30
0
11
-209.0537175882053
21
151.01388017400109
31
0
0
SPLINE
5
308
100
AcDbEntity
8
0
100
AcDbSpline
70
4
71
3
72
8
73
4
74
0
42
0.000000001
43
0.0000000001
44
0.0000000001
40
-1
40
-1
40
-1
40
-1
40
0
40
0
40
0
40
0
41
1
41
1
41
1
41
1
10
-209.05371758820533
20
151.01388017400109
30
0
10
-208.96212569161742
20
151.22400276029109
30
0
10
-208.85437051916099
20
151.46645189831798
30
0
10
-208.81665620880125
20
151.56343155352874
30
0
0
SPLINE
5
309
100
AcDbEntity
8
0
100
AcDbSpline
70
4
71
3
72
8
73
4
74
0
42
0.000000001
43
0.0000000001
44
0.0000000001
40
-1
40
-1
40
-1
40
-1
40
0
40
0
40
0
40
0
41
1
41
1
41
1
41
1
10
-208.81665620880125
20
151.56343155352874
30
0
10
-208.69812551909919
20
151.83281948466976
30
0
10
-208.71967655359046
20
151.99445224335437
30
0
10
-208.88130931227508
20
152.03216655371412
30
0
0
SPLINE
5
310
100
AcDbEntity
8
0
100
AcDbSpline
70
4
71
3
72
8
73
4
74
0
42
0.000000001
43
0.0000000001
44
0.0000000001
40
-1
40
-1
40
-1
40
-1
40
0
40
0
40
0
40
0
41
1
41
1
41
1
41
1
10
-208.88130931227508
20
152.03216655371412
30
0
10
-209.0429420709597
20
152.07526862269668
30
0
10
-209.59249345048735
20
151.97290120886311
30
0
10
-209.70563638156659
20
151.88130931227516
30
0
0
SPLINE
5
311
100
AcDbEntity
8
0
100
AcDbSpline
70
4
71
3
72
8
73
4
74
0
42
0.000000001
43
0.0000000001
44
0.0000000001
40
-1
40
-1
40
-1
40
-1
40
0
40
0
40
0
40
0
41
1
41
1
41
1
41
1
10
-209.70563638156659
20
151.88130931227516
30
0
10
-209.74873845054915
20
151.84898276053821
30
0
10
-209.79184051953169
20
151.82743172604694
30
0
10
-209.80261603677732
20
151.83820724329257
30
0
0
SPLINE
5
312
100
AcDbEntity
8
0
100
AcDbSpline
70
4
71
3
72
8
73
4
74
0
42
0.000000001
43
0.0000000001
44
0.0000000001
40
-1
40
-1
40
-1
40
-1
40
0
40
0
40
0
40
0
41
1
41
1
41
1
41
1
10
-209.80261603677732
20
151.83820724329257
30
0
10
-209.81339155402299
20
151.84359500191539
30
0
10
-209.90498345061093
20
151.81665620880131
30
0
10
-210.0073508644445
20
151.76816638119593
30
0
0
SPLINE
5
313
100
AcDbEntity
8
0
100
AcDbSpline
70
4
71
3
72
8
73
4
74
0
42
0.000000001
43
0.0000000001
44
0.0000000001
40
-1
40
-1
40
-1
40
-1
40
0
40
0
40
0
40
0
41
1
41
1
41
1
41
1
10
-210.0073508644445
20
151.76816638119593
30
0
10
-210.28212655420833
20
151.65502345011672
30
0
10
-210.38449396804194
20
151.64963569149387
30
0
10
-210.38449396804194
20
151.74122758808184
30
0
0
SPLINE
5
314
100
AcDbEntity
8
0
100
AcDbSpline
70
4
71
3
72
8
73
4
74
0
42
0.000000001
43
0.0000000001
44
0.0000000001
40
-1
40
-1
40
-1
40
-1
40
0
40
0
40
0
40
0
41
1
41
1
41
1
41
1
10
-210.38449396804194
20
151.74122758808184
30
0
10
-210.38449396804194
20
151.78432965706438
30
0
10
-210.3036775886996
20
151.83820724329257
30
0
10
-210.21208569211169
20
151.8705337950295
30
0
0
SPLINE
5
315
100
AcDbEntity
8
0
100
AcDbSpline
70
4
71
3
72
8
73
4
74
0
42
0.000000001
43
0.0000000001
44
0.0000000001
40
-1
40
-1
40
-1
40
-1
40
0
40
0
40
0
40
0
41
1
41
1
41
1
41
1
10
-210.21208569211169
20
151.8705337950295
30
0
10
-210.1151060369009
20
151.89747258814361
30
0
10
-210.03428965755862
20
151.94057465712618
30
0
10
-210.03428965755862
20
151.96212569161744
30
0
0
SPLINE
5
316
100
AcDbEntity
8
0
100
AcDbSpline
70
4
71
3
72
8
73
4
74
0
42
0.000000001
43
0.0000000001
44
0.0000000001
40
-1
40
-1
40
-1
40
-1
40
0
40
0
40
0
40
0
41
1
41
1
41
1
41
1
10
-210.03428965755862
20
151.96212569161744
30
0
10
-210.03428965755862
20
151.98906448473156
30
0
10
-209.99657534719887
20
152.01061551922282
30
0
10
-209.95347327821631
20
152.01061551922282
30
0
0
SPLINE
5
317
100
AcDbEntity
8
0
100
AcDbSpline
70
4
71
3
72
8
73
4
74
0
42
0.000000001
43
0.0000000001
44
0.0000000001
40
-1
40
-1
40
-1
40
-1
40
0
40
0
40
0
40
0
41
1
41
1
41
1
41
1
10
-209.95347327821631
20
152.01061551922282
30
0
10
-209.91037120923374
20
152.01061551922282
30
0
10
-209.87265689887403
20
152.03755431233694
30
0
10
-209.87265689887403
20
152.06988086407387
30
0
0
SPLINE
5
318
100
AcDbEntity
8
0
100
AcDbSpline
70
4
71
3
72
8
73
4
74
0
42
0.000000001
43
0.0000000001
44
0.0000000001
40
-1
40
-1
40
-1
40
-1
40
0
40
0
40
0
40
0
41
1
41
1
41
1
41
1
10
-209.87265689887403
20
152.06988086407387
30
0
10
-209.87265689887403
20
152.10220741581077
30
0
10
-209.82955482989144
20
152.11837069167925
30
0
10
-209.77567724366324
20
152.10759517443361
30
0
0
SPLINE
5
319
100
AcDbEntity
8
0
100
AcDbSpline
70
4
71
3
72
8
73
4
74
0
42
0.000000001
43
0.0000000001
44
0.0000000001
40
-1
40
-1
40
-1
40
-1
40
0
40
0
40
0
40
0
41
1
41
1
41
1
41
1
10
-209.77567724366324
20
152.10759517443361
30
0
10
-209.72179965743504
20
152.09143189856513
30
0
10
-209.63020776084707
20
152.11298293305643
30
0
10
-209.58171793324172
20
152.15069724341615
30
0
0
SPLINE
5
320
100
AcDbEntity
8
0
100
AcDbSpline
70
4
71
3
72
8
73
4
74
0
42
0.000000001
43
0.0000000001
44
0.0000000001
40
-1
40
-1
40
-1
40
-1
40
0
40
0
40
0
40
0
41
1
41
1
41
1
41
1
10
-209.58171793324172
20
152.15069724341615
30
0
10
-209.52784034701352
20
152.18841155377589
30
0
10
-209.45241172629403
20
152.20457482964437
30
0
10
-209.4093096573115
20
152.18841155377589
30
0
0
SPLINE
5
321
100
AcDbEntity
8
0
100
AcDbSpline
70
4
71
3
72
8
73
4
74
0
42
0.000000001
43
0.0000000001
44
0.0000000001
40
-1
40
-1
40
-1
40
-1
40
0
40
0
40
0
40
0
41
1
41
1
41
1
41
1
10
-209.4093096573115
20
152.18841155377589
30
0
10
-209.3662075883289
20
152.17224827790744
30
0
10
-209.25845241587251
20
152.18841155377589
30
0
10
-209.16686051928454
20
152.22612586413564
30
0
0
SPLINE
5
322
100
AcDbEntity
8
0
100
AcDbSpline
70
4
71
3
72
8
73
4
74
0
42
0.000000001
43
0.0000000001
44
0.0000000001
40
-1
40
-1
40
-1
40
-1
40
0
40
0
40
0
40
0
41
1
41
1
41
1
41
1
10
-209.16686051928454
20
152.22612586413564
30
0
10
-209.0429420709597
20
152.28000345036384
30
0
10
-208.9567379329946
20
152.28000345036384
30
0
10
-208.8004929329328
20
152.23690138138127
30
0
0
SPLINE
5
323
100
AcDbEntity
8
0
100
AcDbSpline
70
4
71
3
72
8
73
4
74
0
42
0.000000001
43
0.0000000001
44
0.0000000001
40
-1
40
-1
40
-1
40
-1
40
0
40
0
40
0
40
0
41
1
41
1
41
1
41
1
10
-208.8004929329328
20
152.23690138138127
30
0
10
-208.63347241562536
20
152.18302379515308
30
0
10
-208.58498258801998
20
152.13992172617051
30
0
10
-208.5364927604146
20
151.97290120886311
30
0
0
SPLINE
5
324
100
AcDbEntity
8
0
100
AcDbSpline
70
4
71
3
72
8
73
4
74
0
42
0.000000001
43
0.0000000001
44
0.0000000001
40
-1
40
-1
40
-1
40
-1
40
0
40
0
40
0
40
0
41
1
41
1
41
1
41
1
10
-208.5364927604146
20
151.97290120886311
30
0
10
-208.48261517418638
20
151.80588069155567
30
0
10
-208.4880029328092
20
151.75739086395029
30
0
10
-208.56343155352872
20
151.67657448460798
30
0
0
SPLINE
5
325
100
AcDbEntity
8
0
100
AcDbSpline
70
4
71
3
72
8
73
4
74
0
42
0.000000001
43
0.0000000001
44
0.0000000001
40
-1
40
-1
40
-1
40
-1
40
0
40
0
40
0
40
0
41
1
41
1
41
1
41
1
10
-208.56343155352872
20
151.67657448460798
30
0
10
-208.61192138113407
20
151.62269689837979
30
0
10
-208.63347241562536
20
151.57959482939722
30
0
10
-208.61730913975691
20
151.57959482939722
30
0
0
SPLINE
5
326
100
AcDbEntity
8
0
100
AcDbSpline
70
4
71
3
72
8
73
4
74
0
42
0.000000001
43
0.0000000001
44
0.0000000001
40
-1
40
-1
40
-1
40
-1
40
0
40
0
40
0
40
0
41
1
41
1
41
1
41
1
10
-208.61730913975691
20
151.57959482939722
30
0
10
-208.59575810526562
20
151.57959482939722
30
0
10
-208.66041120873945
20
151.4179620707126
30
0
10
-208.76277862257302
20
151.21322724304545
30
0
0
SPLINE
5
327
100
AcDbEntity
8
0
100
AcDbSpline
70
4
71
3
72
8
73
4
74
0
42
0.000000001
43
0.0000000001
44
0.0000000001
40
-1
40
-1
40
-1
40
-1
40
0
40
0
40
0
40
0
41
1
41
1
41
1
41
1
10
-208.76277862257302
20
151.21322724304545
30
0
10
-208.86514603640663
20
151.01388017400109
30
0
10
-208.96751345024023
20
150.78759431184264
30
0
10
-208.98367672610868
20
150.70677793250036
30
0
0
SPLINE
5
328
100
AcDbEntity
8
0
100
AcDbSpline
70
4
71
3
72
8
73
4
74
0
42
0.000000001
43
0.0000000001
44
0.0000000001
40
-1
40
-1
40
-1
40
-1
40
0
40
0
40
0
40
0
41
1
41
1
41
1
41
1
10
-208.98367672610868
20
150.70677793250036
30
0
10
-209.00522776059995
20
150.62596155315805
30
0
10
-209.05371758820533
20
150.53436965657011
30
0
10
-209.09143189856508
20
150.50204310483318
30
0
0
SPLINE
5
329
100
AcDbEntity
8
0
100
AcDbSpline
70
4
71
3
72
8
73
4
74
0
42
0.000000001
43
0.0000000001
44
0.0000000001
40
-1
40
-1
40
-1
40
-1
40
0
40
0
40
0
40
0
41
1
41
1
41
1
41
1
10
-209.09143189856508
20
150.50204310483318
30
0
10
-209.12914620892482
20
150.46971655309625
30
0
10
-209.15069724341609
20
150.39428793237678
30
0
10
-209.13453396754764
20
150.33502258752574
30
0
0
SPLINE
5
330
100
AcDbEntity
8
0
100
AcDbSpline
70
4
71
3
72
8
73
4
74
0
42
0.000000001
43
0.0000000001
44
0.0000000001
40
-1
40
-1
40
-1
40
-1
40
0
40
0
40
0
40
0
41
1
41
1
41
1
41
1
10
-209.13453396754764
20
150.33502258752574
30
0
10
-209.11837069167916
20
150.27036948405191
30
0
10
-209.12914620892482
20
150.20571638057805
30
0
10
-209.15608500203891
20
150.18416534608679
30
0
0
SPLINE
5
331
100
AcDbEntity
8
0
100
AcDbSpline
70
4
71
3
72
8
73
4
74
0
42
0.000000001
43
0.0000000001
44
0.0000000001
40
-1
40
-1
40
-1
40
-1
40
0
40
0
40
0
40
0
41
1
41
1
41
1
41
1
10
-209.15608500203891
20
150.18416534608679
30
0
10
-209.18302379515302
20
150.16800207021834
30
0
10
-209.26384017449533
20
149.9794305184196
30
0
10
-209.33388103659198
20
149.76392017350682
30
0
0
SPLINE
5
332
100
AcDbEntity
8
0
100
AcDbSpline
70
4
71
3
72
8
73
4
74
0
42
0.000000001
43
0.0000000001
44
0.0000000001
40
-1
40
-1
40
-1
40
-1
40
0
40
0
40
0
40
0
41
1
41
1
41
1
41
1
10
-209.33388103659198
20
149.76392017350682
30
0
10
-209.44702396767121
20
149.4137158630235
30
0
10
-209.48473827803096
20
149.35445051817248
30
0
10
-209.73257517468068
20
149.18204224224223
30
0
0
LWPOLYLINE
5
333
100
AcDbEntity
8
0
100
AcDbPolyline
90
4
70
1
43
0.0
10
-447.55624999999998
20
160.73624999999998
10
-447.55624999999998
20
146.73625000000001
10
-461.55624999999998
20
146.73625000000001
10
-461.55624999999998
20
160.73624999999998
0
LWPOLYLINE
5
334
100
AcDbEntity
8
0
100
AcDbPolyline
90
4
70
1
43
0.0
10
-428.50625000000002
20
236.93625
10
-428.50625000000002
20
222.93625000000003
10
-442.50625000000002
20
222.93625000000003
10
-442.50625000000002
20
236.93625
0
LWPOLYLINE
5
335
100
AcDbEntity
8
0
100
AcDbPolyline
90
4
70
1
43
0.0
10
-415.3125
20
228.84925000000004
10
-415.3125
20
235.84925000000001
10
-400.3125
20
235.84925000000001
10
-400.3125
20
228.84925000000004
0
LWPOLYLINE
5
336
100
AcDbEntity
8
0
100
AcDbPolyline
90
4
70
1
43
0.0
10
-385.64374999999995
20
146.73625000000001
10
-399.64374999999995
20
146.73625000000001
10
-399.64374999999995
20
160.73624999999998
10
-385.64374999999995
20
160.73624999999998
0
LWPOLYLINE
5
337
100
AcDbEntity
8
0
100
AcDbPolyline
90
4
70
1
43
0.0
10
-399.64374999999995
20
184.83625000000004
10
-399.64374999999995
20
198.83625000000001
10
-385.64374999999995
20
198.83625000000001
10
-385.64374999999995
20
184.83625000000004
0
LWPOLYLINE
5
338
100
AcDbEntity
8
0
100
AcDbPolyline
90
4
70
1
43
0.0
10
-345.16250000000002
20
222.93625000000003
10
-359.16249999999997
20
222.93625000000003
10
-359.16249999999997
20
236.93625
10
-345.16250000000002
20
236.93625
0
LWPOLYLINE
5
339
100
AcDbEntity
8
0
100
AcDbPolyline
90
4
70
1
43
0.0
10
-347.54374999999993
20
165.78625000000002
10
-361.54375000000005
20
165.78625000000002
10
-361.54375000000005
20
179.78625
10
-347.54374999999993
20
179.78625
0
LWPOLYLINE
5
340
100
AcDbEntity
8
0
100
AcDbPolyline
90
4
70
1
43
0.0
10
-328.49374999999998
20
198.83625000000001
10
-328.49374999999998
20
184.83625000000004
10
-342.49374999999998
20
184.83625000000004
10
-342.49374999999998
20
198.83625000000001
0
LWPOLYLINE
5
341
100
AcDbEntity
8
0
100
AcDbPolyline
90
4
70
1
43
0.0
10
-309.44374999999997
20
184.83625000000004
10
-323.44375000000002
20
184.83625000000004
10
-323.44375000000002
20
198.83625000000001
10
-309.44374999999997
20
198.83625000000001
0
LWPOLYLINE
5
342
100
AcDbEntity
8
0
100
AcDbPolyline
90
4
70
1
43
0.0
10
-309.15625
20
203.88625000000002
10
-309.15625
20
217.88625000000002
10
-295.15625
20
217.88625000000002
10
-295.15625
20
203.88625000000002
0
LWPOLYLINE
5
343
100
AcDbEntity
8
0
100
AcDbPolyline
90
4
70
1
43
0.0
10
-266.58124999999995
20
146.73625000000001
10
-280.58124999999995
20
146.73625000000001
10
-280.58124999999995
20
160.73624999999998
10
-266.58124999999995
20
160.73624999999998
0
LWPOLYLINE
5
344
100
AcDbEntity
8
0
100
AcDbPolyline
90
4
70
1
43
0.0
10
-266.58124999999995
20
222.93625000000003
10
-280.58124999999995
20
222.93625000000003
10
-280.58124999999995
20
236.93625
10
-266.58124999999995
20
236.93625
0
LWPOLYLINE
5
345
100
AcDbEntity
8
0
100
AcDbPolyline
90
4
70
1
43
0.0
10
-247.53124999999997
20
165.78625000000002
10
-261.53124999999994
20
165.78625000000002
10
-261.53124999999994
20
179.78625
10
-247.53124999999997
20
179.78625
0
LWPOLYLINE
5
346
100
AcDbEntity
8
0
100
AcDbPolyline
90
4
70
1
43
0.0
10
-228.48124999999996
20
203.88625000000002
10
-242.48124999999999
20
203.88625000000002
10
-242.48124999999999
20
217.88625000000002
10
-228.48124999999996
20
217.88625000000002
0
LWPOLYLINE
5
347
100
AcDbEntity
8
0
100
AcDbPolyline
90
4
70
1
43
0.0
10
-204.66874999999999
20
184.83625000000004
10
-218.66874999999996
20
184.83625000000004
10
-218.66874999999996
20
198.83625000000001
10
-204.66874999999999
20
198.83625000000001
0
LWPOLYLINE
5
348
100
AcDbEntity
8
0
100
AcDbPolyline
90
4
70
1
43
0.0
10
-204.66874999999999
20
203.88625000000002
10
-218.66874999999996
20
203.88625000000002
10
-218.66874999999996
20
217.88625000000002
10
-204.66874999999999
20
217.88625000000002
0
LWPOLYLINE
5
349
100
AcDbEntity
8
0
100
AcDbPolyline
90
4
70
1
43
0.0
10
-242.48124999999999
20
184.83625000000004
10
-242.48124999999999
20
198.83625000000001
10
-228.48124999999996
20
198.83625000000001
10
-228.48124999999996
20
184.83625000000004
0
LWPOLYLINE
5
350
100
AcDbEntity
8
0
100
AcDbPolyline
90
4
70
1
43
0.0
10
-261.53124999999994
20
146.73625000000001
10
-261.53124999999994
20
160.73624999999998
10
-247.53124999999997
20
160.73624999999998
10
-247.53124999999997
20
146.73625000000001
0
LWPOLYLINE
5
351
100
AcDbEntity
8
0
100
AcDbPolyline
90
4
70
1
43
0.0
10
-247.53124999999997
20
222.93625000000003
10
-261.53124999999994
20
222.93625000000003
10
-261.53124999999994
20
236.93625
10
-247.53124999999997
20
236.93625
0
LWPOLYLINE
5
352
100
AcDbEntity
8
0
100
AcDbPolyline
90
4
70
1
43
0.0
10
-266.58124999999995
20
165.78625000000002
10
-280.58124999999995
20
165.78625000000002
10
-280.58124999999995
20
179.78625
10
-266.58124999999995
20
179.78625
0
LWPOLYLINE
5
353
100
AcDbEntity
8
0
100
AcDbPolyline
90
4
70
1
43
0.0
10
-304.39374999999995
20
184.83625000000004
10
-304.39374999999995
20
198.83625000000001
10
-290.39375000000001
20
198.83625000000001
10
-290.39375000000001
20
184.83625000000004
0
LWPOLYLINE
5
354
100
AcDbEntity
8
0
100
AcDbPolyline
90
4
70
1
43
0.0
10
-318.96875
20
203.88625000000002
10
-332.96875
20
203.88625000000002
10
-332.96875
20
217.88625000000002
10
-318.96875
20
217.88625000000002
0
LWPOLYLINE
5
355
100
AcDbEntity
8
0
100
AcDbPolyline
90
4
70
1
43
0.0
10
-352.01875000000001
20
203.88625000000002
10
-352.01875000000001
20
217.88625000000002
10
-338.01874999999995
20
217.88625000000002
10
-338.01874999999995
20
203.88625000000002
0
LWPOLYLINE
5
356
100
AcDbEntity
8
0
100
AcDbPolyline
90
4
70
1
43
0.0
10
-347.54374999999993
20
146.73625000000001
10
-361.54375000000005
20
146.73625000000001
10
-361.54375000000005
20
160.73624999999998
10
-347.54374999999993
20
160.73624999999998
0
LWPOLYLINE
5
357
100
AcDbEntity
8
0
100
AcDbPolyline
90
4
70
1
43
0.0
10
-360.60049999999995
20
223.93625
10
-367.6004999999999
20
223.93625
10
-367.6004999999999
20
238.93625
10
-360.60049999999995
20
238.93625
0
LWPOLYLINE
5
358
100
AcDbEntity
8
0
100
AcDbPolyline
90
4
70
1
43
0.0
10
-376.11874999999998
20
203.88625000000002
10
-390.11874999999998
20
203.88625000000002
10
-390.11874999999998
20
217.88625000000002
10
-376.11874999999998
20
217.88625000000002
0
LWPOLYLINE
5
359
100
AcDbEntity
8
0
100
AcDbPolyline
90
4
70
1
43
0.0
10
-366.59375
20
146.73625000000001
10
-380.59374999999994
20
146.73625000000001
10
-380.59374999999994
20
160.73624999999998
10
-366.59375
20
160.73624999999998
0
LWPOLYLINE
5
360
100
AcDbEntity
8
0
100
AcDbPolyline
90
4
70
1
43
0.0
10
-416.31249999999994
20
213.41125000000002
10
-416.31249999999994
20
227.41125000000005
10
-402.31249999999994
20
227.41125000000005
10
-402.31249999999994
20
213.41125000000002
0
LWPOLYLINE
5
361
100
AcDbEntity
8
0
100
AcDbPolyline
90
4
70
1
43
0.0
10
-404.69375000000002
20
184.83625000000004
10
-418.69374999999997
20
184.83625000000004
10
-418.69374999999997
20
198.83625000000001
10
-404.69375000000002
20
198.83625000000001
0
LWPOLYLINE
5
362
100
AcDbEntity
8
0
100
AcDbPolyline
90
4
70
1
43
0.0
10
-442.50625000000002
20
146.73625000000001
10
-442.50625000000002
20
160.73624999999998
10
-428.50625000000002
20
160.73624999999998
10
-428.50625000000002
20
146.73625000000001
0
LWPOLYLINE
5
363
100
AcDbEntity
8
0
100
AcDbPolyline
90
4
70
1
43
0.0
10
-466.60624999999993
20
146.73625000000001
10
-480.60624999999993
20
146.73625000000001
10
-480.60624999999993
20
160.73624999999998
10
-466.60624999999993
20
160.73624999999998
0
LWPOLYLINE
5
364
100
AcDbEntity
8
0
100
AcDbPolyline
90
4
70
1
43
0.0
10
-447.55624999999998
20
236.93625
10
-447.55624999999998
20
222.93625000000003
10
-461.55624999999998
20
222.93625000000003
10
-461.55624999999998
20
236.93625
0
LWPOLYLINE
5
365
100
AcDbEntity
8
0
100
AcDbPolyline
90
4
70
1
43
0.0
10
-418.69374999999997
20
165.78625000000002
10
-418.69374999999997
20
179.78625
10
-404.69375000000002
20
179.78625
10
-404.69375000000002
20
165.78625000000002
0
LWPOLYLINE
5
366
100
AcDbEntity
8
0
100
AcDbPolyline
90
4
70
1
43
0.0
10
-366.59375
20
198.83625000000001
10
-366.59375
20
184.83625000000004
10
-380.59374999999994
20
184.83625000000004
10
-380.59374999999994
20
198.83625000000001
0
LWPOLYLINE
5
367
100
AcDbEntity
8
0
100
AcDbPolyline
90
4
70
1
43
0.0
10
-366.59375
20
165.78625000000002
10
-380.59374999999994
20
165.78625000000002
10
-380.59374999999994
20
179.78625
10
-366.59375
20
179.78625
0
LWPOLYLINE
5
368
100
AcDbEntity
8
0
100
AcDbPolyline
90
4
70
1
43
0.0
10
-343.72450000000003
20
223.93625
10
-343.72450000000003
20
238.93625
10
-336.72449999999998
20
238.93625
10
-336.72449999999998
20
223.93625
0
LWPOLYLINE
5
369
100
AcDbEntity
8
0
100
AcDbPolyline
90
4
70
1
43
0.0
10
-347.54374999999993
20
198.83625000000001
10
-347.54374999999993
20
184.83625000000004
10
-361.54375000000005
20
184.83625000000004
10
-361.54375000000005
20
198.83625000000001
0
LWPOLYLINE
5
370
100
AcDbEntity
8
0
100
AcDbPolyline
90
4
70
1
43
0.0
10
-328.49374999999998
20
165.78625000000002
10
-342.49374999999998
20
165.78625000000002
10
-342.49374999999998
20
179.78625
10
-328.49374999999998
20
179.78625
0
LWPOLYLINE
5
371
100
AcDbEntity
8
0
100
AcDbPolyline
90
4
70
1
43
0.0
10
-309.44374999999997
20
165.78625000000002
10
-323.44375000000002
20
165.78625000000002
10
-323.44375000000002
20
179.78625
10
-309.44374999999997
20
179.78625
0
LWPOLYLINE
5
372
100
AcDbEntity
8
0
100
AcDbPolyline
90
4
70
1
43
0.0
10
-290.39375000000001
20
236.93625
10
-290.39375000000001
20
222.93625000000003
10
-304.39374999999995
20
222.93625000000003
10
-304.39374999999995
20
236.93625
0
LWPOLYLINE
5
373
100
AcDbEntity
8
0
100
AcDbPolyline
90
4
70
1
43
0.0
10
-290.39375000000001
20
146.73625000000001
10
-304.39374999999995
20
146.73625000000001
10
-304.39374999999995
20
160.73624999999998
10
-290.39375000000001
20
160.73624999999998
0
LWPOLYLINE
5
374
100
AcDbEntity
8
0
100
AcDbPolyline
90
4
70
1
43
0.0
10
-280.58124999999995
20
203.88625000000002
10
-280.58124999999995
20
217.88625000000002
10
-266.58124999999995
20
217.88625000000002
10
-266.58124999999995
20
203.88625000000002
0
LWPOLYLINE
5
375
100
AcDbEntity
8
0
100
AcDbPolyline
90
4
70
1
43
0.0
10
-247.53124999999997
20
184.83625000000004
10
-261.53124999999994
20
184.83625000000004
10
-261.53124999999994
20
198.83625000000001
10
-247.53124999999997
20
198.83625000000001
0
LWPOLYLINE
5
376
100
AcDbEntity
8
0
100
AcDbPolyline
90
4
70
1
43
0.0
10
-228.48124999999996
20
165.78625000000002
10
-242.48124999999999
20
165.78625000000002
10
-242.48124999999999
20
179.78625
10
-228.48124999999996
20
179.78625
0
LWPOLYLINE
5
377
100
AcDbEntity
8
0
100
AcDbPolyline
90
4
70
1
43
0.0
10
-218.66874999999996
20
165.78625000000002
10
-218.66874999999996
20
179.78625
10
-204.66874999999999
20
179.78625
10
-204.66874999999999
20
165.78625000000002
0
LWPOLYLINE
5
378
100
AcDbEntity
8
0
100
AcDbPolyline
90
4
70
1
43
0.0
10
-204.66874999999999
20
222.93625000000003
10
-218.66874999999996
20
222.93625000000003
10
-218.66874999999996
20
236.93625
10
-204.66874999999999
20
236.93625
0
LWPOLYLINE
5
379
100
AcDbEntity
8
0
100
AcDbPolyline
90
4
70
1
43
0.0
10
-228.48124999999996
20
222.93625000000003
10
-242.48124999999999
20
222.93625000000003
10
-242.48124999999999
20
236.93625
10
-228.48124999999996
20
236.93625
0
LWPOLYLINE
5
380
100
AcDbEntity
8
0
100
AcDbPolyline
90
4
70
1
43
0.0
10
-228.48124999999996
20
146.73625000000001
10
-242.48124999999999
20
146.73625000000001
10
-242.48124999999999
20
160.73624999999998
10
-228.48124999999996
20
160.73624999999998
0
LWPOLYLINE
5
381
100
AcDbEntity
8
0
100
AcDbPolyline
90
4
70
1
43
0.0
10
-247.53124999999997
20
203.88625000000002
10
-261.53124999999994
20
203.88625000000002
10
-261.53124999999994
20
217.88625000000002
10
-247.53124999999997
20
217.88625000000002
0
LWPOLYLINE
5
382
100
AcDbEntity
8
0
100
AcDbPolyline
90
4
70
1
43
0.0
10
-266.58124999999995
20
184.83625000000004
10
-280.58124999999995
20
184.83625000000004
10
-280.58124999999995
20
198.83625000000001
10
-266.58124999999995
20
198.83625000000001
0
LWPOLYLINE
5
383
100
AcDbEntity
8
0
100
AcDbPolyline
90
4
70
1
43
0.0
10
-290.39375000000001
20
165.78625000000002
10
-304.39374999999995
20
165.78625000000002
10
-304.39374999999995
20
179.78625
10
-290.39375000000001
20
179.78625
0
LWPOLYLINE
5
384
100
AcDbEntity
8
0
100
AcDbPolyline
90
4
70
1
43
0.0
10
-309.44374999999997
20
222.93625000000003
10
-323.44375000000002
20
222.93625000000003
10
-323.44375000000002
20
236.93625
10
-309.44374999999997
20
236.93625
0
LWPOLYLINE
5
385
100
AcDbEntity
8
0
100
AcDbPolyline
90
4
70
1
43
0.0
10
-323.44375000000002
20
146.73625000000001
10
-323.44375000000002
20
160.73624999999998
10
-309.44374999999997
20
160.73624999999998
10
-309.44374999999997
20
146.73625000000001
0
LWPOLYLINE
5
386
100
AcDbEntity
8
0
100
AcDbPolyline
90
4
70
1
43
0.0
10
-342.49374999999998
20
146.73625000000001
10
-342.49374999999998
20
160.73624999999998
10
-328.49374999999998
20
160.73624999999998
10
-328.49374999999998
20
146.73625000000001
0
LWPOLYLINE
5
387
100
AcDbEntity
8
0
100
AcDbPolyline
90
4
70
1
43
0.0
10
-371.06875000000002
20
203.88625000000002
10
-371.06875000000002
20
217.88625000000002
10
-357.06874999999997
20
217.88625000000002
10
-357.06874999999997
20
203.88625000000002
0
LWPOLYLINE
5
388
100
AcDbEntity
8
0
100
AcDbPolyline
90
4
70
1
43
0.0
10
-380.88124999999997
20
222.93625000000003
10
-394.88124999999997
20
222.93625000000003
10
-394.88124999999997
20
236.93625
10
-380.88124999999997
20
236.93625
0
LWPOLYLINE
5
389
100
AcDbEntity
8
0
100
AcDbPolyline
90
4
70
1
43
0.0
10
-385.64374999999995
20
179.78625
10
-385.64374999999995
20
165.78625000000002
10
-399.64374999999995
20
165.78625000000002
10
-399.64374999999995
20
179.78625
0
LWPOLYLINE
5
390
100
AcDbEntity
8
0
100
AcDbPolyline
90
4
70
1
43
0.0
10
-415.3125
20
204.97325000000004
10
-415.3125
20
211.97325000000004
10
-400.3125
20
211.97325000000004
10
-400.3125
20
204.97325000000004
0
LWPOLYLINE
5
391
100
AcDbEntity
8
0
100
AcDbPolyline
90
4
70
1
43
0.0
10
-404.69375000000002
20
146.73625000000001
10
-418.69374999999997
20
146.73625000000001
10
-418.69374999999997
20
160.73624999999998
10
-404.69375000000002
20
160.73624999999998
0
LWPOLYLINE
5
392
100
AcDbEntity
8
0
100
AcDbPolyline
90
4
70
1
43
0.0
10
-466.60624999999993
20
222.93625000000003
10
-480.60624999999993
20
222.93625000000003
10
-480.60624999999993
20
236.93625
10
-466.60624999999993
20
236.93625
0
LWPOLYLINE
5
393
100
AcDbEntity
8
0
100
AcDbPolyline
90
4
70
1
43
0.0
10
-461.55624999999998
20
203.88625000000002
10
-461.55624999999998
20
217.88625000000002
10
-447.55624999999998
20
217.88625000000002
10
-447.55624999999998
20
203.88625000000002
0
LWPOLYLINE
5
394
100
AcDbEntity
8
0
100
AcDbPolyline
90
8
70
1
43
0.0
10
-200.36374999999271
20
236.67625000000018
42
0.41421356237310197
10
-204.86374999999271
20
241.17625000000021
10
-484.83874999999665
20
241.17625000000018
42
0.41421356237310658
10
-489.33874999999671
20
236.67625000000021
10
-489.33874999999671
20
147.10125000000019
42
0.41421356237309964
10
-484.83874999999671
20
142.60125000000011
10
-204.86374999999273
20
142.60125000000016
42
0.41421356237310197
10
-200.36374999999271
20
147.10125000000016
0
ENDSEC
0
SECTION
2
OBJECTS
0
DICTIONARY
5
C
100
AcDbDictionary
3
ACAD_GROUP
350
D
3
ACAD_MLINESTYLE
350
17
0
DICTIONARY
5
D
100
AcDbDictionary
0
DICTIONARY
5
1A
330
C
100
AcDbDictionary
0
DICTIONARY
5
17
100
AcDbDictionary
0
ENDSEC
0
EOF
