0
SECTION
2
HEADER
9
$INSUNITS
70
4
9
$ACADVER
1
AC1014
9
$HANDSEED
5
FFFF
0
ENDSEC
0
SECTION
2
TABLES
0
TABLE
2
VPORT
5
8
100
AcDbSymbolTable
0
ENDTAB
0
TABLE
2
LTYPE
5
5
100
AcDbSymbolTable
0
LTYPE
5
14
100
AcDbSymbolTableRecord
100
AcDbLinetypeTableRecord
2
BYBLOCK
70
0
0
LTYPE
5
15
100
AcDbSymbolTableRecord
100
AcDbLinetypeTableRecord
2
BYLAYER
70
0
0
LTYPE
5
16
100
AcDbSymbolTableRecord
100
AcDbLinetypeTableRecord
2
DASHED
70
0
3
Dashed __ __ __ __ __ __ __ __ __ __ __ __ __ _
72
65
73
2
40
0.75
49
0.5
74
0
49
-0.25
74
0
0
ENDTAB
0
TABLE
2
LAYER
5
2
100
AcDbSymbolTable
70
3
0
LAYER
5
50
100
AcDbSymbolTableRecord
100
AcDbLayerTableRecord
2
1
70
0
62
7
6
DASHED
0
LAYER
5
51
100
AcDbSymbolTableRecord
100
AcDbLayerTableRecord
2
0
70
0
62
7
6
CONTINUOUS
0
ENDTAB
0
TABLE
2
STYLE
5
3
100
AcDbSymbolTable
70
1
0
STYLE
5
11
100
AcDbSymbolTableRecord
100
AcDbTextStyleTableRecord
2
STANDARD
70
0
0
ENDTAB
0
TABLE
2
VIEW
5
6
100
AcDbSymbolTable
70
0
0
ENDTAB
0
TABLE
2
UCS
5
7
100
AcDbSymbolTable
70
0
0
ENDTAB
0
TABLE
2
APPID
5
9
100
AcDbSymbolTable
70
2
0
APPID
5
12
100
AcDbSymbolTableRecord
100
AcDbRegAppTableRecord
2
ACAD
70
0
0
ENDTAB
0
TABLE
2
DIMSTYLE
5
A
100
AcDbSymbolTable
70
1
0
ENDTAB
0
TABLE
2
BLOCK_RECORD
5
1
100
AcDbSymbolTable
70
1
0
BLOCK_RECORD
5
1F
100
AcDbSymbolTableRecord
100
AcDbBlockTableRecord
2
*MODEL_SPACE
0
BLOCK_RECORD
5
1B
100
AcDbSymbolTableRecord
100
AcDbBlockTableRecord
2
*PAPER_SPACE
0
ENDTAB
0
ENDSEC
0
SECTION
2
BLOCKS
0
BLOCK
5
20
100
AcDbEntity
100
AcDbBlockBegin
2
*MODEL_SPACE
0
ENDBLK
5
21
100
AcDbEntity
100
AcDbBlockEnd
0
BLOCK
5
1C
100
AcDbEntity
100
AcDbBlockBegin
2
*PAPER_SPACE
0
ENDBLK
5
1D
100
AcDbEntity
100
AcDbBlockEnd
0
ENDSEC
0
SECTION
2
ENTITIES
0
LWPOLYLINE
5
100
100
AcDbEntity
8
0
100
AcDbPolyline
90
8
70
1
43
0.0
10
-293.94175000000007
20
146.73624999999996
42
0.41421356237307422
10
-293.44175000000007
20
147.23624999999996
10
-293.44175000000001
20
160.23624999999996
42
0.4142135623730534
10
-293.94175000000007
20
160.73624999999996
10
-306.94175000000001
20
160.73624999999996
42
0.41421356237313667
10
-307.44175000000001
20
160.23624999999996
10
-307.44175000000007
20
147.23624999999996
42
0.4142135623730846
10
-306.94175000000001
20
146.73624999999993
0
LWPOLYLINE
5
101
100
AcDbEntity
8
0
100
AcDbPolyline
90
8
70
1
43
0.0
10
-230.56868650000001
20
222.93624999999994
10
-243.56868650000001
20
222.93624999999994
42
-0.41421356237313667
10
-244.06868650000004
20
223.43624999999997
10
-244.06868650000007
20
236.43624999999992
42
-0.4142135623730534
10
-243.56868650000001
20
236.93624999999997
10
-230.56868650000001
20
236.93624999999986
42
-0.41421356237311585
10
-230.06868650000004
20
236.43624999999992
10
-230.06868650000001
20
223.43624999999997
42
-0.41421356237313667
0
LWPOLYLINE
5
102
100
AcDbEntity
8
0
100
AcDbPolyline
90
8
70
1
43
0.0
10
-452.81875000000008
20
146.73624999999996
10
-465.81875000000014
20
146.73624999999998
42
-0.4142135623730222
10
-466.31875000000008
20
147.23624999999996
10
-466.31875000000008
20
160.23624999999996
42
-0.4142135623730534
10
-465.81875000000014
20
160.73624999999996
10
-452.81875000000014
20
160.73624999999996
42
-0.41421356237307422
10
-452.31875000000002
20
160.23624999999996
10
-452.31875000000002
20
147.23624999999996
42
-0.41421356237313667
0
LWPOLYLINE
5
103
100
AcDbEntity
8
0
100
AcDbPolyline
90
8
70
1
43
0.0
10
-471.86875000000009
20
146.73624999999996
10
-484.86875000000009
20
146.73624999999998
42
-0.4142135623730222
10
-485.36875000000009
20
147.23624999999996
10
-485.36875000000009
20
160.23624999999996
42
-0.4142135623730534
10
-484.86875000000009
20
160.73624999999996
10
-471.86875000000015
20
160.73624999999996
42
-0.41421356237307422
10
-471.36875000000003
20
160.23624999999996
10
-471.36875000000003
20
147.23624999999996
42
-0.41421356237313667
0
LWPOLYLINE
5
104
100
AcDbEntity
8
0
100
AcDbPolyline
90
8
70
1
43
0.0
10
-244.00525000000005
20
185.33624999999995
10
-244.00525000000005
20
198.33624999999995
42
-0.41421356237313667
10
-243.50525000000005
20
198.83624999999995
10
-230.50525000000005
20
198.83624999999995
42
-0.4142135623731783
10
-230.00525000000005
20
198.33624999999995
10
-230.00525000000005
20
185.33624999999995
42
-0.41421356237311585
10
-230.50525000000005
20
184.83624999999995
10
-243.50525000000005
20
184.83624999999992
42
-0.41421356237313667
0
LWPOLYLINE
5
105
100
AcDbEntity
8
0
100
AcDbPolyline
90
8
70
1
43
0.0
10
-322.64362300000005
20
203.88624999999993
10
-335.64362299999999
20
203.88624999999993
42
-0.41421356237307422
10
-336.1436230000001
20
204.38624999999996
10
-336.1436230000001
20
217.38624999999996
42
-0.41421356237313667
10
-335.64362300000005
20
217.88624999999996
10
-322.64362300000005
20
217.88624999999996
42
-0.41421356237303258
10
-322.14362300000005
20
217.38624999999996
10
-322.14362300000005
20
204.38624999999996
42
-0.4142135623730534
0
LWPOLYLINE
5
106
100
AcDbEntity
8
0
100
AcDbPolyline
90
8
70
1
43
0.0
10
-230.50525000000005
20
146.73624999999993
10
-243.50525000000005
20
146.73624999999998
42
-0.41421356237309503
10
-244.00525000000002
20
147.23624999999996
10
-244.00525000000005
20
160.23624999999996
42
-0.41421356237313667
10
-243.50525000000005
20
160.73624999999996
10
-230.50525000000005
20
160.73624999999996
42
-0.41421356237313667
10
-230.00525000000005
20
160.23624999999996
10
-230.00525000000005
20
147.23624999999996
42
-0.41421356237313667
0
LWPOLYLINE
5
107
100
AcDbEntity
8
0
100
AcDbPolyline
90
8
70
1
43
0.0
10
-313.11862300000007
20
222.93624999999994
10
-326.11862299999996
20
222.93624999999994
42
-0.41421356237307422
10
-326.61862300000007
20
223.43624999999997
10
-326.61862300000007
20
236.43624999999992
42
-0.41421356237307422
10
-326.11862300000007
20
236.93624999999997
10
-313.11862300000007
20
236.93624999999994
42
-0.41421356237313667
10
-312.61862300000007
20
236.43624999999992
10
-312.61862300000007
20
223.43624999999997
42
-0.41421356237313667
0
LWPOLYLINE
5
108
100
AcDbEntity
8
0
100
AcDbPolyline
90
8
70
1
43
0.0
10
-268.66868650000004
20
203.88624999999993
10
-281.66868650000004
20
203.88624999999996
42
-0.41421356237309503
10
-282.16868650000004
20
204.38624999999996
10
-282.16868650000004
20
217.38624999999996
42
-0.41421356237313667
10
-281.66868650000004
20
217.88624999999996
10
-268.66868650000004
20
217.88624999999996
42
-0.4142135623731783
10
-268.16868650000004
20
217.38624999999996
10
-268.16868650000004
20
204.38624999999996
42
-0.41421356237313667
0
LWPOLYLINE
5
109
100
AcDbEntity
8
0
100
AcDbPolyline
90
8
70
1
43
0.0
10
-408.24175000000002
20
184.83624999999992
10
-421.24175000000008
20
184.83624999999995
42
-0.41421356237301177
10
-421.74175000000002
20
185.33624999999995
10
-421.74175000000002
20
198.33624999999998
42
-0.41421356237301177
10
-421.24175000000008
20
198.83624999999995
10
-408.24175000000014
20
198.83624999999998
42
-0.41421356237307422
10
-407.74175000000002
20
198.33624999999998
10
-407.74175000000002
20
185.33624999999995
42
-0.41421356237313667
0
LWPOLYLINE
5
110
100
AcDbEntity
8
0
100
AcDbPolyline
90
8
70
1
43
0.0
10
-433.89562300000011
20
222.93624999999994
10
-446.89562300000006
20
222.93624999999997
42
-0.41421356237301177
10
-447.395623
20
223.43624999999997
10
-447.39562299999994
20
236.43624999999997
42
-0.41421356237307422
10
-446.89562300000006
20
236.93624999999997
10
-433.89562300000011
20
236.93625
42
-0.41421356237301177
10
-433.39562300000006
20
236.43624999999997
10
-433.39562300000011
20
223.43624999999997
42
-0.4142135623730534
0
LWPOLYLINE
5
111
100
AcDbEntity
8
0
100
AcDbPolyline
90
8
70
1
43
0.0
10
-408.24175000000002
20
165.78624999999994
10
-421.24175000000008
20
165.78624999999994
42
-0.41421356237303258
10
-421.74175000000002
20
166.28624999999997
10
-421.74175000000002
20
179.28624999999997
42
-0.4142135623730534
10
-421.24175000000008
20
179.78624999999997
10
-408.24175000000014
20
179.78624999999997
42
-0.41421356237307422
10
-407.74175000000002
20
179.28624999999997
10
-407.74175000000002
20
166.28624999999997
42
-0.41421356237313667
0
LWPOLYLINE
5
112
100
AcDbEntity
8
0
100
AcDbPolyline
90
8
70
1
43
0.0
10
-332.04175000000009
20
184.83624999999992
10
-345.04175000000004
20
184.83624999999995
42
-0.41421356237301177
10
-345.54174999999998
20
185.33624999999995
10
-345.54174999999998
20
198.33624999999998
42
-0.41421356237301177
10
-345.04175000000004
20
198.83624999999995
10
-332.04175000000009
20
198.83625000000001
42
-0.41421356237301177
10
-331.54175000000004
20
198.33624999999998
10
-331.54175000000009
20
185.33624999999995
42
-0.4142135623730534
0
LWPOLYLINE
5
113
100
AcDbEntity
8
0
100
AcDbPolyline
90
8
70
1
43
0.0
10
-403.60612300000003
20
203.88624999999993
10
-416.60612299999997
20
203.88624999999993
42
-0.41421356237307422
10
-417.10612300000008
20
204.38624999999996
10
-417.10612300000008
20
217.38624999999996
42
-0.41421356237313667
10
-416.60612300000003
20
217.88624999999996
10
-403.60612300000003
20
217.88624999999996
42
-0.41421356237303258
10
-403.10612300000003
20
217.38624999999996
10
-403.10612300000003
20
204.38624999999996
42
-0.4142135623730534
0
LWPOLYLINE
5
114
100
AcDbEntity
8
0
100
AcDbPolyline
90
8
70
1
43
0.0
10
-340.39937300000008
20
223.93624999999992
10
-346.39937299999997
20
223.93624999999989
42
-0.41421356237301177
10
-346.89937300000003
20
224.43624999999994
10
-346.89937299999997
20
238.43624999999997
42
-0.41421356237301177
10
-346.39937299999997
20
238.93624999999992
10
-340.39937300000008
20
238.93625
42
-0.41421356237301177
10
-339.89937300000003
20
238.43624999999997
10
-339.89937300000014
20
224.43624999999994
42
-0.41421356237307422
0
LWPOLYLINE
5
115
100
AcDbEntity
8
0
100
AcDbPolyline
90
8
70
1
43
0.0
10
-298.83112300000005
20
203.88624999999993
10
-311.83112300000005
20
203.88624999999993
42
-0.41421356237313667
10
-312.33112300000005
20
204.38624999999996
10
-312.33112300000005
20
217.38624999999996
42
-0.41421356237313667
10
-311.83112300000005
20
217.88624999999996
10
-298.83112300000005
20
217.88624999999996
42
-0.4142135623731783
10
-298.33112300000005
20
217.38624999999996
10
-298.33112300000005
20
204.38624999999996
42
-0.41421356237313667
0
LWPOLYLINE
5
116
100
AcDbEntity
8
0
100
AcDbPolyline
90
8
70
1
43
0.0
10
-370.14175000000012
20
165.78624999999994
10
-383.14175000000006
20
165.78624999999994
42
-0.41421356237303258
10
-383.64175
20
166.28624999999997
10
-383.64175
20
179.28624999999997
42
-0.41421356237301177
10
-383.14175000000006
20
179.78624999999994
10
-370.14175000000012
20
179.78625
42
-0.41421356237301177
10
-369.64175000000006
20
179.28624999999997
10
-369.64175000000017
20
166.28624999999997
42
-0.41421356237307422
0
LWPOLYLINE
5
117
100
AcDbEntity
8
0
100
AcDbPolyline
90
8
70
1
43
0.0
10
-364.27537300000006
20
223.93624999999997
10
-370.27537300000006
20
223.93625
42
-0.41421356237301177
10
-370.77537300000006
20
224.43624999999997
10
-370.77537300000006
20
238.43624999999997
42
-0.4142135623730534
10
-370.27537300000006
20
238.93624999999997
10
-364.27537300000012
20
238.93624999999997
42
-0.41421356237307422
10
-363.775373
20
238.43624999999997
10
-363.775373
20
224.43624999999997
42
-0.41421356237313667
0
LWPOLYLINE
5
118
100
AcDbEntity
8
0
100
AcDbPolyline
90
8
70
1
43
0.0
10
-348.83737300000007
20
222.93624999999994
10
-361.83737300000007
20
222.93624999999997
42
-0.41421356237301177
10
-362.33737300000001
20
223.43624999999997
10
-362.33737300000007
20
236.43624999999992
42
-0.41421356237301177
10
-361.83737300000007
20
236.93624999999997
10
-348.83737300000007
20
236.93624999999997
42
-0.41421356237301177
10
-348.33737300000001
20
236.43624999999992
10
-348.33737300000007
20
223.43624999999997
42
-0.4142135623730534
0
LWPOLYLINE
5
119
100
AcDbEntity
8
0
100
AcDbPolyline
90
8
70
1
43
0.0
10
-268.66868650000004
20
222.93624999999994
10
-281.66868650000004
20
222.93624999999997
42
-0.41421356237309503
10
-282.16868650000004
20
223.43624999999997
10
-282.16868650000009
20
236.43624999999992
42
-0.4142135623730534
10
-281.66868650000004
20
236.93624999999997
10
-268.66868650000004
20
236.93624999999994
42
-0.41421356237313667
10
-268.16868650000004
20
236.43624999999992
10
-268.16868650000004
20
223.43624999999997
42
-0.41421356237313667
0
LWPOLYLINE
5
120
100
AcDbEntity
8
0
100
AcDbPolyline
90
8
70
1
43
0.0
10
-379.79362300000003
20
203.88624999999996
42
0.41421356237301177
10
-379.29362300000008
20
204.38624999999996
10
-379.29362300000003
20
217.38624999999996
42
0.41421356237301177
10
-379.79362300000003
20
217.88624999999996
10
-392.79362300000003
20
217.88624999999996
42
0.41421356237307422
10
-393.29362300000003
20
217.38624999999996
10
-393.29362300000003
20
204.38624999999996
42
0.41421356237301177
10
-392.79362300000003
20
203.88624999999993
0
LWPOLYLINE
5
121
100
AcDbEntity
8
0
100
AcDbPolyline
90
8
70
1
43
0.0
10
-433.76875000000007
20
146.73624999999996
10
-446.76875000000007
20
146.73624999999998
42
-0.4142135623730222
10
-447.26875000000007
20
147.23624999999996
10
-447.26875000000007
20
160.23624999999996
42
-0.4142135623730534
10
-446.76875000000007
20
160.73624999999996
10
-433.76875000000013
20
160.73624999999996
42
-0.41421356237307422
10
-433.26875000000001
20
160.23624999999996
10
-433.26875000000001
20
147.23624999999996
42
-0.41421356237313667
0
LWPOLYLINE
5
122
100
AcDbEntity
8
0
100
AcDbPolyline
90
8
70
1
43
0.0
10
-402.69175000000007
20
185.33624999999995
10
-402.69175000000007
20
198.33624999999998
42
-0.41421356237301177
10
-402.19175000000007
20
198.83624999999995
10
-389.19175000000007
20
198.83625000000001
42
-0.41421356237301177
10
-388.69175000000007
20
198.33624999999998
10
-388.69175000000013
20
185.33624999999995
42
-0.41421356237301177
10
-389.19175000000007
20
184.83624999999995
10
-402.19175000000007
20
184.83624999999995
42
-0.41421356237301177
0
LWPOLYLINE
5
123
100
AcDbEntity
8
0
100
AcDbPolyline
90
8
70
1
43
0.0
10
-452.94562300000007
20
222.93624999999994
42
0.4142135623730534
10
-452.44562300000013
20
223.43624999999997
10
-452.44562300000007
20
236.43624999999997
42
0.41421356237301177
10
-452.94562300000007
20
236.93624999999997
10
-465.94562300000007
20
236.93624999999997
42
0.41421356237307422
10
-466.44562300000007
20
236.43624999999997
10
-466.44562300000007
20
223.43624999999997
42
0.41421356237301177
10
-465.94562300000007
20
222.93624999999994
0
LWPOLYLINE
5
124
100
AcDbEntity
8
0
100
AcDbPolyline
90
8
70
1
43
0.0
10
-307.44175000000001
20
166.28624999999997
10
-307.44174999999996
20
179.28624999999997
42
-0.41421356237309503
10
-306.94175000000001
20
179.78624999999994
10
-293.94175000000007
20
179.78625
42
-0.4142135623730534
10
-293.44175000000001
20
179.28624999999997
10
-293.44175000000001
20
166.28624999999997
42
-0.41421356237313667
10
-293.94175000000007
20
165.78624999999994
10
-306.94175000000001
20
165.78624999999994
42
-0.41421356237313667
0
LWPOLYLINE
5
125
100
AcDbEntity
8
0
100
AcDbPolyline
90
8
70
1
43
0.0
10
-230.50525000000005
20
165.78624999999994
10
-243.50525000000005
20
165.78624999999994
42
-0.41421356237311585
10
-244.00525000000002
20
166.28624999999997
10
-244.00525000000002
20
179.28624999999997
42
-0.41421356237309503
10
-243.50525000000005
20
179.78624999999994
10
-230.50525000000005
20
179.78624999999997
42
-0.41421356237313667
10
-230.00525000000005
20
179.28624999999997
10
-230.00525000000005
20
166.28624999999997
42
-0.4142135623731783
0
LWPOLYLINE
5
126
100
AcDbEntity
8
0
100
AcDbPolyline
90
8
70
1
43
0.0
10
-249.61868650000002
20
222.93624999999994
10
-262.61868650000002
20
222.93624999999994
42
-0.41421356237313667
10
-263.11868650000002
20
223.43624999999997
10
-263.11868650000008
20
236.43624999999992
42
-0.4142135623730534
10
-262.61868650000002
20
236.93624999999997
10
-249.61868650000002
20
236.93624999999994
42
-0.41421356237313667
10
-249.11868650000002
20
236.43624999999992
10
-249.11868650000002
20
223.43624999999997
42
-0.41421356237313667
0
LWPOLYLINE
5
127
100
AcDbEntity
8
0
100
AcDbPolyline
90
8
70
1
43
0.0
10
-389.19175000000007
20
165.78624999999994
10
-402.19175000000007
20
165.78624999999994
42
-0.41421356237303258
10
-402.69175000000007
20
166.28624999999997
10
-402.69175000000007
20
179.28624999999997
42
-0.4142135623730534
10
-402.19175000000007
20
179.78624999999997
10
-389.19175000000007
20
179.78625
42
-0.41421356237301177
10
-388.69175000000007
20
179.28624999999997
10
-388.69175000000018
20
166.28624999999997
42
-0.41421356237307422
0
LWPOLYLINE
5
128
100
AcDbEntity
8
0
100
AcDbPolyline
90
8
70
1
43
0.0
10
-332.04175000000009
20
146.73624999999993
10
-345.04175000000004
20
146.73624999999996
42
-0.4142135623730222
10
-345.54174999999998
20
147.23624999999996
10
-345.54174999999998
20
160.23624999999996
42
-0.4142135623730534
10
-345.04175000000004
20
160.73624999999996
10
-332.04175000000009
20
160.73624999999998
42
-0.41421356237301177
10
-331.54175000000004
20
160.23624999999996
10
-331.54175000000009
20
147.23624999999996
42
-0.41421356237312623
0
LWPOLYLINE
5
129
100
AcDbEntity
8
0
100
AcDbPolyline
90
8
70
1
43
0.0
10
-471.99562300000014
20
222.93624999999994
10
-484.99562300000008
20
222.93624999999997
42
-0.41421356237301177
10
-485.49562300000002
20
223.43624999999997
10
-485.49562299999997
20
236.43624999999997
42
-0.41421356237307422
10
-484.99562300000008
20
236.93624999999997
10
-471.99562300000014
20
236.93625
42
-0.41421356237301177
10
-471.49562300000008
20
236.43624999999997
10
-471.49562300000014
20
223.43624999999997
42
-0.4142135623730534
0
LWPOLYLINE
5
130
100
AcDbEntity
8
0
100
AcDbPolyline
90
8
70
1
43
0.0
10
-360.74362300000007
20
203.88624999999993
10
-373.74362300000001
20
203.8862499999999
42
-0.41421356237301177
10
-374.24362300000007
20
204.38624999999996
10
-374.2436229999999
20
217.38624999999996
42
-0.41421356237307422
10
-373.74362300000001
20
217.88624999999996
10
-360.74362300000007
20
217.88624999999996
42
-0.41421356237303258
10
-360.24362300000007
20
217.38624999999996
10
-360.24362300000007
20
204.38624999999996
42
-0.4142135623730534
0
LWPOLYLINE
5
131
100
AcDbEntity
8
0
100
AcDbPolyline
90
8
70
1
43
0.0
10
-263.11868650000002
20
204.38624999999996
10
-263.11868650000002
20
217.38624999999996
42
-0.41421356237313667
10
-262.61868650000002
20
217.88624999999996
10
-249.61868650000002
20
217.88624999999996
42
-0.4142135623731783
10
-249.11868650000002
20
217.38624999999996
10
-249.11868650000002
20
204.38624999999996
42
-0.41421356237313667
10
-249.61868650000002
20
203.88624999999993
10
-262.61868650000002
20
203.88624999999993
42
-0.41421356237313667
0
LWPOLYLINE
5
132
100
AcDbEntity
8
0
100
AcDbPolyline
90
8
70
1
43
0.0
10
-312.99175000000002
20
165.78624999999994
10
-325.99175000000002
20
165.78624999999991
42
-0.41421356237301177
10
-326.49175000000008
20
166.28624999999997
10
-326.49175000000002
20
179.28624999999997
42
-0.41421356237301177
10
-325.99175000000002
20
179.78624999999994
10
-312.99175000000002
20
179.78624999999997
42
-0.41421356237313667
10
-312.49175000000002
20
179.28624999999997
10
-312.49175000000002
20
166.28624999999997
42
-0.41421356237313667
0
LWPOLYLINE
5
133
100
AcDbEntity
8
0
100
AcDbPolyline
90
8
70
1
43
0.0
10
-408.24175000000002
20
146.73624999999996
10
-421.24175000000008
20
146.73624999999998
42
-0.4142135623730222
10
-421.74175000000002
20
147.23624999999996
10
-421.74175000000002
20
160.23624999999996
42
-0.4142135623730534
10
-421.24175000000008
20
160.73624999999996
10
-408.24175000000014
20
160.73624999999996
42
-0.41421356237307422
10
-407.74175000000002
20
160.23624999999996
10
-407.74175000000002
20
147.23624999999996
42
-0.41421356237313667
0
LWPOLYLINE
5
134
100
AcDbEntity
8
0
100
AcDbPolyline
90
8
70
1
43
0.0
10
-351.09174999999999
20
184.83624999999992
10
-364.09175000000005
20
184.83624999999995
42
-0.41421356237301177
10
-364.59175000000005
20
185.33624999999995
10
-364.59175000000005
20
198.33624999999998
42
-0.41421356237301177
10
-364.09175000000005
20
198.83624999999995
10
-351.09174999999999
20
198.83624999999995
42
-0.41421356237301177
10
-350.59175000000005
20
198.33624999999998
10
-350.59174999999993
20
185.33624999999995
42
-0.41421356237313667
0
LWPOLYLINE
5
135
100
AcDbEntity
8
0
100
AcDbPolyline
90
8
70
1
43
0.0
10
-341.693623
20
203.88624999999993
10
-354.693623
20
203.8862499999999
42
-0.41421356237301177
10
-355.19362300000006
20
204.38624999999996
10
-355.19362299999989
20
217.38624999999996
42
-0.41421356237307422
10
-354.693623
20
217.88624999999996
10
-341.693623
20
217.88624999999996
42
-0.41421356237303258
10
-341.19362300000006
20
217.38624999999996
10
-341.19362300000006
20
204.38624999999996
42
-0.4142135623730534
0
LWPOLYLINE
5
136
100
AcDbEntity
8
0
100
AcDbPolyline
90
8
70
1
43
0.0
10
-384.55612300000007
20
222.93624999999994
10
-397.55612300000007
20
222.93624999999997
42
-0.41421356237301177
10
-398.05612300000007
20
223.43624999999997
10
-398.05612300000001
20
236.43624999999997
42
-0.41421356237307422
10
-397.55612300000007
20
236.93624999999997
10
-384.55612300000013
20
236.93624999999997
42
-0.41421356237307422
10
-384.05612300000001
20
236.43624999999997
10
-384.05612300000001
20
223.43624999999997
42
-0.41421356237313667
0
LWPOLYLINE
5
137
100
AcDbEntity
8
0
100
AcDbPolyline
90
8
70
1
43
0.0
10
-249.55525000000006
20
184.83624999999992
10
-262.55525000000006
20
184.83624999999995
42
-0.41421356237309503
10
-263.05525
20
185.33624999999995
10
-263.05525000000006
20
198.33624999999995
42
-0.41421356237313667
10
-262.55525000000006
20
198.83624999999995
10
-249.55525000000006
20
198.83624999999995
42
-0.4142135623731783
10
-249.05525000000006
20
198.33624999999995
10
-249.05525000000006
20
185.33624999999995
42
-0.41421356237313667
0
LWPOLYLINE
5
138
100
AcDbEntity
8
0
100
AcDbPolyline
90
8
70
1
43
0.0
10
-205.16875000000002
20
184.83624999999992
10
-218.16875000000005
20
184.83624999999992
42
-0.41421356237313667
10
-218.66875000000005
20
185.33624999999995
10
-218.66875000000005
20
198.33624999999995
42
-0.41421356237313667
10
-218.16875000000005
20
198.83624999999995
10
-205.16875000000002
20
198.83624999999992
42
-0.41421356237313667
10
-204.66875000000005
20
198.33624999999995
10
-204.66875000000002
20
185.33624999999995
42
-0.41421356237313667
0
LWPOLYLINE
5
139
100
AcDbEntity
8
0
100
AcDbPolyline
90
8
70
1
43
0.0
10
-332.04175000000009
20
165.78624999999994
10
-345.04175000000004
20
165.78624999999994
42
-0.41421356237303258
10
-345.54174999999998
20
166.28624999999997
10
-345.54174999999998
20
179.28624999999997
42
-0.41421356237301177
10
-345.04175000000004
20
179.78624999999994
10
-332.04175000000009
20
179.78625
42
-0.41421356237301177
10
-331.54175000000004
20
179.28624999999997
10
-331.54175000000015
20
166.28624999999997
42
-0.41421356237307422
0
LWPOLYLINE
5
140
100
AcDbEntity
8
0
100
AcDbPolyline
90
8
70
1
43
0.0
10
-268.60525000000001
20
165.78624999999994
10
-281.60525000000001
20
165.78624999999994
42
-0.4142135623731783
10
-282.10525000000007
20
166.28624999999997
10
-282.10525000000007
20
179.28624999999997
42
-0.41421356237311585
10
-281.60525000000001
20
179.78624999999994
10
-268.60525000000001
20
179.78624999999994
42
-0.41421356237309503
10
-268.10525000000007
20
179.28624999999997
10
-268.10525000000001
20
166.28624999999997
42
-0.41421356237313667
0
LWPOLYLINE
5
141
100
AcDbEntity
8
0
100
AcDbPolyline
90
8
70
1
43
0.0
10
-205.16875000000002
20
222.93624999999994
10
-218.16875000000005
20
222.93624999999994
42
-0.41421356237313667
10
-218.66875000000005
20
223.43624999999997
10
-218.66875000000007
20
236.43624999999992
42
-0.4142135623730534
10
-218.16875000000005
20
236.93624999999997
10
-205.16875000000002
20
236.93624999999994
42
-0.41421356237313667
10
-204.66875000000002
20
236.43624999999992
10
-204.66875000000002
20
223.43624999999997
42
-0.41421356237313667
0
LWPOLYLINE
5
142
100
AcDbEntity
8
0
100
AcDbPolyline
90
8
70
1
43
0.0
10
-218.66875000000005
20
166.28624999999997
10
-218.66874999999999
20
179.28624999999997
42
-0.41421356237309503
10
-218.16875000000005
20
179.78624999999994
10
-205.16875000000002
20
179.78624999999991
42
-0.41421356237311585
10
-204.66875000000005
20
179.28624999999997
10
-204.66875000000002
20
166.28624999999997
42
-0.4142135623731783
10
-205.16875000000002
20
165.78624999999994
10
-218.16875000000005
20
165.78624999999994
42
-0.41421356237313667
0
LWPOLYLINE
5
143
100
AcDbEntity
8
0
100
AcDbPolyline
90
8
70
1
43
0.0
10
-249.55525000000006
20
146.73624999999993
42
0.41421356237313667
10
-249.05525000000006
20
147.23624999999996
10
-249.05525000000006
20
160.23624999999996
42
0.41421356237313667
10
-249.55525000000006
20
160.73624999999996
10
-262.55525000000006
20
160.73624999999996
42
0.41421356237313667
10
-263.05525000000006
20
160.23624999999996
10
-263.05525
20
147.23624999999996
42
0.41421356237309503
10
-262.55525000000006
20
146.73624999999993
0
LWPOLYLINE
5
144
100
AcDbEntity
8
0
100
AcDbPolyline
90
8
70
1
43
0.0
10
-351.09174999999999
20
165.78624999999994
10
-364.09175000000005
20
165.78624999999994
42
-0.41421356237303258
10
-364.59175000000005
20
166.28624999999997
10
-364.59175000000005
20
179.28624999999997
42
-0.41421356237301177
10
-364.09175000000005
20
179.78624999999994
10
-351.09174999999999
20
179.78624999999994
42
-0.41421356237301177
10
-350.59175000000005
20
179.28624999999997
10
-350.59174999999993
20
166.28624999999997
42
-0.41421356237313667
0
LWPOLYLINE
5
145
100
AcDbEntity
8
0
100
AcDbPolyline
90
8
70
1
43
0.0
10
-370.14175000000012
20
146.73624999999993
10
-383.14175000000006
20
146.73624999999996
42
-0.4142135623730222
10
-383.64175
20
147.23624999999996
10
-383.64175
20
160.23624999999996
42
-0.4142135623730534
10
-383.14175000000006
20
160.73624999999996
10
-370.14175000000012
20
160.73624999999998
42
-0.41421356237301177
10
-369.64175000000006
20
160.23624999999996
10
-369.64175000000012
20
147.23624999999996
42
-0.41421356237312623
0
LWPOLYLINE
5
146
100
AcDbEntity
8
0
100
AcDbPolyline
90
8
70
1
43
0.0
10
-312.99175000000002
20
146.73624999999993
10
-325.99175000000002
20
146.73624999999987
42
-0.41421356237303258
10
-326.49175000000008
20
147.23624999999996
10
-326.49175000000002
20
160.23624999999996
42
-0.4142135623730534
10
-325.99175000000002
20
160.73624999999996
10
-312.99175000000002
20
160.73624999999996
42
-0.41421356237313667
10
-312.49175000000002
20
160.23624999999996
10
-312.49175000000008
20
147.23624999999996
42
-0.41421356237310542
0
LWPOLYLINE
5
147
100
AcDbEntity
8
0
100
AcDbPolyline
90
8
70
1
43
0.0
10
-205.16875000000002
20
203.88624999999993
10
-218.16875000000005
20
203.88624999999993
42
-0.41421356237313667
10
-218.66875000000005
20
204.38624999999996
10
-218.66875000000005
20
217.38624999999996
42
-0.41421356237313667
10
-218.16875000000005
20
217.88624999999996
10
-205.16875000000002
20
217.88624999999993
42
-0.41421356237313667
10
-204.66875000000005
20
217.38624999999996
10
-204.66875000000002
20
204.38624999999996
42
-0.41421356237313667
0
LWPOLYLINE
5
148
100
AcDbEntity
8
0
100
AcDbPolyline
90
8
70
1
43
0.0
10
-466.31855949999999
20
204.38624999999996
10
-466.31855949999994
20
217.38624999999996
42
-0.41421356237307422
10
-465.81855950000005
20
217.88624999999996
10
-452.81855950000011
20
217.88624999999996
42
-0.41421356237303258
10
-452.31855950000011
20
217.38624999999996
10
-452.31855950000011
20
204.38624999999996
42
-0.41421356237301177
10
-452.81855950000011
20
203.88624999999996
10
-465.81855950000005
20
203.88624999999996
42
-0.41421356237301177
0
LWPOLYLINE
5
149
100
AcDbEntity
8
0
100
AcDbPolyline
90
8
70
1
43
0.0
10
-307.44175000000001
20
185.33624999999995
10
-307.44174999999996
20
198.33624999999998
42
-0.41421356237309503
10
-306.94175000000001
20
198.83624999999995
10
-293.94175000000007
20
198.83625000000001
42
-0.4142135623730534
10
-293.44175000000001
20
198.33624999999998
10
-293.44175000000007
20
185.33624999999995
42
-0.41421356237309503
10
-293.94175000000007
20
184.83624999999995
10
-306.94175000000001
20
184.83624999999992
42
-0.41421356237313667
0
LWPOLYLINE
5
150
100
AcDbEntity
8
0
100
AcDbPolyline
90
8
70
1
43
0.0
10
-263.05525000000006
20
166.28624999999997
10
-263.05525
20
179.28624999999997
42
-0.41421356237309503
10
-262.55525000000006
20
179.78624999999994
10
-249.55525000000006
20
179.78624999999997
42
-0.41421356237313667
10
-249.05525000000006
20
179.28624999999997
10
-249.05525000000006
20
166.28624999999997
42
-0.4142135623731783
10
-249.55525000000006
20
165.78624999999994
10
-262.55525000000006
20
165.78624999999994
42
-0.41421356237313667
0
LWPOLYLINE
5
151
100
AcDbEntity
8
0
100
AcDbPolyline
90
8
70
1
43
0.0
10
-294.06862300000006
20
222.93624999999994
10
-307.06862300000006
20
222.93624999999994
42
-0.41421356237313667
10
-307.56862300000006
20
223.43624999999997
10
-307.56862300000012
20
236.43624999999992
42
-0.4142135623730534
10
-307.06862300000006
20
236.93624999999997
10
-294.06862300000006
20
236.93624999999997
42
-0.4142135623730534
10
-293.568623
20
236.43624999999992
10
-293.56862300000006
20
223.43624999999997
42
-0.41421356237313667
0
LWPOLYLINE
5
152
100
AcDbEntity
8
0
100
AcDbPolyline
90
8
70
1
43
0.0
10
-370.14175000000012
20
184.83624999999992
10
-383.14175000000006
20
184.83624999999995
42
-0.41421356237301177
10
-383.64175
20
185.33624999999995
10
-383.64175
20
198.33624999999998
42
-0.41421356237301177
10
-383.14175000000006
20
198.83624999999995
10
-370.14175000000012
20
198.83625000000001
42
-0.41421356237301177
10
-369.64175000000006
20
198.33624999999998
10
-369.64175000000012
20
185.33624999999995
42
-0.4142135623730534
0
LWPOLYLINE
5
153
100
AcDbEntity
8
0
100
AcDbPolyline
90
8
70
1
43
0.0
10
-312.99175000000002
20
184.83624999999992
10
-325.99175000000002
20
184.83624999999989
42
-0.41421356237301177
10
-326.49175000000008
20
185.33624999999995
10
-326.49175000000002
20
198.33624999999998
42
-0.41421356237301177
10
-325.99175000000002
20
198.83624999999995
10
-312.99175000000002
20
198.83624999999998
42
-0.41421356237313667
10
-312.49175000000002
20
198.33624999999998
10
-312.49175000000002
20
185.33624999999995
42
-0.41421356237313667
0
LWPOLYLINE
5
154
100
AcDbEntity
8
0
100
AcDbPolyline
90
8
70
1
43
0.0
10
-268.60525000000001
20
146.73624999999993
10
-281.60525000000001
20
146.73624999999993
42
-0.41421356237313667
10
-282.10525000000007
20
147.23624999999996
10
-282.10525000000007
20
160.23624999999996
42
-0.41421356237313667
10
-281.60525000000001
20
160.73624999999996
10
-268.60525000000001
20
160.73624999999993
42
-0.41421356237309503
10
-268.10525000000007
20
160.23624999999996
10
-268.10525000000007
20
147.23624999999996
42
-0.41421356237310542
0
LWPOLYLINE
5
155
100
AcDbEntity
8
0
100
AcDbPolyline
90
8
70
1
43
0.0
10
-230.56868650000001
20
203.88624999999993
10
-243.56868650000001
20
203.88624999999993
42
-0.41421356237313667
10
-244.06868650000004
20
204.38624999999996
10
-244.06868650000004
20
217.38624999999996
42
-0.41421356237313667
10
-243.56868650000001
20
217.88624999999996
10
-230.56868650000001
20
217.88624999999993
42
-0.41421356237313667
10
-230.06868650000004
20
217.38624999999996
10
-230.06868650000001
20
204.38624999999996
42
-0.41421356237313667
0
LWPOLYLINE
5
156
100
AcDbEntity
8
0
100
AcDbPolyline
90
8
70
1
43
0.0
10
-282.10525000000007
20
185.33624999999995
10
-282.10525000000007
20
198.33624999999995
42
-0.4142135623731783
10
-281.60525000000001
20
198.83624999999995
10
-268.60525000000001
20
198.83624999999995
42
-0.41421356237311585
10
-268.10525000000007
20
198.33624999999995
10
-268.10525000000007
20
185.33624999999995
42
-0.41421356237309503
10
-268.60525000000001
20
184.83624999999995
10
-281.60525000000001
20
184.83624999999992
42
-0.41421356237313667
0
LWPOLYLINE
5
157
100
AcDbEntity
8
0
100
AcDbPolyline
90
8
70
1
43
0.0
10
-389.19175000000007
20
146.73624999999993
10
-402.19175000000007
20
146.73624999999996
42
-0.4142135623730222
10
-402.69175000000007
20
147.23624999999996
10
-402.69175000000007
20
160.23624999999996
42
-0.4142135623730534
10
-402.19175000000007
20
160.73624999999996
10
-389.19175000000007
20
160.73624999999998
42
-0.41421356237301177
10
-388.69175000000007
20
160.23624999999996
10
-388.69175000000013
20
147.23624999999996
42
-0.41421356237312623
0
LWPOLYLINE
5
158
100
AcDbEntity
8
0
100
AcDbPolyline
90
8
70
1
43
0.0
10
-351.09174999999999
20
146.73624999999996
42
0.41421356237318868
10
-350.59175000000005
20
147.23624999999996
10
-350.59175000000005
20
160.23624999999996
42
0.41421356237301177
10
-351.09174999999999
20
160.73624999999996
10
-364.09175000000005
20
160.73624999999996
42
0.4142135623730534
10
-364.59175000000005
20
160.23624999999996
10
-364.59175000000005
20
147.23624999999996
42
0.4142135623730222
10
-364.09175000000005
20
146.73624999999993
0
LWPOLYLINE
5
159
100
AcDbEntity
8
0
100
AcDbPolyline
90
8
70
1
43
0.0
10
-204.86375000000007
20
142.60124999999996
42
0.41421359164093996
10
-200.3637500000101
20
147.10125012847996
10
-200.36375000000007
20
236.67624999999998
42
0.41421359163390692
10
-204.86375012847208
20
241.17624999990983
10
-484.83875000000012
20
241.17624999999992
42
0.41421359162856997
10
-489.3387500000801
20
236.67624987159994
10
-489.33874999999705
20
147.10124999999991
42
0.41421359163926463
10
-484.83874987153581
20
142.60124999998294
0
ENDSEC
0
SECTION
2
OBJECTS
0
DICTIONARY
5
C
100
AcDbDictionary
3
ACAD_GROUP
350
D
3
ACAD_MLINESTYLE
350
17
0
DICTIONARY
5
D
100
AcDbDictionary
0
DICTIONARY
5
1A
330
C
100
AcDbDictionary
0
DICTIONARY
5
17
100
AcDbDictionary
0
ENDSEC
0
EOF
